<svg width="24" height="25" viewBox="0 0 24 25" fill="none" xmlns="http://www.w3.org/2000/svg">
<g opacity="0.8" clip-path="url(#clip0_1_1738)">
<path d="M23.4001 12.5271C23.9159 12.4665 23.999 12.2114 23.999 11.7822C23.9938 10.9957 23.9955 10.2092 23.9973 9.42265C23.9981 9.02939 23.999 8.63614 23.999 8.24288C23.9979 7.4249 23.9709 7.37321 23.1473 7.38894M23.4001 12.5271L23.1455 7.28896L23.1473 7.38894M23.4001 12.5271C23.0224 12.5685 22.6734 12.7482 22.4203 13.0316M23.4001 12.5271L22.4203 13.0316M23.1473 7.38894C22.726 7.39681 22.6046 7.23614 22.5664 6.84512L22.6659 6.8354C22.6659 6.83545 22.666 6.8355 22.666 6.83554C22.6847 7.0274 22.7224 7.13423 22.784 7.19602C22.8428 7.25501 22.9441 7.29271 23.1454 7.28896M23.1473 7.38894L23.1454 7.28896M23.1454 7.28896C23.3502 7.28505 23.5137 7.28502 23.6406 7.30154C23.7678 7.31811 23.8753 7.35318 23.9534 7.43364C24.0308 7.51346 24.0639 7.62229 24.0804 7.74926C24.097 7.87646 24.0987 8.03984 24.099 8.24274V8.24288C24.099 8.63661 24.0981 9.03011 24.0973 9.42347C24.0955 10.2097 24.0938 10.9954 24.099 11.7815L24.099 11.7822C24.099 11.9978 24.0795 12.1968 23.9756 12.3492C23.8673 12.508 23.6839 12.5945 23.4118 12.6265L23.411 12.6266C23.0579 12.6652 22.7315 12.8332 22.4949 13.0982C22.2582 13.3632 22.128 13.7063 22.1293 14.0616L22.1294 14.065L22.1293 14.065C22.1183 14.4282 22.2436 14.7824 22.4806 15.0579C22.7175 15.3334 23.049 15.5103 23.4098 15.5537L23.4129 15.5541L23.4129 15.5541C23.6588 15.5915 23.833 15.674 23.9396 15.8235C24.0433 15.969 24.0682 16.1586 24.0653 16.3735C24.0484 17.6089 24.0417 18.8437 24.0653 20.078L24.0653 20.0781C24.0705 20.3556 24.0229 20.5715 23.8763 20.7133C23.7309 20.854 23.5123 20.898 23.239 20.8968C20.3171 20.8837 17.3911 20.8849 14.4645 20.886C13.6281 20.8864 12.7916 20.8867 11.9552 20.8867H0.831589C0.640209 20.8867 0.4853 20.8833 0.363383 20.8644C0.240908 20.8455 0.137083 20.8089 0.0603415 20.731C-0.0161895 20.6533 -0.0518148 20.5486 -0.0702943 20.4251C-0.0887247 20.302 -0.092007 20.1455 -0.092007 19.9519C-0.092007 19.6186 -0.0911395 19.2856 -0.0902721 18.9526C-0.0880187 18.0874 -0.0857668 17.2229 -0.0987366 16.3579L23.1454 7.28896ZM22.385 4.77685C22.3575 4.49878 22.2743 4.29883 22.1041 4.19087C21.9388 4.08601 21.72 4.08755 21.4729 4.13331L21.4727 4.13335C20.8264 4.25454 20.176 4.3505 19.5261 4.44641C19.3649 4.47019 19.2037 4.49397 19.0426 4.51814C12.9169 5.43498 6.79001 6.34283 0.662019 7.24169L0.66194 7.2417C0.42981 7.27594 0.237495 7.34169 0.106468 7.47886C-0.0268342 7.61841 -0.0798739 7.81366 -0.075137 8.06714C-0.052691 9.31963 -0.0594198 10.5735 -0.0717774 11.8273C-0.0740858 12.0455 -0.0436313 12.2329 0.067487 12.374C0.180123 12.517 0.358919 12.5921 0.60314 12.6262L0.603138 12.6262L0.605042 12.6264C0.957801 12.6689 1.2825 12.84 1.51692 13.1069C1.75134 13.3739 1.87899 13.718 1.87541 14.0733H1.87535L1.87544 14.0769C1.88473 14.4402 1.75721 14.7937 1.51816 15.0674C1.2791 15.3411 0.945949 15.515 0.584716 15.5547L0.584709 15.5546L0.581041 15.5552C0.345933 15.5899 0.166499 15.6624 0.0503096 15.8029C-0.0654183 15.9428 -0.102242 16.1309 -0.0987373 16.3579L22.385 4.77685ZM22.385 4.77685L22.2855 4.7867L22.385 4.7768C22.385 4.77681 22.385 4.77683 22.385 4.77685ZM1.21698 8.10917C6.43945 8.11591 11.6623 8.11591 16.8855 8.10917C17.217 8.10917 17.381 8.21029 17.3451 8.55861C17.3376 8.63351 17.3401 8.70842 17.3426 8.78333C17.3438 8.82078 17.3451 8.85823 17.3451 8.89569L0.758555 8.55861C0.751813 8.20917 0.879903 8.10917 1.21698 8.10917ZM1.21698 8.10917V8.20917C1.21694 8.20917 1.2169 8.20917 1.21685 8.20917M1.21698 8.10917L1.21685 8.20917M17.6739 18.6957C17.5338 18.6976 17.4234 18.7345 17.3443 18.8082C17.2659 18.8812 17.2318 18.9777 17.2179 19.0713C17.2041 19.1644 17.2089 19.2643 17.2166 19.3545C17.2197 19.39 17.223 19.4231 17.2262 19.4545C17.2316 19.5077 17.2365 19.5559 17.2384 19.6018C17.2457 19.805 17.1988 19.8807 17.1461 19.9173C17.081 19.9625 16.9724 19.9766 16.7923 19.9766H16.7771H16.762H16.7468H16.7317H16.7166H16.7014H16.6863H16.6711H16.656H16.6408H16.6257H16.6106H16.5954H16.5803H16.5651H16.55H16.5348H16.5197H16.5046H16.4894H16.4743H16.4591H16.444H16.4288H16.4137H16.3986H16.3834H16.3683H16.3531H16.338H16.3229H16.3077H16.2926H16.2774H16.2623H16.2471H16.232H16.2169H16.2017H16.1866H16.1714H16.1563H16.1411H16.126H16.1109H16.0957H16.0806H16.0654H16.0503H16.0352H16.02H16.0049H15.9897H15.9746H15.9594H15.9443H15.9292H15.914H15.8989H15.8837H15.8686H15.8534H15.8383H15.8232H15.808H15.7929H15.7777H15.7626H15.7474H15.7323H15.7172H15.702H15.6869H15.6717H15.6566H15.6415H15.6263H15.6112H15.596H15.5809H15.5657H15.5506H15.5355H15.5203H15.5052H15.49H15.4749H15.4597H15.4446H15.4295H15.4143H15.3992H15.384H15.3689H15.3538H15.3386H15.3235H15.3083H15.2932H15.278H15.2629H15.2478H15.2326H15.2175H15.2023H15.1872H15.172H15.1569H15.1418H15.1266H15.1115H15.0963H15.0812H15.066H15.0509H15.0358H15.0206H15.0055H14.9903H14.9752H14.9601H14.9449H14.9298H14.9146H14.8995H14.8843H14.8692H14.8541H14.8389H14.8238H14.8086H14.7935H14.7783H14.7632H14.7481H14.7329H14.7178H14.7026H14.6875H14.6724H14.6572H14.6421H14.6269H14.6118H14.5966H14.5815H14.5664H14.5512H14.5361H14.5209H14.5058H14.4906H14.4755H14.4604H14.4452H14.4301H14.4149H14.3998H14.3847H14.3695H14.3544H14.3392H14.3241H14.3089H14.2938H14.2787H14.2635H14.2484H14.2332H14.2181H14.2029H14.1878H14.1727H14.1575H14.1424H14.1272H14.1121H14.0969H14.0818H14.0667H14.0515H14.0364H14.0212H14.0061H13.991H13.9758H13.9607H13.9455H13.9304H13.9152H13.9001H13.885H13.8698H13.8547H13.8395H13.8244H13.8092H13.7941H13.779H13.7638H13.7487H13.7335H13.7184H13.7033H13.6881H13.673H13.6578H13.6427H13.6275H13.6124H13.5973H13.5821H13.567H13.5518H13.5367H13.5215H13.5064H13.4913H13.4761H13.461H13.4458H13.4307H13.4156H13.4004H13.3853H13.3701H13.355H13.3398H13.3247H13.3096H13.2944H13.2793H13.2641H13.249H13.2338H13.2187H13.2036H13.1884H13.1733H13.1581H13.143H13.1278H13.1127H13.0976H13.0824H13.0673H13.0521H13.037H13.0219H13.0067H12.9916H12.9764H12.9613H12.9461H12.931H12.9159H12.9007H12.8856H12.8704H12.8553H12.8401H12.825H12.8099H12.7947H12.7796H12.7644H12.7493H12.7342H12.719H12.7039H12.6887H12.6736H12.6584H12.6433H12.6282H12.613H12.5979H12.5827H12.5676H12.5524H12.5373H12.5222H12.507H12.4919H12.4767H12.4616H12.4464H12.4313H12.4162H12.401H12.3859H12.3707H12.3556H12.3405H12.3253H12.3102H12.295H12.2799H12.2647H12.2496H12.2345H12.2193H12.2042H12.189H12.1739H12.1587H12.1436H12.1285H12.1133H12.0982H12.083H12.0679H12.0528H12.0376H12.0225H12.0073H11.9922H11.977H11.9619H11.9468H11.9316H11.9165H11.9013H11.8862H11.871H11.8559H11.8408H11.8256H11.8105H11.7953H11.7802H11.765H11.7499H11.7348H11.7196H11.7045H11.6893H11.6742H11.6591H11.6439H11.6288H11.6136H11.5985H11.5833H11.5682H11.5531H11.5379H11.5228H11.5076H11.4925H11.4773H11.4622H11.4471H11.4319H11.4168H11.4016H11.3865H11.3714H11.3562H11.3411H11.3259H11.3108H11.2956H11.2805H11.2654H11.2502H11.2351H11.2199H11.2048H11.1896H11.1745H11.1594H11.1442H11.1291H11.1139H11.0988H11.0837H11.0685H11.0534H11.0382H11.0231H11.0079H10.9928H10.9777H10.9625H10.9474H10.9322H10.9171H10.9019H10.8868H10.8717H10.8565H10.8414H10.8262H10.8111H10.7959H10.7808H10.7657H10.7505H10.7354H10.7202H10.7051H10.69H10.6748H10.6597H10.6445H10.6294H10.6142H10.5991H10.584H10.5688H10.5537H10.5385H10.5234H10.5082H10.4931H10.478H10.4628H10.4477H10.4325H10.4174H10.4023H10.3871H10.372H10.3568H10.3417H10.3265H10.3114H10.2963H10.2811H10.266H10.2508H10.2357H10.2205H10.2054H10.1903H10.1751H10.16H10.1448H10.1297H10.1145H10.0994H10.0843H10.0691H10.054H10.0388H10.0237H10.0086H9.99341H9.97827H9.96313H9.94799H9.93284H9.9177H9.90256H9.88742H9.87227H9.85713H9.84199H9.82685H9.81171H9.79656H9.78142H9.76628H9.75114H9.736H9.72085H9.70571H9.69057H9.67543H9.66028H9.64514H9.63H9.61486H9.59972H9.58457H9.56943H9.55429H9.53915H9.524H9.50886H9.49372H9.47858H9.46344H9.44829H9.43315H9.41801H9.40287H9.38772H9.37258H9.35744H9.3423H9.32716H9.31201H9.29687H9.28173H9.26659H9.25144H9.2363H9.22116H9.20602H9.19088H9.17573H9.16059H9.14545H9.13031H9.11516H9.10002H9.08488H9.06974H9.0546H9.03945C8.4367 19.9766 7.83386 19.976 7.23094 19.9754C5.28765 19.9736 3.34347 19.9718 1.39812 19.9889C1.16103 19.9906 1.02996 19.9653 0.956091 19.9033C0.889058 19.8471 0.843581 19.7364 0.856185 19.4815C0.896609 18.673 0.882727 17.8646 0.868912 17.0601C0.867298 16.9661 0.865685 16.8722 0.86416 16.7783L0.864154 16.778C0.861521 16.6416 0.882541 16.5641 0.921733 16.5099C0.961745 16.4546 1.03256 16.4071 1.16778 16.3583C2.22313 15.9774 2.80922 15.1547 2.80687 14.1056C2.80453 13.0585 2.21016 12.2031 1.17636 11.8386C1.04578 11.7916 0.971451 11.7461 0.927057 11.6901C0.884518 11.6365 0.858657 11.5593 0.858555 11.4235C0.874288 10.4689 0.876536 9.51178 0.858537 8.55672L0.858536 8.55668C0.855303 8.38911 0.886141 8.31429 0.927202 8.27583C0.970556 8.23522 1.05191 8.20918 1.21685 8.20917M17.6739 18.6957C17.8238 18.6932 17.942 18.7265 18.0277 18.7987C18.1134 18.871 18.1518 18.9696 18.1681 19.0664C18.1843 19.1622 18.1805 19.266 18.174 19.3598C18.1719 19.3899 18.1695 19.4187 18.1673 19.4463C18.1622 19.5091 18.1576 19.5657 18.1574 19.6185C18.1569 19.7777 18.1785 19.8597 18.2174 19.9049C18.2524 19.9457 18.3232 19.9799 18.4933 19.9777L18.4933 19.9777C19.9358 19.9608 21.3781 19.9642 22.8202 19.9777C22.9799 19.9776 23.0647 19.9552 23.1117 19.915C23.154 19.8789 23.1887 19.8074 23.1855 19.6391C23.1675 18.684 23.1709 17.7269 23.1855 16.7724C23.1854 16.6375 23.1628 16.5602 23.1225 16.5062C23.0812 16.4508 23.0096 16.4039 22.8756 16.3562L22.8753 16.3561C22.3537 16.1689 21.9503 15.8768 21.6763 15.4912C21.4024 15.1057 21.2627 14.6333 21.2574 14.0933L21.2574 14.0932C21.248 13.0648 21.8469 12.2034 22.8802 11.8254C23.0233 11.7724 23.1019 11.7168 23.1472 11.6522C23.192 11.5881 23.2146 11.5002 23.2125 11.359C23.1979 10.4405 23.1922 9.52222 23.2125 8.60359L23.2125 8.60321C23.2174 8.41359 23.1853 8.32058 23.1351 8.27078C23.0843 8.22042 22.9892 8.18845 22.7982 8.19118C21.8568 8.20491 20.915 8.2024 19.9734 8.1999C19.6036 8.19892 19.2339 8.19793 18.8642 8.19793C18.6735 8.19793 18.5387 8.19808 18.4388 8.2093C18.3386 8.22054 18.294 8.24119 18.2687 8.26568C18.2433 8.29033 18.2207 8.33508 18.2054 8.43657C18.1902 8.53761 18.1847 8.67494 18.1776 8.86901C18.1732 8.99777 18.1644 9.14843 18.106 9.26905C18.0754 9.33222 18.0304 9.38932 17.9648 9.43122C17.8996 9.47287 17.8204 9.49546 17.7275 9.50006C17.6344 9.50466 17.5528 9.48958 17.4836 9.45375C17.414 9.41766 17.3636 9.36393 17.3282 9.3021C17.2601 9.183 17.2456 9.03044 17.2451 8.89611L17.2451 8.89569C17.2451 8.86513 17.244 8.83143 17.2428 8.79595C17.2403 8.71738 17.2374 8.63004 17.2456 8.54866L17.2456 8.54834C17.2622 8.38761 17.2293 8.31571 17.1869 8.27823C17.1382 8.23527 17.0473 8.20918 16.8856 8.20917C11.6623 8.21591 6.43941 8.21591 1.21685 8.20917M17.6739 18.6957C17.6738 18.6957 17.6738 18.6957 17.6737 18.6957L17.6754 18.7957L17.674 18.6957C17.674 18.6957 17.6739 18.6957 17.6739 18.6957ZM6.50023 7.31254H16.9001C17.3126 7.31254 17.7256 7.31154 18.1389 7.31054C19.2418 7.30786 20.3462 7.30518 21.4454 7.32154M6.50023 7.31254L21.4454 7.32154C21.4454 7.32154 21.4454 7.32154 21.4454 7.32154M6.50023 7.31254C7.39102 7.18247 8.28278 7.05064 9.17558 6.91706M6.50023 7.31254L21.5569 5.41249M21.4454 7.32154C21.655 7.32431 21.7372 7.28682 21.7711 7.24395C21.8063 7.19936 21.8212 7.10999 21.783 6.91754C21.783 6.91751 21.783 6.91747 21.7829 6.91743L21.4454 7.32154ZM21.5569 5.41249C21.538 5.25105 21.4985 5.18245 21.4535 5.15084C21.4063 5.11769 21.3223 5.10291 21.1569 5.1303L21.1406 5.03164L21.157 5.13028C20.2641 5.27895 19.3688 5.40719 18.4739 5.53539C18.2582 5.56629 18.0424 5.59718 17.8268 5.62836L17.8265 5.62841L17.8133 5.63027C17.5897 5.66194 17.4286 5.68476 17.3091 5.71419C17.1869 5.74428 17.1273 5.77721 17.0932 5.8163C17.0599 5.85449 17.0374 5.91435 17.0293 6.03309C17.0212 6.15225 17.0285 6.31149 17.0393 6.53578C17.0452 6.65706 17.0361 6.78517 16.9802 6.89121C16.9203 7.00472 16.8144 7.07921 16.6599 7.10244C16.5052 7.12571 16.3802 7.0846 16.2902 6.99166C16.2066 6.90532 16.1634 6.78461 16.1408 6.66438C16.1086 6.54845 16.0897 6.42921 16.0845 6.30897L16.0842 6.30108L16.0845 6.30109C16.092 6.09138 16.0457 6.00813 15.991 5.97096C15.9271 5.92759 15.8114 5.91531 15.6078 5.94728C13.9886 6.20214 12.3667 6.4429 10.7456 6.68353C10.2221 6.76123 9.69874 6.83892 9.17558 6.91706M21.5569 5.41249C21.5569 5.41262 21.557 5.41276 21.557 5.41289L21.6563 5.4013L21.5569 5.41249ZM9.17558 6.91706L9.1608 6.81816L9.17558 6.91706ZM22.4203 13.0316C22.1672 13.315 22.0279 13.682 22.0293 14.062L22.4203 13.0316Z" fill="#FA8B02" stroke="#FA8B02" stroke-width="0.2"/>
<path d="M13.7934 15.2137L13.7934 15.2146C13.7934 15.3302 13.7696 15.4258 13.7199 15.5013C13.6695 15.5777 13.5991 15.6239 13.5239 15.6513C13.4505 15.6782 13.3704 15.688 13.2952 15.6919C13.2399 15.6948 13.182 15.6946 13.1285 15.6944C13.1099 15.6943 13.0919 15.6943 13.0747 15.6943L13.0745 15.6944C12.1547 15.6958 11.2328 15.6953 10.3104 15.6948C9.84899 15.6946 9.38746 15.6944 8.92599 15.6944H8.91809H8.91019H8.90229H8.89439H8.88649H8.87859H8.87069H8.86279H8.85489H8.84699H8.83909H8.83119H8.82329H8.81539H8.80749H8.79959H8.79169H8.78379H8.77589H8.76799H8.76009H8.75219H8.74429H8.73638H8.72848H8.72058H8.71268H8.70478H8.69688H8.68898H8.68108H8.67318H8.66528H8.65738H8.64948H8.64158H8.63368H8.62578H8.61788H8.60998H8.60208H8.59418H8.58628H8.57838H8.57048H8.56258H8.55468H8.54678H8.53888H8.53098H8.52308H8.51518H8.50728H8.49938H8.49148H8.48358H8.47568H8.46778H8.45988H8.45197H8.44407H8.43617H8.42827H8.42037H8.41247H8.40457H8.39667H8.38877H8.38087H8.37297H8.36507H8.35717H8.34927H8.34137H8.33347H8.32557H8.31767H8.30977H8.30187H8.29397H8.28607H8.27817H8.27027H8.26237H8.25447H8.24657H8.23867H8.23077H8.22287H8.21497H8.20707H8.19917H8.19127H8.18337H8.17546H8.16756H8.15966H8.15176H8.14386H8.13596H8.12806H8.12016H8.11226H8.10436H8.09646H8.08856H8.08066H8.07276H8.06486H8.05696H8.04906H8.04116H8.03326H8.02536H8.01746H8.00956H8.00166H7.99376H7.98586H7.97796H7.97006H7.96216H7.95426H7.94636H7.93846H7.93056H7.92266H7.91476H7.90686H7.89895H7.89105H7.88315H7.87525H7.86735H7.85945H7.85155H7.84365H7.83575H7.82785H7.81995H7.81205H7.80415H7.79625H7.78835H7.78045H7.77255H7.76465H7.75675H7.74885H7.74095H7.73305H7.72515H7.71725H7.70935H7.70145H7.69355H7.68565H7.67775H7.66985H7.66195H7.65405H7.64615H7.63825H7.63035H7.62245H7.61454H7.60664H7.59874H7.59084H7.58294H7.57504H7.56714H7.55924H7.55134H7.54344H7.53554H7.52764H7.51974H7.51184H7.50394H7.49604H7.48814H7.48024H7.47234H7.46444H7.45654H7.44864H7.44074H7.43284H7.42494H7.41704H7.40914H7.40124H7.39334H7.38544H7.37754H7.36964H7.36174H7.35384H7.34594H7.33803H7.33013H7.32223H7.31433H7.30643H7.29853H7.29063H7.28273H7.27483H7.26693H7.25903H7.25113H7.24323H7.23533H7.22743H7.21953H7.21163H7.20373H7.19583H7.18793H7.18003H7.17213H7.16423H7.15633H7.14843H7.14053H7.13263H7.12473H7.11683H7.10893H7.10103H7.09313H7.08523H7.07733H7.06943H7.06153H7.05362H7.04572H7.03782H7.02992H7.02202H7.01412H7.00622H6.99832H6.99042H6.98252H6.97462H6.96672H6.95882H6.95092H6.94302H6.93512H6.92722H6.91932H6.91142H6.90352H6.89562H6.88772H6.87982H6.87192H6.86402H6.85612H6.84822H6.84032H6.83242H6.82452H6.81662H6.80872H6.80082H6.79292H6.78502H6.77711H6.76921H6.76131H6.75341H6.74551H6.73761H6.72971H6.72181H6.71391H6.70601H6.69811H6.69021H6.68231H6.67441H6.66651H6.65861H6.65071H6.64281H6.63491H6.62701H6.61911H6.61121H6.60331H6.59541H6.58751H6.57961H6.57171H6.56381H6.55591H6.54801H6.54011H6.53221H6.52431H6.51641H6.50851H6.50061H6.4927H6.4848H6.4769H6.469H6.4611H6.4532H6.4453H6.4374H6.4295H6.4216H6.4137H6.4058H6.3979H6.39H6.3821H6.3742H6.3663H6.3584H6.3505H6.3426H6.3347H6.3268H6.3189H6.311H6.3031H6.2952H6.2873H6.2794H6.2715H6.2636H6.2557H6.2478H6.2399H6.232H6.2241H6.21619H6.20829H6.20039H6.19249H6.18459H6.17669H6.16879H6.16089H6.15299H6.14509H6.13719H6.12929H6.12139H6.11349H6.10559H6.09769H6.08979H6.08189H6.07399H6.06609H6.05819H6.05029H6.04239H6.03449H6.02659H6.01869H6.01079H6.00289H5.99499H5.98709H5.97919H5.97129H5.96339H5.95549H5.94759H5.93969H5.93178H5.92388H5.91598H5.90808H5.90018H5.89228H5.88438H5.87648H5.86858H5.86068H5.85278H5.84488H5.83698H5.82908H5.82118H5.81328H5.80538H5.79748H5.78958H5.78168H5.77378H5.76588H5.75798H5.75008H5.74218H5.73428H5.72638H5.71848H5.71058H5.70268H5.69478H5.68688H5.67898H5.67108H5.66318H5.65527H5.64737H5.63947H5.63157H5.62367H5.61577H5.60787H5.59997H5.59207H5.58417H5.57627H5.56837H5.56047H5.55257H5.54467H5.53677H5.52887H5.52097H5.51307H5.50517H5.49727H5.48937H5.48147H5.47357H5.46567H5.45777H5.44987H5.44197H5.43407H5.42617H5.41827H5.41037H5.40247H5.39457H5.38667H5.37877H5.37086H5.36296H5.35506H5.34716H5.33926H5.33136H5.32346H5.31556H5.30766H5.29976H5.29186H5.28396H5.27606H5.26816H5.26026H5.25236H5.24446H5.23656H5.22866H5.22076H5.21286H5.20496H5.19706H5.18916H5.18126H5.17336H5.16546H5.15756H5.14966H5.14176H5.13386H5.12596H5.11806H5.11016H5.10226H5.09436H5.08645H5.07855H5.07065H5.06275H5.05485H5.04695H5.03905H5.03115H5.02325H5.01535H5.00745H4.99955H4.99165H4.98375H4.97585H4.96795H4.96005H4.95215H4.94425H4.93635H4.92845H4.92055H4.91265H4.90475H4.89685H4.88895H4.88105C4.86866 15.6944 4.8559 15.6944 4.84285 15.6944C4.78493 15.6947 4.72135 15.6949 4.65996 15.6911C4.58447 15.6865 4.50425 15.6755 4.43093 15.6474C4.356 15.6187 4.2861 15.5712 4.23717 15.4937C4.18878 15.4171 4.16698 15.3209 4.16984 15.2054L13.7934 15.2137ZM13.7934 15.2137C13.7924 15.1076 13.7688 15.0189 13.721 14.9481C13.6729 14.8769 13.6064 14.8328 13.5357 14.8058C13.4122 14.7587 13.2599 14.7591 13.1392 14.7595C13.1293 14.7595 13.1197 14.7595 13.1103 14.7595H13.0941H13.078H13.0619H13.0458H13.0297H13.0136H12.9975H12.9814H12.9653H12.9491H12.933H12.9169H12.9008H12.8847H12.8686H12.8525H12.8364H12.8202H12.8041H12.788H12.7719H12.7558H12.7397H12.7236H12.7075H12.6913H12.6752H12.6591H12.643H12.6269H12.6108H12.5947H12.5786H12.5624H12.5463H12.5302H12.5141H12.498H12.4819H12.4658H12.4497H12.4335H12.4174H12.4013H12.3852H12.3691H12.353H12.3369H12.3208H12.3047H12.2885H12.2724H12.2563H12.2402H12.2241H12.208H12.1919H12.1758H12.1596H12.1435H12.1274H12.1113H12.0952H12.0791H12.063H12.0469H12.0307H12.0146H11.9985H11.9824H11.9663H11.9502H11.9341H11.918H11.9018H11.8857H11.8696H11.8535H11.8374H11.8213H11.8052H11.7891H11.773H11.7568H11.7407H11.7246H11.7085H11.6924H11.6763H11.6602H11.6441H11.6279H11.6118H11.5957H11.5796H11.5635H11.5474H11.5313H11.5152H11.499H11.4829H11.4668H11.4507H11.4346H11.4185H11.4024H11.3863H11.3701H11.354H11.3379H11.3218H11.3057H11.2896H11.2735H11.2574H11.2412H11.2251H11.209H11.1929H11.1768H11.1607H11.1446H11.1285H11.1124H11.0962H11.0801H11.064H11.0479H11.0318H11.0157H10.9996H10.9835H10.9673H10.9512H10.9351H10.919H10.9029H10.8868H10.8707H10.8546H10.8384H10.8223H10.8062H10.7901H10.774H10.7579H10.7418H10.7257H10.7095H10.6934H10.6773H10.6612H10.6451H10.629H10.6129H10.5968H10.5806H10.5645H10.5484H10.5323H10.5162H10.5001H10.484H10.4679H10.4518H10.4356H10.4195H10.4034H10.3873H10.3712H10.3551H10.339H10.3229H10.3067H10.2906H10.2745H10.2584H10.2423H10.2262H10.2101H10.194H10.1778H10.1617H10.1456H10.1295H10.1134H10.0973H10.0812H10.0651H10.0489H10.0328H10.0167H10.0006H9.9845H9.96839H9.95227H9.93616H9.92005H9.90394H9.88783H9.87171H9.8556H9.83949H9.82338H9.80726H9.79115H9.77504H9.75893H9.74282H9.7267H9.71059H9.69448H9.67837H9.66225H9.64614H9.63003H9.61392H9.59781H9.58169H9.56558H9.54947H9.53336H9.51724H9.50113H9.48502H9.46891H9.4528H9.43668H9.42057H9.40446H9.38835H9.37223H9.35612H9.34001H9.3239H9.30779H9.29167H9.27556H9.25945H9.24334H9.22723H9.21111H9.195H9.17889H9.16278H9.14666H9.13055H9.11444H9.09833H9.08222H9.0661H9.04999H9.03388H9.01777H9.00165H8.98554H8.96943H8.95332H8.93721H8.92109H8.90498H8.88887H8.87276H8.85665H8.84053H8.82442H8.80831H8.7922H8.77608H8.75997H8.74386H8.72775H8.71164H8.69552H8.67941H8.6633H8.64719H8.63107H8.61496H8.59885H8.58274H8.56663H8.55051H8.5344H8.51829H8.50218H8.48606H8.46995H8.45384H8.43773H8.42162H8.4055H8.38939H8.37328H8.35717H8.34105H8.32494H8.30883H8.29272H8.27661H8.26049H8.24438H8.22827H8.21216H8.19605H8.17993H8.16382H8.14771H8.1316H8.11548H8.09937H8.08326H8.06715H8.05104H8.03492H8.01881H8.0027H7.98659H7.97047H7.95436H7.93825H7.92214H7.90603H7.88991H7.8738H7.85769H7.84158H7.82547H7.80935H7.79324H7.77713H7.76102H7.7449H7.72879H7.71268H7.69657H7.68046H7.66434H7.64823H7.63212H7.61601H7.59989H7.58378H7.56767H7.55156H7.53545H7.51933H7.50322H7.48711H7.471H7.45488H7.43877H7.42266H7.40655H7.39044H7.37432H7.35821H7.3421H7.32599H7.30988H7.29376H7.27765H7.26154H7.24543H7.22931H7.2132H7.19709H7.18098H7.16487H7.14875H7.13264H7.11653H7.10042H7.0843H7.06819H7.05208H7.03597H7.01986H7.00374H6.98763H6.97152H6.95541H6.9393H6.92318H6.90707H6.89096H6.87485H6.85873H6.84262H6.82651H6.8104H6.79429H6.77817H6.76206H6.74595H6.72984H6.71372H6.69761H6.6815H6.66539H6.64928H6.63316H6.61705H6.60094H6.58483H6.56871H6.5526H6.53649H6.52038H6.50427H6.48815H6.47204H6.45593H6.43982H6.42371H6.40759H6.39148H6.37537H6.35926H6.34314H6.32703H6.31092H6.29481H6.2787H6.26258H6.24647H6.23036H6.21425H6.19813H6.18202H6.16591H6.1498H6.13369H6.11757H6.10146H6.08535H6.06924H6.05312H6.03701H6.0209H6.00479H5.98868H5.97256H5.95645H5.94034H5.92423H5.90812H5.892H5.87589H5.85978H5.84367H5.82755H5.81144H5.79533H5.77922H5.76311H5.74699H5.73088H5.71477H5.69866H5.68254H5.66643H5.65032H5.63421H5.6181H5.60198H5.58587H5.56976H5.55365H5.53753H5.52142H5.50531H5.4892H5.47309H5.45697H5.44086H5.42475H5.40864H5.39253H5.37641H5.3603H5.34419H5.32808H5.31196H5.29585H5.27974H5.26363H5.24752H5.2314H5.21529H5.19918H5.18307H5.16695H5.15084H5.13473H5.11862H5.10251H5.08639H5.07028H5.05417H5.03806H5.02194H5.00583H4.98972H4.97361H4.9575H4.94138H4.92527H4.90916H4.89305H4.87694H4.86082C4.84898 14.7595 4.83672 14.7595 4.82413 14.7594M13.7934 15.2137L4.82413 14.7594M4.82413 14.7594C4.70565 14.7589 4.55696 14.7582 4.43552 14.8023M4.82413 14.7594L4.43552 14.8023M4.43552 14.8023C4.36436 14.8282 4.29677 14.8709 4.24714 14.9412M4.43552 14.8023L4.24714 14.9412M4.24714 14.9412C4.19776 15.0111 4.17245 15.0993 4.16984 15.2054L4.24714 14.9412Z" fill="#FA8B02" stroke="#FA8B02" stroke-width="0.2"/>
<path d="M4.74968 17.9328L4.74968 17.9329H4.75292H4.75325H4.75357H4.7539H4.75423H4.75456H4.75489H4.75522H4.75555H4.75588H4.75621H4.75654H4.75687H4.7572H4.75752H4.75785H4.75818H4.75851H4.75884H4.75917H4.7595H4.75983H4.76016H4.76049H4.76082H4.76115H4.76147H4.7618H4.76213H4.76246H4.76279H4.76312H4.76345H4.76378H4.76411H4.76444H4.76477H4.7651H4.76542H4.76575H4.76608H4.76641H4.76674H4.76707H4.7674H4.76773H4.76806H4.76839H4.76872H4.76905H4.76938H4.7697H4.77003H4.77036H4.77069H4.77102H4.77135H4.77168H4.77201H4.77234H4.77267H4.773H4.77333H4.77365H4.77398H4.77431H4.77464H4.77497H4.7753H4.77563H4.77596H4.77629H4.77662H4.77695H4.77728H4.7776H4.77793H4.77826H4.77859H4.77892H4.77925H4.77958H4.77991H4.78024H4.78057H4.7809H4.78123H4.78155H4.78188H4.78221H4.78254H4.78287H4.7832H4.78353H4.78386H4.78419H4.78452H4.78485H4.78518H4.7855H4.78583H4.78616H4.78649H4.78682H4.78715H4.78748H4.78781H4.78814H4.78847H4.7888H4.78913H4.78945H4.78978H4.79011H4.79044H4.79077H4.7911H4.79143H4.79176H4.79209H4.79242H4.79275H4.79308H4.79341H4.79373H4.79406H4.79439H4.79472H4.79505H4.79538H4.79571H4.79604H4.79637H4.7967H4.79703H4.79736H4.79768H4.79801H4.79834H4.79867H4.799H4.79933H4.79966H4.79999H4.80032H4.80065H4.80098H4.80131H4.80163H4.80196H4.80229H4.80262H4.80295H4.80328H4.80361H4.80394H4.80427H4.8046H4.80493H4.80526H4.80558H4.80591H4.80624H4.80657H4.8069H4.80723H4.80756H4.80789H4.80822H4.80855H4.80888H4.80921H4.80953H4.80986H4.81019H4.81052H4.81085H4.81118H4.81151H4.81184H4.81217H4.8125H4.81283H4.81316H4.81348H4.81381H4.81414H4.81447H4.8148H4.81513H4.81546H4.81579H4.81612H4.81645H4.81678H4.81711H4.81744H4.81776H4.81809H4.81842H4.81875H4.81908H4.81941H4.81974H4.82007H4.8204H4.82073H4.82106H4.82139H4.82171H4.82204H4.82237H4.8227H4.82303H4.82336H4.82369H4.82402H4.82435H4.82468H4.82501H4.82534H4.82566H4.82599H4.82632H4.82665H4.82698H4.82731H4.82764H4.82797H4.8283H4.82863H4.82896H4.82929H4.82961H4.82994H4.83027H4.8306H4.83093H4.83126H4.83159H4.83192H4.83225H4.83258H4.83291H4.83324H4.83356H4.83389H4.83422H4.83455H4.83488H4.83521H4.83554H4.83587H4.8362H4.83653H4.83686H4.83719H4.83751H4.83784H4.83817H4.8385H4.83883H4.83916H4.83949H4.83982H4.84015H4.84048H4.84081H4.84114H4.84147H4.84179H4.84212H4.84245H4.84278H4.84311H4.84344H4.84377H4.8441H4.84443H4.84476H4.84509H4.84542H4.84574H4.84607H4.8464H4.84673H4.84706H4.84739H4.84772H4.84805H4.84838H4.84871H4.84904H4.84937H4.84969H4.85002H4.85035H4.85068H4.85101H4.85134H4.85167H4.852H4.85233H4.85266H4.85299H4.85332H4.85364H4.85397H4.8543H4.85463H4.85496H4.85529H4.85562H4.85595H4.85628H4.85661H4.85694H4.85727H4.85759H4.85792H4.85825H4.85858H4.85891H4.85924H4.85957H4.8599H4.86023H4.86056H4.86089H4.86122H4.86154H4.86187H4.8622H4.86253H4.86286H4.86319H4.86352H4.86385H4.86418H4.86451H4.86484H4.86517H4.8655H4.86582H4.86615H4.86648H4.86681H4.86714H4.86747H4.8678H4.86813H4.86846H4.86879H4.86912H4.86945H4.86977H4.8701H4.87043H4.87076H4.87109H4.87142H4.87175H4.87208H4.87241H4.87274H4.87307H4.8734H4.87372H4.87405H4.87438H4.87471H4.87504H4.87537H4.8757H4.87603H4.87636H4.87669H4.87702H4.87735H4.87767H4.878H4.87833H4.87866H4.87899H4.87932H4.87965H4.87998H4.88031H4.88064H4.88097H4.8813H4.88162H4.88195H4.88228H4.88261H4.88294H4.88327H4.8836H4.88393H4.88426H4.88459H4.88492H4.88525H4.88557H4.8859H4.88623H4.88656H4.88689H4.88722H4.88755H4.88788H4.88821H4.88854H4.88887H4.8892H4.88953H4.88985H4.89018H4.89051H4.89084H4.89117H4.8915H4.89183H4.89216H4.89249H4.89282H4.89315H4.89348H4.8938H4.89413H4.89446H4.89479H4.89512H4.89545H4.89578H4.89611H4.89644H4.89677H4.8971H4.89743H4.89775H4.89808H4.89841H4.89874H4.89907H4.8994H4.89973H4.90006H4.90039H4.90072H4.90105H4.90138H4.9017H4.90203H4.90236H4.90269H4.90302H4.90335H4.90368H4.90401H4.90434H4.90467H4.905H4.90533H4.90565H4.90598H4.90631H4.90664H4.90697H4.9073H4.90763H4.90796H4.90829H4.90862H4.90895H4.90928H4.90961H4.90993H4.91026H4.91059H4.91092H4.91125H4.91158H4.91191H4.91224H4.91257H4.9129H4.91323H4.91356H4.91388H4.91421H4.91454H4.91487H4.9152H4.91553H4.91586H4.91619H4.91652H4.91685H4.91718H4.91751H4.91783H4.91816H4.91849H4.91882H4.91915H4.91948H4.91981H4.92014H4.92047H4.9208H4.92113H4.92146H4.93736H4.95326H4.96916H4.98506H5.00096H5.01686H5.03277H5.04867H5.06457H5.08047H5.09637H5.11227H5.12818H5.14408H5.15998H5.17588H5.19178H5.20768H5.22358H5.23949H5.25539H5.27129H5.28719H5.30309H5.31899H5.33489H5.3508H5.3667H5.3826H5.3985H5.4144H5.4303H5.44621H5.46211H5.47801H5.49391H5.50981H5.52571H5.54161H5.55752H5.57342H5.58932H5.60522H5.62112H5.63702H5.65292H5.66883H5.68473H5.70063H5.71653H5.73243H5.74833H5.76424H5.78014H5.79604H5.81194H5.82784H5.84374H5.85964H5.87555H5.89145H5.90735H5.92325H5.93915H5.95505H5.97096H5.98686H6.00276H6.01866H6.03456H6.05046H6.06636H6.08227H6.09817H6.11407H6.12997H6.14587H6.16177H6.17767H6.19358H6.20948H6.22538H6.24128H6.25718H6.27308H6.28899H6.30489H6.32079H6.33669H6.35259H6.36849H6.38439H6.4003H6.4162H6.4321H6.448H6.4639H6.4798H6.4957H6.51161H6.52751H6.54341H6.55931H6.57521H6.59111H6.60702H6.62292H6.63882H6.65472H6.67062H6.68652H6.70242H6.71833H6.73423H6.75013H6.76603H6.78193H6.79783H6.81374H6.82964H6.84554H6.86144H6.87734H6.89324H6.90914H6.92505H6.94095H6.95685H6.97275H6.98865H7.00455H7.02045H7.03636H7.05226H7.06816H7.08406H7.09996H7.11586H7.13177H7.14767H7.16357H7.17947H7.19537H7.21127H7.22717H7.24308H7.25898H7.27488H7.29078H7.30668H7.32258H7.33849H7.35439H7.37029H7.38619H7.40209H7.41799H7.43389H7.4498H7.4657H7.4816H7.4975H7.5134H7.5293H7.5452H7.56111H7.57701H7.59291H7.60881H7.62471H7.64061H7.65652H7.67242H7.68832H7.70422H7.72012H7.73602H7.75192H7.76783H7.78373H7.79963H7.81553H7.83143H7.84733H7.86323H7.87914H7.89504H7.91094H7.92684H7.94274H7.95864H7.97455H7.99045H8.00635H8.02225H8.03815H8.05405H8.06995H8.08586H8.10176H8.11766H8.13356H8.14946H8.16536H8.18126H8.19717H8.21307H8.22897H8.24487H8.26077H8.27667H8.29258H8.30848H8.32438H8.34028H8.35618H8.37208H8.38798H8.40389H8.41979H8.43569H8.45159H8.46749H8.48339H8.4993H8.5152H8.5311H8.547H8.5629H8.5788H8.5947H8.61061H8.62651H8.64241H8.65831H8.67421H8.69011H8.70601H8.72192H8.73782H8.75372H8.76962H8.78552H8.80142H8.81733H8.83323H8.84913H8.86503H8.88093H8.89683H8.91273H8.92864H8.94454H8.96044H8.97634H8.99224H9.00814H9.02404H9.03995H9.05585H9.07175H9.08765H9.10355H9.11945H9.13536H9.15126H9.16716H9.18306H9.19896H9.21486H9.23076H9.24667H9.26257H9.27847H9.29437H9.31027H9.32617H9.34208H9.35798H9.37388H9.38978H9.40568H9.42158H9.43748H9.45339H9.46929H9.48519H9.50109H9.51699H9.53289H9.54879H9.5647H9.5806H9.5965H9.6124H9.6283H9.6442H9.66011H9.67601H9.69191H9.70781H9.72371H9.73961H9.75551H9.77142H9.78732H9.80322H9.81912H9.83502H9.85092H9.86683H9.88273H9.89863H9.91453H9.93043H9.94633H9.96223H9.97814H9.99404H10.0099H10.0258H10.0417H10.0576H10.0735H10.0894H10.1053H10.1212H10.1372H10.1531H10.169H10.1849H10.2008H10.2167H10.2326H10.2485H10.2644H10.2803H10.2962H10.3121H10.328H10.3439H10.3598H10.3757H10.3916H10.4075H10.4234H10.4393H10.4552H10.4711H10.487H10.5029H10.5188H10.5347H10.5506H10.5665H10.5824H10.5983H10.6142H10.6301H10.646H10.6619H10.6778H10.6937H10.7096H10.7255H10.7414H10.7573H10.7732H10.7891H10.805H10.8209H10.8368H10.8527H10.8686H10.8845H10.9004H10.9163H10.9322H10.9481H10.964H10.9799H10.9958H11.0117H11.0276H11.0435H11.0594H11.0753H11.0912H11.1071H11.123H11.1389H11.1548H11.1707H11.1867H11.2026H11.2185H11.2344H11.2503H11.2662H11.2821H11.298H11.3139H11.3298H11.3457H11.3616H11.3775H11.3934H11.4093H11.4252H11.4411H11.457H11.4729H11.4888H11.5047H11.5206H11.5365H11.5524H11.5683H11.5842H11.6001H11.616H11.6319H11.6478H11.6637H11.6796H11.6955H11.7114H11.7273H11.7432H11.7591H11.775H11.7909H11.8068H11.8227H11.8386H11.8545H11.8704H11.8863H11.9022H11.9181H11.934H11.9499H11.9658H11.9817H11.9976H12.0135H12.0294H12.0453H12.0612H12.0771H12.093H12.1089H12.1248H12.1407H12.1566H12.1725H12.1884H12.2043H12.2202H12.2361H12.2521H12.268H12.2839H12.2998H12.3157H12.3316H12.3475H12.3634H12.3793H12.3952H12.4111H12.427H12.4429H12.4588H12.4747H12.4906H12.5065H12.5224H12.5383H12.5542H12.5701H12.586H12.6019H12.6178H12.6337H12.6496H12.6655H12.6814H12.6973H12.7132H12.7291H12.745H12.7609H12.7768H12.7927H12.8086H12.8245H12.8404H12.8563H12.8722H12.8881H12.904H12.9199H12.9358H12.9517H12.9676H12.9835H12.9994H13.0153H13.0312H13.0471H13.063C13.0855 17.9329 13.1104 17.9333 13.1364 17.9336C13.1834 17.9344 13.2342 17.9351 13.2811 17.9338C13.3565 17.9318 13.4377 17.9245 13.5127 17.9006C13.5893 17.8763 13.663 17.8335 13.7171 17.759C13.7709 17.6851 13.7983 17.5899 13.8012 17.4736C13.8041 17.3576 13.7818 17.2612 13.7319 17.1852C13.6814 17.1084 13.6098 17.0629 13.5341 17.0363C13.46 17.0103 13.3792 17.0013 13.3036 16.998C13.2497 16.9956 13.1931 16.9961 13.141 16.9966C13.121 16.9968 13.1016 16.9969 13.0833 16.9969H13.0754H13.0675H13.0596H13.0517H13.0438H13.0359H13.028H13.0201H13.0122H13.0043H12.9964H12.9884H12.9805H12.9726H12.9647H12.9568H12.9489H12.941H12.9331H12.9252H12.9173H12.9094H12.9015H12.8936H12.8857H12.8778H12.8699H12.862H12.8541H12.8462H12.8383H12.8304H12.8225H12.8146H12.8067H12.7988H12.7909H12.783H12.7751H12.7672H12.7593H12.7514H12.7435H12.7356H12.7277H12.7198H12.7119H12.704H12.6961H12.6882H12.6803H12.6724H12.6645H12.6566H12.6487H12.6408H12.6329H12.625H12.6171H12.6092H12.6013H12.5934H12.5855H12.5776H12.5697H12.5618H12.5539H12.546H12.5381H12.5302H12.5223H12.5144H12.5065H12.4986H12.4907H12.4828H12.4749H12.467H12.4591H12.4512H12.4433H12.4354H12.4275H12.4196H12.4117H12.4038H12.3959H12.388H12.3801H12.3722H12.3643H12.3564H12.3485H12.3406H12.3327H12.3248H12.3169H12.309H12.3011H12.2932H12.2853H12.2774H12.2695H12.2616H12.2537H12.2458H12.2379H12.23H12.2221H12.2142H12.2063H12.1984H12.1905H12.1826H12.1747H12.1668H12.1589H12.151H12.1431H12.1352H12.1273H12.1194H12.1115H12.1036H12.0957H12.0878H12.0799H12.072H12.0641H12.0562H12.0483H12.0404H12.0325H12.0246H12.0167H12.0088H12.0009H11.993H11.9851H11.9772H11.9693H11.9614H11.9535H11.9456H11.9377H11.9298H11.9219H11.914H11.9061H11.8982H11.8903H11.8824H11.8745H11.8666H11.8587H11.8508H11.8429H11.835H11.8271H11.8192H11.8113H11.8034H11.7955H11.7876H11.7797H11.7718H11.7639H11.756H11.7481H11.7402H11.7323H11.7244H11.7165H11.7086H11.7007H11.6928H11.6849H11.677H11.6691H11.6612H11.6533H11.6454H11.6375H11.6296H11.6217H11.6138H11.6059H11.598H11.5901H11.5822H11.5743H11.5664H11.5585H11.5506H11.5427H11.5348H11.5269H11.519H11.5111H11.5032H11.4953H11.4874H11.4795H11.4716H11.4637H11.4558H11.4479H11.44H11.4321H11.4242H11.4163H11.4084H11.4005H11.3926H11.3847H11.3768H11.3689H11.361H11.3531H11.3452H11.3373H11.3294H11.3215H11.3136H11.3057H11.2978H11.2899H11.282H11.2741H11.2662H11.2583H11.2504H11.2425H11.2346H11.2267H11.2188H11.2109H11.203H11.1951H11.1872H11.1793H11.1714H11.1635H11.1556H11.1477H11.1398H11.1319H11.124H11.1161H11.1082H11.1003H11.0924H11.0845H11.0766H11.0687H11.0608H11.0529H11.045H11.0371H11.0292H11.0213H11.0134H11.0055H10.9976H10.9897H10.9818H10.9739H10.966H10.9581H10.9502H10.9423H10.9344H10.9265H10.9186H10.9107H10.9028H10.8949H10.887H10.8791H10.8712H10.8633H10.8554H10.8475H10.8396H10.8317H10.8238H10.8159H10.808H10.8001H10.7922H10.7843H10.7764H10.7685H10.7606H10.7527H10.7448H10.7369H10.729H10.7211H10.7132H10.7053H10.6974H10.6895H10.6816H10.6737H10.6658H10.6579H10.65H10.6421H10.6342H10.6263H10.6184H10.6105H10.6026H10.5947H10.5868H10.5789H10.571H10.5631H10.5552H10.5473H10.5394H10.5315H10.5236H10.5157H10.5078H10.4999H10.492H10.4841H10.4762H10.4683H10.4604H10.4525H10.4446H10.4367H10.4288H10.4209H10.413H10.4051H10.3972H10.3893H10.3814H10.3735H10.3656H10.3577H10.3498H10.3419H10.334H10.3261H10.3182H10.3103H10.3024H10.2945H10.2866H10.2787H10.2708H10.2629H10.255H10.2471H10.2392H10.2313H10.2234H10.2155H10.2076H10.1997H10.1918H10.1839H10.176H10.168H10.1601H10.1522H10.1443H10.1364H10.1285H10.1206H10.1127H10.1048H10.0969H10.089H10.0811H10.0732H10.0653H10.0574H10.0495H10.0416H10.0337H10.0258H10.0179H10.01H10.0021H9.99424H9.98634H9.97844H9.97054H9.96264H9.95474H9.94684H9.93894H9.93104H9.92314H9.91524H9.90734H9.89944H9.89154H9.88364H9.87574H9.86784H9.85994H9.85204H9.84414H9.83624H9.82834H9.82044H9.81254H9.80464H9.79674H9.78884H9.78094H9.77304H9.76514H9.75724H9.74933H9.74143H9.73353H9.72563H9.71773H9.70983H9.70193H9.69403H9.68613H9.67823H9.67033H9.66243H9.65453H9.64663H9.63873H9.63083H9.62293H9.61503H9.60713H9.59923H9.59133H9.58343H9.57553H9.56763H9.55973H9.55183H9.54393H9.53603H9.52813H9.52023H9.51233H9.50443H9.49653H9.48863H9.48073H9.47283H9.46492H9.45702H9.44912H9.44122H9.43332H9.42542H9.41752H9.40962H9.40172H9.39382H9.38592H9.37802H9.37012H9.36222H9.35432H9.34642H9.33852H9.33062H9.32272H9.31482H9.30692H9.29902H9.29112H9.28322H9.27532H9.26742H9.25952H9.25162H9.24372H9.23582H9.22792H9.22002H9.21212H9.20422H9.19632H9.18842H9.18051H9.17261H9.16471H9.15681H9.14891H9.14101H9.13311H9.12521H9.11731H9.10941H9.10151H9.09361H9.08571H9.07781H9.06991H9.06201H9.05411H9.04621H9.03831H4.77314C4.638 16.9969 4.48608 17.0096 4.36758 17.0784C4.30584 17.1143 4.25307 17.1654 4.21749 17.2357C4.18231 17.3052 4.1669 17.3875 4.16982 17.482L4.16982 17.4821C4.17532 17.6589 4.25262 17.7782 4.37382 17.8479C4.48564 17.9123 4.62528 17.9288 4.74968 17.9328Z" fill="#FA8B02" stroke="#FA8B02" stroke-width="0.2"/>
<path d="M4.1755 12.9559L4.1755 12.9559C4.17075 13.0736 4.19159 13.1714 4.2407 13.2486C4.29045 13.3269 4.36219 13.3731 4.43802 13.3999C4.51209 13.4261 4.59298 13.4349 4.66807 13.438C4.72027 13.4401 4.77524 13.4396 4.82555 13.439C4.84654 13.4388 4.86671 13.4386 4.88554 13.4386H4.89339H4.90124H4.9091H4.91695H4.92481H4.93266H4.94052H4.94837H4.95623H4.96409H4.97194H4.9798H4.98766H4.99551H5.00337H5.01123H5.01908H5.02694H5.0348H5.04265H5.05051H5.05837H5.06623H5.07409H5.08195H5.0898H5.09766H5.10552H5.11338H5.12124H5.1291H5.13696H5.14482H5.15268H5.16054H5.1684H5.17626H5.18412H5.19198H5.19984H5.2077H5.21557H5.22343H5.23129H5.23915H5.24701H5.25488H5.26274H5.2706H5.27846H5.28633H5.29419H5.30205H5.30992H5.31778H5.32564H5.33351H5.34137H5.34923H5.3571H5.36496H5.37283H5.38069H5.38856H5.39642H5.40429H5.41215H5.42002H5.42788H5.43575H5.44362H5.45148H5.45935H5.46722H5.47508H5.48295H5.49082H5.49868H5.50655H5.51442H5.52228H5.53015H5.53802H5.54589H5.55376H5.56162H5.56949H5.57736H5.58523H5.5931H5.60097H5.60884H5.61671H5.62458H5.63245H5.64032H5.64819H5.65606H5.66393H5.6718H5.67967H5.68754H5.69541H5.70328H5.71115H5.71902H5.72689H5.73476H5.74264H5.75051H5.75838H5.76625H5.77412H5.782H5.78987H5.79774H5.80561H5.81349H5.82136H5.82923H5.83711H5.84498H5.85285H5.86073H5.8686H5.87648H5.88435H5.89222H5.9001H5.90797H5.91585H5.92372H5.9316H5.93947H5.94735H5.95522H5.9631H5.97097H5.97885H5.98673H5.9946H6.00248H6.01035H6.01823H6.02611H6.03398H6.04186H6.04974H6.05762H6.06549H6.07337H6.08125H6.08912H6.097H6.10488H6.11276H6.12064H6.12851H6.13639H6.14427H6.15215H6.16003H6.16791H6.17579H6.18366H6.19154H6.19942H6.2073H6.21518H6.22306H6.23094H6.23882H6.2467H6.25458H6.26246H6.27034H6.27822H6.2861H6.29398H6.30187H6.30975H6.31763H6.32551H6.33339H6.34127H6.34915H6.35703H6.36492H6.3728H6.38068H6.38856H6.39644H6.40433H6.41221H6.42009H6.42797H6.43586H6.44374H6.45162H6.45951H6.46739H6.47527H6.48316H6.49104H6.49892H6.50681H6.51469H6.52257H6.53046H6.53834H6.54623H6.55411H6.562H6.56988H6.57777H6.58565H6.59354H6.60142H6.60931H6.61719H6.62508H6.63296H6.64085H6.64873H6.65662H6.6645H6.67239H6.68028H6.68816H6.69605H6.70394H6.71182H6.71971H6.72759H6.73548H6.74337H6.75126H6.75914H6.76703H6.77492H6.7828H6.79069H6.79858H6.80647H6.81435H6.82224H6.83013H6.83802H6.84591H6.85379H6.86168H6.86957H6.87746H6.88535H6.89324H6.90113H6.90901H6.9169H6.92479H6.93268H6.94057H6.94846H6.95635H6.96424H6.97213H6.98002H6.98791H6.9958H7.00369H7.01158H7.01947H7.02736H7.03525H7.04314H7.05103H7.05892H7.06681H7.0747H7.08259H7.09048H7.09837H7.10626H7.11415H7.12204H7.12994H7.13783H7.14572H7.15361H7.1615H7.16939H7.17728H7.18518H7.19307H7.20096H7.20885H7.21674H7.22464H7.23253H7.24042H7.24831H7.25621H7.2641H7.27199H7.27988H7.28778H7.29567H7.30356H7.31145H7.31935H7.32724H7.33513H7.34303H7.35092H7.35881H7.36671H7.3746H7.38249H7.39039H7.39828H7.40617H7.41407H7.42196H7.42986H7.43775H7.44564H7.45354H7.46143H7.46933H7.47722H7.48512H7.49301H7.50091H7.5088H7.51669H7.52459H7.53248H7.54038H7.54827H7.55617H7.56406H7.57196H7.57985H7.58775H7.59564H7.60354H7.61144H7.61933H7.62723H7.63512H7.64302H7.65091H7.65881H7.6667H7.6746H7.6825H7.69039H7.69829H7.70618H7.71408H7.72198H7.72987H7.73777H7.74567H7.75356H7.76146H7.76936H7.77725H7.78515H7.79305H7.80094H7.80884H7.81674H7.82463H7.83253H7.84043H7.84832H7.85622H7.86412H7.87201H7.87991H7.88781H7.89571H7.9036H7.9115H7.9194H7.9273H7.93519H7.94309H7.95099H7.95889H7.96678H7.97468H7.98258H7.99048H7.99837H8.00627H8.01417H8.02207H8.02997H8.03786H8.04576H8.05366H8.06156H8.06946H8.07736H8.08525H8.09315H8.10105H8.10895H8.11685H8.12475H8.13264H8.14054H8.14844H8.15634H8.16424H8.17214H8.18004H8.18793H8.19583H8.20373H8.21163H8.21953H8.22743H8.23533H8.24323H8.25113H8.25902H8.26692H8.27482H8.28272H8.29062H8.29852H8.30642H8.31432H8.32222H8.33012H8.33802H8.34592H8.35382H8.36171H8.36961H8.37751H8.38541H8.39331H8.40121H8.40911H8.41701H8.42491H8.43281H8.44071H8.44861H8.45651H8.46441H8.47231H8.48021H8.48811H8.49601H8.50391H8.51181H8.51971H8.52761H8.53551H8.54341H8.55131H8.55921H8.56711H8.57501H8.58291H8.59081H8.59871H8.60661H8.61451H8.62241H8.63031H8.63821H8.64611H8.65401H8.66191H8.66981H8.67771H8.68561H8.69351H8.70141H8.70931H8.71721H8.72511H8.73301H8.74091H8.74881H8.75671H8.76461H8.77251H8.78041H8.78831H8.79621H8.80411H8.81201H8.81991H8.82781H8.83571H8.84361H8.85151H8.85941H8.86731H8.87521H8.88311H8.89101H8.89891H8.90681H8.91471H8.92261C10.3248 13.4386 11.7258 13.4409 13.128 13.4442L13.1287 13.4442C13.1333 13.4442 13.1379 13.4442 13.1426 13.4442C13.266 13.4437 13.4254 13.4431 13.5531 13.3906C13.623 13.3619 13.6883 13.316 13.7341 13.2435C13.7797 13.1714 13.8005 13.0822 13.7979 12.9766C13.7953 12.8713 13.7708 12.7834 13.7232 12.7132C13.6752 12.6425 13.6094 12.5982 13.5391 12.5708C13.4146 12.5223 13.2612 12.5226 13.139 12.5228C13.1308 12.5229 13.1227 12.5229 13.1147 12.5229H4.87205C4.85802 12.5229 4.84334 12.5228 4.82815 12.5227C4.71316 12.5219 4.56867 12.5209 4.4496 12.5615C4.37829 12.5858 4.30959 12.6267 4.25828 12.6952C4.20703 12.7636 4.17977 12.8507 4.1755 12.9559Z" fill="#FA8B02" stroke="#FA8B02" stroke-width="0.2"/>
<path d="M4.27426 10.7079L4.17452 10.7008C4.16741 10.7999 4.18109 10.8856 4.21796 10.9568C4.25539 11.0291 4.31235 11.0782 4.37663 11.1104C4.49806 11.1713 4.65368 11.1753 4.77763 11.1753H4.78551H4.79338H4.80125H4.80913H4.817H4.82488H4.83275H4.84062H4.8485H4.85637H4.86425H4.87212H4.87999H4.88787H4.89574H4.90362H4.91149H4.91936H4.92724H4.93511H4.94299H4.95086H4.95873H4.96661H4.97448H4.98236H4.99023H4.9981H5.00598H5.01385H5.02172H5.0296H5.03747H5.04535H5.05322H5.06109H5.06897H5.07684H5.08472H5.09259H5.10046H5.10834H5.11621H5.12409H5.13196H5.13983H5.14771H5.15558H5.16346H5.17133H5.1792H5.18708H5.19495H5.20283H5.2107H5.21857H5.22645H5.23432H5.2422H5.25007H5.25794H5.26582H5.27369H5.28157H5.28944H5.29731H5.30519H5.31306H5.32093H5.32881H5.33668H5.34456H5.35243H5.3603H5.36818H5.37605H5.38393H5.3918H5.39967H5.40755H5.41542H5.4233H5.43117H5.43904H5.44692H5.45479H5.46267H5.47054H5.47841H5.48629H5.49416H5.50204H5.50991H5.51778H5.52566H5.53353H5.54141H5.54928H5.55715H5.56503H5.5729H5.58078H5.58865H5.59652H5.6044H5.61227H5.62014H5.62802H5.63589H5.64377H5.65164H5.65951H5.66739H5.67526H5.68314H5.69101H5.69888H5.70676H5.71463H5.72251H5.73038H5.73825H5.74613H5.754H5.76188H5.76975H5.77762H5.7855H5.79337H5.80125H5.80912H5.81699H5.82487H5.83274H5.84062H5.84849H5.85636H5.86424H5.87211H5.87998H5.88786H5.89573H5.90361H5.91148H5.91935H5.92723H5.9351H5.94298H5.95085H5.95872H5.9666H5.97447H5.98235H5.99022H5.99809H6.00597H6.01384H6.02172H6.02959H6.03746H6.04534H6.05321H6.06109H6.06896H6.07683H6.08471H6.09258H6.10046H6.10833H6.1162H6.12408H6.13195H6.13983H6.1477H6.15557H6.16345H6.17132H6.17919H6.18707H6.19494H6.20282H6.21069H6.21856H6.22644H6.23431H6.24219H6.25006H6.25793H6.26581H6.27368H6.28156H6.28943H6.2973H6.30518H6.31305H6.32093H6.3288H6.33667H6.34455H6.35242H6.3603H6.36817H6.37604H6.38392H6.39179H6.39967H6.40754H6.41541H6.42329H6.43116H6.43904H6.44691H6.45478H6.46266H6.47053H6.4784H6.48628H6.49415H6.50203H6.5099H6.51777H6.52565H6.53352H6.5414H6.54927H6.55714H6.56502H6.57289H6.58077H6.58864H6.59651H6.60439H6.61226H6.62014H6.62801H6.63588H6.64376H6.65163H6.65951H6.66738H6.67525H6.68313H6.691H6.69888H6.70675H6.71462H6.7225H6.73037H6.73825H6.74612H6.75399H6.76187H6.76974H6.77761H6.78549H6.79336H6.80124H6.80911H6.81698H6.82486H6.83273H6.84061H6.84848H6.85635H6.86423H6.8721H6.87998H6.88785H6.89572H6.9036H6.91147H6.91935H6.92722H6.93509H6.94297H6.95084H6.95872H6.96659H6.97446H6.98234H6.99021H6.99809H7.00596H7.01383H7.02171H7.02958H7.03745H7.04533H7.0532H7.06108H7.06895H7.07682H7.0847H7.09257H7.10045H7.10832H7.11619H7.12407H7.13194H7.13982H7.14769H7.15556H7.16344H7.17131H7.17919H7.18706H7.19493H7.20281H7.21068H7.21856H7.22643H7.2343H7.24218H7.25005H7.25793H7.2658H7.27367H7.28155H7.28942H7.2973H7.30517H7.31304H7.32092H7.32879H7.33666H7.34454H7.35241H7.36029H7.36816H7.37603H7.38391H7.39178H7.39966H7.40753H7.4154H7.42328H7.43115H7.43903H7.4469H7.45477H7.46265H7.47052H7.4784H7.48627H7.49414H7.50202H7.50989H7.51777H7.52564H7.53351H7.54139H7.54926H7.55714H7.56501H7.57288H7.58076H7.58863H7.5965H7.60438H7.61225H7.62013H7.628H7.63587H7.64375H7.65162H7.6595H7.66737H7.67524H7.68312H7.69099H7.69887H7.70674H7.71461H7.72249H7.73036H7.73824H7.74611H7.75398H7.76186H7.76973H7.77761H7.78548H7.79335H7.80123H7.8091H7.81698H7.82485H7.83272H7.8406H7.84847H7.85635H7.86422H7.87209H7.87997H7.88784H7.89571H7.90359H7.91146H7.91934H7.92721H7.93508H7.94296H7.95083H7.95871H7.96658H7.97445H7.98233H7.9902H7.99808H8.00595H8.01382H8.0217H8.02957H8.03745H8.04532H8.05319H8.06107H8.06894H8.07682H8.08469H8.09256H8.10044H8.10831H8.11619H8.12406H8.13193H8.13981H8.14768H8.15556H8.16343H8.1713H8.17918H8.18705H8.19492H8.2028H8.21067H8.21855H8.22642H8.23429H8.24217H8.25004H8.25792H8.26579H8.27366H8.28154H8.28941H8.29729H8.30516H8.31303H8.32091H8.32878H8.33666H8.34453H8.3524H8.36028H8.36815H8.37603H8.3839H8.39177H8.39965H8.40752H8.4154H8.42327H8.43114H8.43902H8.44689H8.45476H8.46264H8.47051H8.47839H8.48626H8.49413H8.50201H8.50988H8.51776H8.52563H8.5335H8.54138H8.54925H8.55713H8.565H8.57287H8.58075H8.58862H8.5965H8.60437H8.61224H8.62012H8.62799H8.63587H8.64374H8.65161H8.65949H8.66736H8.67524H8.68311H8.69098H8.69886H8.70673H8.71461H8.72248H8.73035H8.73823H8.7461H8.75397H8.76185H8.76972H8.7776H8.78547H8.79334H8.80122H8.80909C8.93545 11.1753 9.08853 11.1697 9.20982 11.1088C9.27354 11.0769 9.33022 11.0291 9.36936 10.9593C9.40807 10.8904 9.42563 10.8072 9.42368 10.7104C9.42173 10.6134 9.4005 10.531 9.35846 10.4639C9.31602 10.396 9.25699 10.3512 9.19222 10.3221C9.06937 10.2668 8.91627 10.2652 8.79336 10.2652L6.83269 10.2652L6.83241 10.2652L4.8179 10.2708C4.69043 10.2681 4.53961 10.2712 4.41631 10.3263C4.35184 10.3552 4.29295 10.3989 4.24904 10.4638C4.20536 10.5284 4.18074 10.6077 4.17448 10.7013L4.27426 10.7079ZM4.27426 10.7079C4.29561 10.3888 4.55965 10.3652 4.81696 10.3709L6.83269 10.3652H8.79336C9.0473 10.3652 9.31696 10.3776 9.3237 10.7124C9.33044 11.0473 9.06527 11.0753 8.80909 11.0753H4.77763C4.5237 11.0753 4.24954 11.0529 4.27426 10.7079Z" fill="#FA8B02" stroke="#FA8B02" stroke-width="0.2"/>
<path d="M18.1652 13.1075H18.1652C18.1616 13.244 18.1311 13.381 18.05 13.4844C17.9647 13.593 17.835 13.6501 17.6673 13.6441L17.6665 13.6441C17.509 13.6372 17.3939 13.571 17.3225 13.4632C17.255 13.3613 17.2339 13.2334 17.2338 13.1119C17.2338 13.1118 17.2338 13.1117 17.2338 13.1116L18.1652 13.1075ZM18.1652 13.1075L18.1653 13.1064M18.1652 13.1075L18.1653 13.1064M18.1653 13.1064C18.169 12.8694 18.1678 12.6306 18.1665 12.393C18.1659 12.2748 18.1653 12.1569 18.1653 12.0397C18.1653 11.8045 18.1663 11.5695 18.1673 11.3329C18.1678 11.2125 18.1683 11.0917 18.1686 10.9703L18.1687 10.9703L18.1686 10.9671C18.1649 10.8421 18.139 10.7157 18.0692 10.616C17.9961 10.5115 17.8825 10.4476 17.7307 10.4387L17.7307 10.4387M18.1653 13.1064L17.7307 10.4387M17.7307 10.4387L17.7287 10.4386M17.7307 10.4387L17.7287 10.4386M17.7287 10.4386C17.5584 10.432 17.427 10.4884 17.342 10.5982C17.2611 10.7026 17.2338 10.8406 17.2338 10.9767H17.3338L17.7287 10.4386Z" fill="#FA8B02" stroke="#FA8B02" stroke-width="0.2"/>
<path d="M17.3339 15.1123L17.2339 15.1114C17.2271 15.8214 17.2271 16.5318 17.2339 17.2425H17.2338L17.2339 17.2441C17.2369 17.3636 17.2587 17.4913 17.3265 17.5926C17.3986 17.7003 17.5144 17.7655 17.674 17.7696L17.674 17.7697L18.0653 17.2202L18.1653 17.2218C18.1653 17.2215 18.1653 17.2213 18.1653 17.221C18.1691 16.9835 18.1678 16.7451 18.1666 16.5082C18.1659 16.3904 18.1653 16.2731 18.1653 16.1564C18.1653 16.1563 18.1653 16.1562 18.1653 16.1562L18.1698 15.1499H18.1698V15.1494C18.1698 15.0197 18.1531 14.8801 18.0871 14.7682C18.0164 14.6482 17.8967 14.5726 17.7236 14.5631C17.5507 14.5535 17.4204 14.6165 17.338 14.7304C17.2602 14.8378 17.2339 14.9783 17.2339 15.1123H17.3339ZM17.3339 15.1123C17.3271 15.8217 17.3271 16.5315 17.3339 17.2416L18.0698 15.1494C18.0698 14.9011 18.0035 14.6786 17.7181 14.6629C17.4327 14.6472 17.3339 14.8652 17.3339 15.1123Z" fill="#FA8B02" stroke="#FA8B02" stroke-width="0.2"/>
</g>
<defs>
<clipPath id="clip0_1_1738">
<rect width="24" height="24" fill="white" transform="translate(0 0.5)"/>
</clipPath>
</defs>
</svg>
