<svg width="24" height="25" viewBox="0 0 24 25" fill="none" xmlns="http://www.w3.org/2000/svg">
<g opacity="0.8" clip-path="url(#clip0_1_1661)">
<mask id="path-1-outside-1_1_1661" maskUnits="userSpaceOnUse" x="-1" y="2.73486" width="26" height="19" fill="black">
<rect fill="white" x="-1" y="2.73486" width="26" height="19"/>
<path d="M12.0058 21.2615C8.25794 21.2615 4.50975 21.2615 0.761204 21.2615C0.0126166 21.2615 0 21.2479 0 20.4961V6.20356C0 5.48757 0.0178736 5.46759 0.735971 5.46759C5.20226 5.46759 9.6689 5.4697 14.1359 5.4739C14.4955 5.4739 14.7394 5.38979 14.977 5.09645C15.3301 4.67046 15.7728 4.32758 16.2735 4.09223C16.7743 3.85688 17.3208 3.73486 17.8741 3.73486C18.4274 3.73486 18.9739 3.85688 19.4747 4.09223C19.9754 4.32758 20.4181 4.67046 20.7712 5.09645C20.9962 5.36876 21.2149 5.48967 21.5639 5.476C22.1948 5.45287 22.8256 5.476 23.4564 5.46759C23.8223 5.46128 24 5.5885 24 5.98487C23.993 10.9075 23.993 15.8294 24 20.7505C24 21.2489 23.7109 21.2657 23.3481 21.2647C20.7898 21.2605 18.2314 21.2605 15.673 21.2647L12.0058 21.2615ZM14.896 10.5227C14.9129 10.4238 14.9244 10.4028 14.9181 10.3902C14.8487 10.2493 14.7762 10.1105 14.7078 9.96963C14.1822 8.90563 13.9014 7.79536 14.2095 6.61781C14.3251 6.17623 14.1822 6.12786 13.7994 6.12997C11.3841 6.14258 8.96833 6.14258 6.55224 6.12997C6.14325 6.12997 6.01498 6.23511 6.01814 6.65566C6.03706 9.29884 6.02655 11.9431 6.03075 14.5863C6.03075 14.7156 5.97188 14.868 6.11697 14.9763C6.34091 14.8996 6.486 14.7177 6.65317 14.5694C8.05467 13.3267 9.46248 12.0861 10.8482 10.8307C10.9595 10.7235 11.0915 10.6403 11.2361 10.586C11.3808 10.5318 11.535 10.5077 11.6893 10.5153C12.7586 10.5353 13.8257 10.5227 14.896 10.5227ZM0.647654 10.8381C0.647654 12.2553 0.656065 13.6768 0.640294 15.0899C0.640294 15.4242 0.721251 15.5504 1.07662 15.5451C2.37088 15.5262 3.66618 15.5283 4.96149 15.5451C5.28953 15.5451 5.37469 15.44 5.37364 15.1246C5.36452 12.2725 5.36452 9.4201 5.37364 6.56734C5.37364 6.25193 5.29478 6.13417 4.9657 6.13838C3.67039 6.1531 2.37543 6.1531 1.08083 6.13838C0.735971 6.13838 0.636089 6.24877 0.640294 6.59047C0.657117 7.99828 0.647654 9.41239 0.647654 10.8339V10.8381ZM10.9681 11.6203L6.15587 15.89C6.02129 16.0098 6.02655 16.1676 6.02655 16.3253C6.02655 17.6037 6.03601 18.8812 6.02024 20.1586C6.02024 20.5066 6.13379 20.6065 6.47549 20.6023C7.82337 20.5855 9.17125 20.5823 10.5191 20.6023C10.9071 20.6086 10.9817 20.4604 10.9754 20.1134C10.9554 19.1861 10.9681 18.2588 10.9681 17.3304V11.6203ZM23.3555 14.2225C23.3555 13.3477 23.3471 12.473 23.3608 11.594C23.3608 11.3059 23.2766 11.185 22.9749 11.1903C22.1874 11.204 21.3978 11.2019 20.6135 11.1903C20.5097 11.187 20.4069 11.2114 20.3156 11.2609C20.2244 11.3104 20.1479 11.3833 20.0941 11.4721C19.6137 12.1183 19.0683 12.7137 18.4666 13.2489C18.3215 13.3793 18.2048 13.5065 18.2069 13.7315C18.2174 14.7829 18.2174 15.8325 18.2069 16.8804C18.2069 17.158 18.312 17.24 18.5738 17.2389C20.0457 17.2291 21.5152 17.2291 22.9823 17.2389C23.2903 17.2389 23.366 17.1264 23.3608 16.8404C23.3471 15.9709 23.3555 15.0962 23.3555 14.2225ZM17.9009 4.40569C17.4351 4.40282 16.9744 4.50355 16.5523 4.7006C16.1302 4.89764 15.7571 5.18607 15.4602 5.54501C15.1632 5.90395 14.9498 6.32442 14.8353 6.77599C14.7208 7.22756 14.7082 7.69893 14.7983 8.15599C15.1694 10.0432 16.3491 11.41 17.6633 12.7043C17.8914 12.9282 18.026 12.7726 18.1837 12.6212C19.0181 11.8436 19.7334 10.9473 20.3065 9.96122C20.6783 9.32383 20.9145 8.61656 21.0004 7.88368C21.0493 7.44694 21.0056 7.0048 20.8723 6.58605C20.7389 6.1673 20.5189 5.78132 20.2265 5.45323C19.9342 5.12514 19.576 4.8623 19.1753 4.68181C18.7746 4.50133 18.3404 4.40725 17.9009 4.40569ZM13.831 11.1998C13.0729 11.1998 12.5693 11.2082 12.0584 11.1998C11.786 11.1998 11.6378 11.2628 11.6378 11.5772C11.6494 12.556 11.6441 13.5349 11.6378 14.5148C11.6378 14.7314 11.703 14.867 11.9227 14.95C13.6891 15.6138 15.4529 16.285 17.2144 16.9635C17.5413 17.0896 17.5624 16.9382 17.5582 16.6838C17.5497 16.177 17.5066 15.6639 17.5655 15.1635C17.6938 14.0711 17.3258 13.2899 16.5551 12.453C15.6898 11.5047 14.8918 10.8686 13.831 11.1998ZM14.5764 20.597C15.4344 20.597 16.2912 20.5844 17.1481 20.597C17.473 20.6044 17.5687 20.4919 17.5687 20.1765C17.5487 19.4941 17.5571 18.8097 17.5687 18.1294C17.5687 17.9108 17.515 17.773 17.2943 17.69C15.5419 17.0304 13.7931 16.3645 12.0478 15.6923C11.7482 15.5767 11.642 15.6366 11.6441 15.9688C11.6546 17.3682 11.6588 18.7676 11.6441 20.167C11.6441 20.535 11.8018 20.6002 12.1193 20.5949C12.9321 20.5855 13.7542 20.596 14.5764 20.596V20.597ZM3.01853 16.1812C2.35511 16.1812 1.69063 16.1949 1.0272 16.1749C0.726508 16.1665 0.638192 16.2685 0.641346 16.5639C0.655014 17.7867 0.652911 19.0105 0.641346 20.2333C0.641346 20.5024 0.726508 20.6023 1.00197 20.6002C2.33022 20.5904 3.65847 20.5904 4.98673 20.6002C5.28953 20.6002 5.37364 20.4951 5.37048 20.2017C5.35927 18.9793 5.35927 17.7562 5.37048 16.5324C5.37048 16.2548 5.28006 16.1697 5.00881 16.1749C4.34748 16.1907 3.67985 16.1802 3.01853 16.1802V16.1812ZM20.727 20.597C21.4798 20.597 22.2326 20.5907 22.9844 20.597C23.243 20.597 23.3671 20.5298 23.3608 20.2438C23.345 19.5793 23.3471 18.9138 23.3608 18.2461C23.3608 17.9738 23.2693 17.8803 22.997 17.8813C21.525 17.8911 20.0552 17.8911 18.5875 17.8813C18.3299 17.8813 18.2016 17.9486 18.2079 18.2346C18.2219 18.8991 18.2219 19.5649 18.2079 20.2322C18.2079 20.5066 18.3131 20.6002 18.577 20.596C19.2929 20.5876 20.01 20.5949 20.727 20.5949V20.597ZM23.3555 8.33472V7.59875C23.3555 6.02167 23.3555 6.02167 21.7784 6.13627C21.7427 6.13627 21.708 6.13627 21.6733 6.13627C21.5187 6.13627 21.4462 6.1962 21.4988 6.36548C21.9193 7.73228 21.5671 8.99394 20.9194 10.2009C20.7649 10.4901 20.9016 10.5227 21.1444 10.5164C21.7574 10.5164 22.3704 10.5006 22.9833 10.5164C23.2987 10.5269 23.3608 10.3839 23.3545 10.1074C23.346 9.52384 23.3566 8.92876 23.3566 8.33262L23.3555 8.33472Z"/>
</mask>
<path d="M12.0058 21.2615C8.25794 21.2615 4.50975 21.2615 0.761204 21.2615C0.0126166 21.2615 0 21.2479 0 20.4961V6.20356C0 5.48757 0.0178736 5.46759 0.735971 5.46759C5.20226 5.46759 9.6689 5.4697 14.1359 5.4739C14.4955 5.4739 14.7394 5.38979 14.977 5.09645C15.3301 4.67046 15.7728 4.32758 16.2735 4.09223C16.7743 3.85688 17.3208 3.73486 17.8741 3.73486C18.4274 3.73486 18.9739 3.85688 19.4747 4.09223C19.9754 4.32758 20.4181 4.67046 20.7712 5.09645C20.9962 5.36876 21.2149 5.48967 21.5639 5.476C22.1948 5.45287 22.8256 5.476 23.4564 5.46759C23.8223 5.46128 24 5.5885 24 5.98487C23.993 10.9075 23.993 15.8294 24 20.7505C24 21.2489 23.7109 21.2657 23.3481 21.2647C20.7898 21.2605 18.2314 21.2605 15.673 21.2647L12.0058 21.2615ZM14.896 10.5227C14.9129 10.4238 14.9244 10.4028 14.9181 10.3902C14.8487 10.2493 14.7762 10.1105 14.7078 9.96963C14.1822 8.90563 13.9014 7.79536 14.2095 6.61781C14.3251 6.17623 14.1822 6.12786 13.7994 6.12997C11.3841 6.14258 8.96833 6.14258 6.55224 6.12997C6.14325 6.12997 6.01498 6.23511 6.01814 6.65566C6.03706 9.29884 6.02655 11.9431 6.03075 14.5863C6.03075 14.7156 5.97188 14.868 6.11697 14.9763C6.34091 14.8996 6.486 14.7177 6.65317 14.5694C8.05467 13.3267 9.46248 12.0861 10.8482 10.8307C10.9595 10.7235 11.0915 10.6403 11.2361 10.586C11.3808 10.5318 11.535 10.5077 11.6893 10.5153C12.7586 10.5353 13.8257 10.5227 14.896 10.5227ZM0.647654 10.8381C0.647654 12.2553 0.656065 13.6768 0.640294 15.0899C0.640294 15.4242 0.721251 15.5504 1.07662 15.5451C2.37088 15.5262 3.66618 15.5283 4.96149 15.5451C5.28953 15.5451 5.37469 15.44 5.37364 15.1246C5.36452 12.2725 5.36452 9.4201 5.37364 6.56734C5.37364 6.25193 5.29478 6.13417 4.9657 6.13838C3.67039 6.1531 2.37543 6.1531 1.08083 6.13838C0.735971 6.13838 0.636089 6.24877 0.640294 6.59047C0.657117 7.99828 0.647654 9.41239 0.647654 10.8339V10.8381ZM10.9681 11.6203L6.15587 15.89C6.02129 16.0098 6.02655 16.1676 6.02655 16.3253C6.02655 17.6037 6.03601 18.8812 6.02024 20.1586C6.02024 20.5066 6.13379 20.6065 6.47549 20.6023C7.82337 20.5855 9.17125 20.5823 10.5191 20.6023C10.9071 20.6086 10.9817 20.4604 10.9754 20.1134C10.9554 19.1861 10.9681 18.2588 10.9681 17.3304V11.6203ZM23.3555 14.2225C23.3555 13.3477 23.3471 12.473 23.3608 11.594C23.3608 11.3059 23.2766 11.185 22.9749 11.1903C22.1874 11.204 21.3978 11.2019 20.6135 11.1903C20.5097 11.187 20.4069 11.2114 20.3156 11.2609C20.2244 11.3104 20.1479 11.3833 20.0941 11.4721C19.6137 12.1183 19.0683 12.7137 18.4666 13.2489C18.3215 13.3793 18.2048 13.5065 18.2069 13.7315C18.2174 14.7829 18.2174 15.8325 18.2069 16.8804C18.2069 17.158 18.312 17.24 18.5738 17.2389C20.0457 17.2291 21.5152 17.2291 22.9823 17.2389C23.2903 17.2389 23.366 17.1264 23.3608 16.8404C23.3471 15.9709 23.3555 15.0962 23.3555 14.2225ZM17.9009 4.40569C17.4351 4.40282 16.9744 4.50355 16.5523 4.7006C16.1302 4.89764 15.7571 5.18607 15.4602 5.54501C15.1632 5.90395 14.9498 6.32442 14.8353 6.77599C14.7208 7.22756 14.7082 7.69893 14.7983 8.15599C15.1694 10.0432 16.3491 11.41 17.6633 12.7043C17.8914 12.9282 18.026 12.7726 18.1837 12.6212C19.0181 11.8436 19.7334 10.9473 20.3065 9.96122C20.6783 9.32383 20.9145 8.61656 21.0004 7.88368C21.0493 7.44694 21.0056 7.0048 20.8723 6.58605C20.7389 6.1673 20.5189 5.78132 20.2265 5.45323C19.9342 5.12514 19.576 4.8623 19.1753 4.68181C18.7746 4.50133 18.3404 4.40725 17.9009 4.40569ZM13.831 11.1998C13.0729 11.1998 12.5693 11.2082 12.0584 11.1998C11.786 11.1998 11.6378 11.2628 11.6378 11.5772C11.6494 12.556 11.6441 13.5349 11.6378 14.5148C11.6378 14.7314 11.703 14.867 11.9227 14.95C13.6891 15.6138 15.4529 16.285 17.2144 16.9635C17.5413 17.0896 17.5624 16.9382 17.5582 16.6838C17.5497 16.177 17.5066 15.6639 17.5655 15.1635C17.6938 14.0711 17.3258 13.2899 16.5551 12.453C15.6898 11.5047 14.8918 10.8686 13.831 11.1998ZM14.5764 20.597C15.4344 20.597 16.2912 20.5844 17.1481 20.597C17.473 20.6044 17.5687 20.4919 17.5687 20.1765C17.5487 19.4941 17.5571 18.8097 17.5687 18.1294C17.5687 17.9108 17.515 17.773 17.2943 17.69C15.5419 17.0304 13.7931 16.3645 12.0478 15.6923C11.7482 15.5767 11.642 15.6366 11.6441 15.9688C11.6546 17.3682 11.6588 18.7676 11.6441 20.167C11.6441 20.535 11.8018 20.6002 12.1193 20.5949C12.9321 20.5855 13.7542 20.596 14.5764 20.596V20.597ZM3.01853 16.1812C2.35511 16.1812 1.69063 16.1949 1.0272 16.1749C0.726508 16.1665 0.638192 16.2685 0.641346 16.5639C0.655014 17.7867 0.652911 19.0105 0.641346 20.2333C0.641346 20.5024 0.726508 20.6023 1.00197 20.6002C2.33022 20.5904 3.65847 20.5904 4.98673 20.6002C5.28953 20.6002 5.37364 20.4951 5.37048 20.2017C5.35927 18.9793 5.35927 17.7562 5.37048 16.5324C5.37048 16.2548 5.28006 16.1697 5.00881 16.1749C4.34748 16.1907 3.67985 16.1802 3.01853 16.1802V16.1812ZM20.727 20.597C21.4798 20.597 22.2326 20.5907 22.9844 20.597C23.243 20.597 23.3671 20.5298 23.3608 20.2438C23.345 19.5793 23.3471 18.9138 23.3608 18.2461C23.3608 17.9738 23.2693 17.8803 22.997 17.8813C21.525 17.8911 20.0552 17.8911 18.5875 17.8813C18.3299 17.8813 18.2016 17.9486 18.2079 18.2346C18.2219 18.8991 18.2219 19.5649 18.2079 20.2322C18.2079 20.5066 18.3131 20.6002 18.577 20.596C19.2929 20.5876 20.01 20.5949 20.727 20.5949V20.597ZM23.3555 8.33472V7.59875C23.3555 6.02167 23.3555 6.02167 21.7784 6.13627C21.7427 6.13627 21.708 6.13627 21.6733 6.13627C21.5187 6.13627 21.4462 6.1962 21.4988 6.36548C21.9193 7.73228 21.5671 8.99394 20.9194 10.2009C20.7649 10.4901 20.9016 10.5227 21.1444 10.5164C21.7574 10.5164 22.3704 10.5006 22.9833 10.5164C23.2987 10.5269 23.3608 10.3839 23.3545 10.1074C23.346 9.52384 23.3566 8.92876 23.3566 8.33262L23.3555 8.33472Z" fill="#FA8B02"/>
<path d="M12.0058 21.2615C8.25794 21.2615 4.50975 21.2615 0.761204 21.2615C0.0126166 21.2615 0 21.2479 0 20.4961V6.20356C0 5.48757 0.0178736 5.46759 0.735971 5.46759C5.20226 5.46759 9.6689 5.4697 14.1359 5.4739C14.4955 5.4739 14.7394 5.38979 14.977 5.09645C15.3301 4.67046 15.7728 4.32758 16.2735 4.09223C16.7743 3.85688 17.3208 3.73486 17.8741 3.73486C18.4274 3.73486 18.9739 3.85688 19.4747 4.09223C19.9754 4.32758 20.4181 4.67046 20.7712 5.09645C20.9962 5.36876 21.2149 5.48967 21.5639 5.476C22.1948 5.45287 22.8256 5.476 23.4564 5.46759C23.8223 5.46128 24 5.5885 24 5.98487C23.993 10.9075 23.993 15.8294 24 20.7505C24 21.2489 23.7109 21.2657 23.3481 21.2647C20.7898 21.2605 18.2314 21.2605 15.673 21.2647L12.0058 21.2615ZM14.896 10.5227C14.9129 10.4238 14.9244 10.4028 14.9181 10.3902C14.8487 10.2493 14.7762 10.1105 14.7078 9.96963C14.1822 8.90563 13.9014 7.79536 14.2095 6.61781C14.3251 6.17623 14.1822 6.12786 13.7994 6.12997C11.3841 6.14258 8.96833 6.14258 6.55224 6.12997C6.14325 6.12997 6.01498 6.23511 6.01814 6.65566C6.03706 9.29884 6.02655 11.9431 6.03075 14.5863C6.03075 14.7156 5.97188 14.868 6.11697 14.9763C6.34091 14.8996 6.486 14.7177 6.65317 14.5694C8.05467 13.3267 9.46248 12.0861 10.8482 10.8307C10.9595 10.7235 11.0915 10.6403 11.2361 10.586C11.3808 10.5318 11.535 10.5077 11.6893 10.5153C12.7586 10.5353 13.8257 10.5227 14.896 10.5227ZM0.647654 10.8381C0.647654 12.2553 0.656065 13.6768 0.640294 15.0899C0.640294 15.4242 0.721251 15.5504 1.07662 15.5451C2.37088 15.5262 3.66618 15.5283 4.96149 15.5451C5.28953 15.5451 5.37469 15.44 5.37364 15.1246C5.36452 12.2725 5.36452 9.4201 5.37364 6.56734C5.37364 6.25193 5.29478 6.13417 4.9657 6.13838C3.67039 6.1531 2.37543 6.1531 1.08083 6.13838C0.735971 6.13838 0.636089 6.24877 0.640294 6.59047C0.657117 7.99828 0.647654 9.41239 0.647654 10.8339V10.8381ZM10.9681 11.6203L6.15587 15.89C6.02129 16.0098 6.02655 16.1676 6.02655 16.3253C6.02655 17.6037 6.03601 18.8812 6.02024 20.1586C6.02024 20.5066 6.13379 20.6065 6.47549 20.6023C7.82337 20.5855 9.17125 20.5823 10.5191 20.6023C10.9071 20.6086 10.9817 20.4604 10.9754 20.1134C10.9554 19.1861 10.9681 18.2588 10.9681 17.3304V11.6203ZM23.3555 14.2225C23.3555 13.3477 23.3471 12.473 23.3608 11.594C23.3608 11.3059 23.2766 11.185 22.9749 11.1903C22.1874 11.204 21.3978 11.2019 20.6135 11.1903C20.5097 11.187 20.4069 11.2114 20.3156 11.2609C20.2244 11.3104 20.1479 11.3833 20.0941 11.4721C19.6137 12.1183 19.0683 12.7137 18.4666 13.2489C18.3215 13.3793 18.2048 13.5065 18.2069 13.7315C18.2174 14.7829 18.2174 15.8325 18.2069 16.8804C18.2069 17.158 18.312 17.24 18.5738 17.2389C20.0457 17.2291 21.5152 17.2291 22.9823 17.2389C23.2903 17.2389 23.366 17.1264 23.3608 16.8404C23.3471 15.9709 23.3555 15.0962 23.3555 14.2225ZM17.9009 4.40569C17.4351 4.40282 16.9744 4.50355 16.5523 4.7006C16.1302 4.89764 15.7571 5.18607 15.4602 5.54501C15.1632 5.90395 14.9498 6.32442 14.8353 6.77599C14.7208 7.22756 14.7082 7.69893 14.7983 8.15599C15.1694 10.0432 16.3491 11.41 17.6633 12.7043C17.8914 12.9282 18.026 12.7726 18.1837 12.6212C19.0181 11.8436 19.7334 10.9473 20.3065 9.96122C20.6783 9.32383 20.9145 8.61656 21.0004 7.88368C21.0493 7.44694 21.0056 7.0048 20.8723 6.58605C20.7389 6.1673 20.5189 5.78132 20.2265 5.45323C19.9342 5.12514 19.576 4.8623 19.1753 4.68181C18.7746 4.50133 18.3404 4.40725 17.9009 4.40569ZM13.831 11.1998C13.0729 11.1998 12.5693 11.2082 12.0584 11.1998C11.786 11.1998 11.6378 11.2628 11.6378 11.5772C11.6494 12.556 11.6441 13.5349 11.6378 14.5148C11.6378 14.7314 11.703 14.867 11.9227 14.95C13.6891 15.6138 15.4529 16.285 17.2144 16.9635C17.5413 17.0896 17.5624 16.9382 17.5582 16.6838C17.5497 16.177 17.5066 15.6639 17.5655 15.1635C17.6938 14.0711 17.3258 13.2899 16.5551 12.453C15.6898 11.5047 14.8918 10.8686 13.831 11.1998ZM14.5764 20.597C15.4344 20.597 16.2912 20.5844 17.1481 20.597C17.473 20.6044 17.5687 20.4919 17.5687 20.1765C17.5487 19.4941 17.5571 18.8097 17.5687 18.1294C17.5687 17.9108 17.515 17.773 17.2943 17.69C15.5419 17.0304 13.7931 16.3645 12.0478 15.6923C11.7482 15.5767 11.642 15.6366 11.6441 15.9688C11.6546 17.3682 11.6588 18.7676 11.6441 20.167C11.6441 20.535 11.8018 20.6002 12.1193 20.5949C12.9321 20.5855 13.7542 20.596 14.5764 20.596V20.597ZM3.01853 16.1812C2.35511 16.1812 1.69063 16.1949 1.0272 16.1749C0.726508 16.1665 0.638192 16.2685 0.641346 16.5639C0.655014 17.7867 0.652911 19.0105 0.641346 20.2333C0.641346 20.5024 0.726508 20.6023 1.00197 20.6002C2.33022 20.5904 3.65847 20.5904 4.98673 20.6002C5.28953 20.6002 5.37364 20.4951 5.37048 20.2017C5.35927 18.9793 5.35927 17.7562 5.37048 16.5324C5.37048 16.2548 5.28006 16.1697 5.00881 16.1749C4.34748 16.1907 3.67985 16.1802 3.01853 16.1802V16.1812ZM20.727 20.597C21.4798 20.597 22.2326 20.5907 22.9844 20.597C23.243 20.597 23.3671 20.5298 23.3608 20.2438C23.345 19.5793 23.3471 18.9138 23.3608 18.2461C23.3608 17.9738 23.2693 17.8803 22.997 17.8813C21.525 17.8911 20.0552 17.8911 18.5875 17.8813C18.3299 17.8813 18.2016 17.9486 18.2079 18.2346C18.2219 18.8991 18.2219 19.5649 18.2079 20.2322C18.2079 20.5066 18.3131 20.6002 18.577 20.596C19.2929 20.5876 20.01 20.5949 20.727 20.5949V20.597ZM23.3555 8.33472V7.59875C23.3555 6.02167 23.3555 6.02167 21.7784 6.13627C21.7427 6.13627 21.708 6.13627 21.6733 6.13627C21.5187 6.13627 21.4462 6.1962 21.4988 6.36548C21.9193 7.73228 21.5671 8.99394 20.9194 10.2009C20.7649 10.4901 20.9016 10.5227 21.1444 10.5164C21.7574 10.5164 22.3704 10.5006 22.9833 10.5164C23.2987 10.5269 23.3608 10.3839 23.3545 10.1074C23.346 9.52384 23.3566 8.92876 23.3566 8.33262L23.3555 8.33472Z" stroke="#FA8B02" stroke-width="0.4" mask="url(#path-1-outside-1_1_1661)"/>
<path d="M17.8839 5.54121C17.6215 5.53985 17.3615 5.59031 17.1187 5.68969C16.8757 5.78917 16.6548 5.93571 16.4686 6.12087C16.2824 6.30604 16.1346 6.52618 16.0338 6.76865C15.9332 7.01061 15.8813 7.27004 15.8811 7.53208C15.8727 7.79508 15.917 8.05711 16.0114 8.30276C16.1059 8.54892 16.2488 8.77364 16.4316 8.96368C16.6145 9.15371 16.8335 9.30521 17.0758 9.40922C17.3177 9.51307 17.5779 9.5675 17.8412 9.5693C18.1087 9.57758 18.3752 9.53246 18.6251 9.43657C18.8754 9.34054 19.104 9.19551 19.2976 9.00999C19.4911 8.82447 19.6457 8.60219 19.7522 8.35617C19.8587 8.11015 19.9151 7.84534 19.9179 7.57727C19.9208 7.30919 19.8701 7.04324 19.7689 6.79499C19.6677 6.54675 19.5179 6.3212 19.3284 6.13158C19.1389 5.94196 18.9134 5.79207 18.6653 5.69069C18.4173 5.58942 18.1517 5.5386 17.8839 5.54121ZM17.8839 5.54121C17.8836 5.54121 17.8833 5.54121 17.8831 5.54122L17.8841 5.64121L17.8846 5.54121C17.8844 5.54121 17.8841 5.54121 17.8839 5.54121ZM17.0692 8.38536C16.8526 8.16869 16.7308 7.87482 16.7308 7.5684C16.7308 7.26198 16.8526 6.96811 17.0692 6.75144C17.2859 6.53477 17.5798 6.41305 17.8862 6.41305C18.1926 6.41305 18.4865 6.53477 18.7031 6.75144C18.9198 6.96811 19.0415 7.26198 19.0415 7.5684C19.0415 7.87482 18.9198 8.16869 18.7031 8.38536C18.4865 8.60203 18.1926 8.72376 17.8862 8.72376C17.5798 8.72376 17.2859 8.60203 17.0692 8.38536Z" fill="#FA8B02" stroke="#FA8B02" stroke-width="0.2"/>
</g>
<defs>
<clipPath id="clip0_1_1661">
<rect width="24" height="24" fill="white" transform="translate(0 0.5)"/>
</clipPath>
</defs>
</svg>
