<svg width="24" height="25" viewBox="0 0 24 25" fill="none" xmlns="http://www.w3.org/2000/svg">
<g opacity="0.8" clip-path="url(#clip0_1_1668)">
<path d="M23.9996 19.0815L24.0996 19.0795C24.0798 18.0896 24.082 17.0995 24.0996 16.1092V16.1091C24.1031 15.9059 24.0639 15.7438 23.961 15.6171C23.8599 15.4925 23.709 15.417 23.5225 15.3598C22.1709 14.938 21.3598 13.8514 21.3491 12.5267C21.3385 11.1759 22.1496 10.0681 23.5215 9.64006C23.7309 9.57564 23.8839 9.4858 23.98 9.34649C24.0757 9.20792 24.1036 9.03669 24.0996 8.83538V8.83534C24.0864 8.18681 24.0891 7.5395 24.0918 6.89092C24.093 6.62209 24.0941 6.35303 24.0941 6.08358C24.0941 5.90016 24.0927 5.75253 24.0776 5.63783C24.0626 5.52316 24.0321 5.42338 23.9592 5.35001C23.8862 5.27657 23.7866 5.24532 23.6715 5.2298C23.5564 5.21429 23.408 5.21252 23.223 5.21252H12.0482C11.1345 5.21252 10.2212 5.21297 9.30826 5.21342C6.44021 5.21483 3.57502 5.21624 0.708486 5.20371V5.20371H0.708049C0.44023 5.20371 0.224771 5.24487 0.0824992 5.38209C-0.0615937 5.52107 -0.105363 5.73345 -0.0968742 6.00737L-0.0968613 6.00775C-0.0639181 6.95651 -0.0759773 7.91031 -0.0968975 8.86493L-0.0969215 8.86493V8.86712C-0.0969215 9.05701 -0.0685843 9.21992 0.0226136 9.35233C0.114594 9.48587 0.259469 9.57262 0.457982 9.63451L0.487746 9.53904L0.457738 9.63443C1.8476 10.0716 2.65687 11.1553 2.65687 12.5021C2.65687 13.849 1.84654 14.9346 0.45258 15.3675L0.451464 15.3679C0.255312 15.4313 0.111517 15.5174 0.0200536 15.6499C-0.0707908 15.7815 -0.0991245 15.9434 -0.099141 16.1338L-0.0991081 16.1356C-0.0814982 17.1075 -0.0749125 18.0795 -0.0990846 19.0489M23.9996 19.0815L24.0996 19.0793C24.1048 19.3158 24.0616 19.5046 23.9317 19.6307C23.8032 19.7556 23.6126 19.7961 23.3817 19.7961H23.3816C15.8032 19.7888 8.22483 19.7888 0.646461 19.7961H0.646364C0.402987 19.7961 0.203678 19.7548 0.0705093 19.6253C-0.0641377 19.4944 -0.107036 19.2975 -0.0990846 19.0489M23.9996 19.0815C24.0095 19.5353 23.8289 19.6961 23.3817 19.6961M23.9996 19.0815C23.9798 18.0901 23.982 17.0988 23.9996 16.1074L23.3817 19.6961M-0.0990846 19.0489C-0.0990807 19.0488 -0.0990767 19.0486 -0.0990728 19.0485L0.00087546 19.0517L-0.0990934 19.0492C-0.0990905 19.0491 -0.0990875 19.049 -0.0990846 19.0489ZM23.3817 19.6961C15.8032 19.6888 8.2248 19.6888 0.646364 19.6961H23.3817ZM1.23383 6.09326L1.23378 6.09326C1.0282 6.09163 0.929726 6.12458 0.87886 6.17605C0.828819 6.22668 0.798773 6.32199 0.807939 6.52171C0.807941 6.52174 0.807942 6.52177 0.807944 6.5218L0.708049 6.52639C0.73779 7.14875 0.732282 7.77441 0.708049 8.39897L1.23383 6.09326ZM1.23383 6.09326C3.10162 6.10717 4.97016 6.10528 6.83792 6.10338C7.48428 6.10273 8.13055 6.10207 8.77666 6.10207C9.38063 6.10207 9.9847 6.10273 10.5888 6.10338C12.462 6.10541 14.3358 6.10745 16.2094 6.08995M1.23383 6.09326L16.2094 6.08995M3.51045 12.044C3.33426 10.5882 2.53335 9.53367 1.17928 8.95587C1.0262 8.88979 0.9353 8.82315 0.881489 8.74398C0.828544 8.66609 0.802368 8.56248 0.807981 8.40267L20.5838 12.4867M3.51045 12.044L3.41117 12.056M3.51045 12.044L3.41117 12.056M3.51045 12.044C3.69223 13.5442 3.20013 14.9458 1.85376 15.6293C1.32018 15.9003 1.04675 16.2065 0.911306 16.5521C0.773954 16.9026 0.772593 17.3073 0.8131 17.7897C0.835787 17.9975 0.835741 18.2071 0.812961 18.4149L0.812628 18.418L0.812582 18.418C0.779091 18.6561 0.818306 18.7636 0.881445 18.8197C0.952641 18.883 1.08713 18.9143 1.32664 18.9132L1.32673 18.9132C4.76939 18.9005 8.21442 18.9009 11.6566 18.9014C13.0033 18.9015 14.3497 18.9017 15.6952 18.9011H15.6953C15.7811 18.9011 15.869 18.9058 15.9543 18.9105L15.966 18.9112C16.0481 18.9158 16.1277 18.9202 16.2054 18.921C16.3695 18.9228 16.5108 18.9078 16.6242 18.8527C16.6656 18.8327 16.687 18.8048 16.6999 18.767C16.7144 18.7245 16.7182 18.6682 16.7147 18.5954C16.7126 18.5517 16.7087 18.5115 16.7046 18.4688C16.7015 18.4356 16.6981 18.4008 16.6953 18.3616C16.6896 18.2804 16.6877 18.1917 16.7055 18.1081C16.7277 18.0016 16.7645 17.8927 16.8373 17.8114C16.9151 17.7248 17.0238 17.6805 17.163 17.6873C17.3027 17.6941 17.4084 17.7504 17.4784 17.8443C17.5449 17.9335 17.5716 18.0465 17.5795 18.1564M3.41117 12.056C3.23933 10.6362 2.46166 9.61174 1.13984 9.04777L3.41117 12.056ZM17.5795 18.1564C17.5914 18.3071 17.5936 18.4584 17.5862 18.6094L17.5862 18.6107C17.5783 18.7383 17.5972 18.8059 17.628 18.8427C17.6563 18.8765 17.7153 18.9082 17.8539 18.9077C19.5432 18.8989 21.2325 18.8989 22.9218 18.9077C23.058 18.9076 23.1191 18.8808 23.1499 18.8485C23.1815 18.8153 23.205 18.7518 23.2035 18.618C23.1935 17.9026 23.1924 17.1848 23.2035 16.4701C23.2033 16.3525 23.1773 16.2833 23.1366 16.2331C23.0932 16.1795 23.0236 16.1353 22.9114 16.0869C22.1264 15.7504 21.5168 15.2788 21.1044 14.6739C20.6918 14.0687 20.481 13.3364 20.4838 12.4864M17.5795 18.1564C17.5794 18.1563 17.5794 18.1562 17.5794 18.156L17.4797 18.1639L17.5795 18.1568C17.5795 18.1567 17.5795 18.1566 17.5795 18.1564ZM20.4838 12.4864L20.5838 12.4867M20.4838 12.4864C20.4838 12.4865 20.4838 12.4866 20.4838 12.4867H20.5838M20.4838 12.4864C20.4839 11.6478 20.697 10.9237 21.1076 10.3254C21.518 9.72735 22.1215 9.26094 22.8929 8.93052M20.5838 12.4867C20.5838 10.8443 21.4177 9.67122 22.9322 9.02243M22.8929 8.93052L22.9322 9.02243M22.8929 8.93052C22.8929 8.93051 22.8929 8.93051 22.8929 8.93051L22.9322 9.02243M22.8929 8.93052C23.0295 8.87196 23.1034 8.81188 23.1455 8.74445C23.1879 8.67666 23.2071 8.5872 23.2046 8.45071C23.1903 7.78932 23.1825 7.1262 23.2046 6.46248L23.2046 6.4622C23.211 6.28626 23.1797 6.20618 23.1362 6.16499C23.0906 6.12174 23.0041 6.0944 22.8299 6.09656L22.8298 6.09656C22.0545 6.10502 21.2766 6.10419 20.4996 6.10337C19.862 6.1027 19.2251 6.10202 18.5908 6.10648L18.5901 6.10648C18.4987 6.10648 18.4051 6.09761 18.3157 6.08849C18.3066 6.08756 18.2974 6.08662 18.2883 6.08569C18.2073 6.07736 18.1298 6.0694 18.0541 6.06662C17.8855 6.06044 17.7459 6.08126 17.6344 6.16719L17.6343 6.16725C17.5708 6.21613 17.5532 6.29692 17.5617 6.43782C17.5641 6.47868 17.5678 6.51541 17.5717 6.55427C17.5749 6.58556 17.5782 6.61824 17.5811 6.65558C17.5869 6.73125 17.5895 6.8133 17.5761 6.89228M22.9322 9.02243L17.4775 6.87558M17.5761 6.89228L17.4775 6.87558M17.5761 6.89228C17.5761 6.89219 17.5762 6.8921 17.5762 6.89202L17.4775 6.87558M17.5761 6.89228C17.5576 7.00357 17.5202 7.11307 17.4451 7.19442C17.3662 7.27989 17.2564 7.32278 17.1195 7.31809M17.4775 6.87558C17.4434 7.08046 17.3476 7.22586 17.1228 7.21815M17.1195 7.31809L17.1228 7.21815M17.1195 7.31809C17.1195 7.31809 17.1194 7.31809 17.1194 7.31809L17.1228 7.21815M17.1195 7.31809C16.9972 7.31397 16.8979 7.269 16.8269 7.1895C16.7587 7.11323 16.7241 7.01373 16.7101 6.91105C16.6888 6.79356 16.6841 6.67364 16.6962 6.55483L16.6967 6.55011L16.6968 6.55012C16.7305 6.32517 16.6909 6.22656 16.6316 6.17574C16.563 6.1169 16.434 6.08831 16.2094 6.08995M17.1228 7.21815L16.2086 5.98996L16.2095 6.08995C16.2095 6.08995 16.2095 6.08995 16.2094 6.08995M0.713557 18.404C0.644161 18.8975 0.849043 19.0154 1.3271 19.0132L1.80846 15.5401C0.709151 16.0986 0.632044 16.83 0.713557 17.7993C0.735588 18.0003 0.735588 18.2031 0.713557 18.404Z" fill="#FA8B02" stroke="#FA8B02" stroke-width="0.2"/>
<path d="M6.47155 16.1901L6.48599 16.1931L6.50069 16.1918C6.74118 16.1711 6.88274 16.0243 6.99288 15.9101C7.00862 15.8938 7.02372 15.8781 7.03837 15.8636L7.0387 15.8633C8.17983 14.7214 9.32133 13.5795 10.4632 12.4377C11.3333 11.5697 12.2039 10.7032 13.0747 9.83823L13.0747 9.83823C13.1597 9.75388 13.2497 9.64831 13.2839 9.52668C13.3017 9.46335 13.3046 9.39525 13.2839 9.32532C13.2634 9.25602 13.2217 9.19129 13.1603 9.13093C13.0355 9.00811 12.901 8.96991 12.7666 9.00326C12.6441 9.03368 12.5373 9.12034 12.4492 9.20717L12.3324 9.3164L12.3323 9.31636L12.33 9.31871C10.3843 11.2622 8.43939 13.2071 6.4952 15.1535C6.36125 15.2646 6.24447 15.395 6.14866 15.5404L6.14826 15.5401L6.14367 15.5488C6.05813 15.7113 6.04395 15.8628 6.12196 15.9858C6.19507 16.101 6.33134 16.1606 6.47155 16.1901Z" fill="#FA8B02" stroke="#FA8B02" stroke-width="0.2"/>
<path d="M9.10687 10.2981L9.10687 10.2975C9.10795 10.078 9.06564 9.8605 8.98236 9.65744C8.89909 9.45438 8.77649 9.26978 8.62163 9.11426C8.46676 8.95874 8.28268 8.83537 8.07997 8.75124C7.87762 8.66726 7.66069 8.62403 7.44162 8.62403C7.22278 8.61922 7.00514 8.65763 6.80116 8.73706C6.59682 8.81663 6.41022 8.93581 6.25209 9.08773C6.09396 9.23966 5.96741 9.42134 5.87972 9.62233C5.79203 9.82332 5.74493 10.0397 5.74113 10.2589H5.74113L5.74112 10.2595C5.73858 10.4805 5.7796 10.6998 5.86183 10.905C5.94406 11.1101 6.06589 11.2971 6.22036 11.4551C6.37484 11.6132 6.55893 11.7393 6.76213 11.8262C6.96534 11.9131 7.18367 11.9592 7.40467 11.9617C7.62567 11.9642 7.845 11.9232 8.05015 11.841C8.2553 11.7588 8.44224 11.6369 8.6003 11.4825C8.75837 11.328 8.88445 11.1439 8.97137 10.9407C9.05829 10.7375 9.10433 10.5191 9.10687 10.2981ZM7.7125 11.0213C7.61638 11.0588 7.5138 11.077 7.41063 11.0749C7.20226 11.0707 7.00413 10.9838 6.85982 10.8334C6.7155 10.6831 6.63683 10.4815 6.64111 10.2732C6.64538 10.0648 6.73226 9.86667 6.88262 9.72236C7.03298 9.57805 7.23451 9.49937 7.44287 9.50365C7.54604 9.50577 7.64779 9.52819 7.7423 9.56962C7.8368 9.61106 7.92222 9.67071 7.99368 9.74516C8.06514 9.81961 8.12123 9.90741 8.15876 10.0035C8.19628 10.0997 8.21451 10.2022 8.21239 10.3054C8.21027 10.4086 8.18785 10.5103 8.14641 10.6048C8.10498 10.6993 8.04533 10.7848 7.97088 10.8562C7.89643 10.9277 7.80863 10.9838 7.7125 11.0213Z" fill="#FA8B02" stroke="#FA8B02" stroke-width="0.2"/>
<path d="M13.4755 14.6811L13.4755 14.6807C13.4697 14.2388 13.2916 13.8167 12.9792 13.5042C12.6667 13.1918 12.2446 13.0137 11.8027 13.0079V13.0079L11.8019 13.0079C11.5778 13.0069 11.3557 13.051 11.1491 13.1378C10.9424 13.2245 10.7553 13.3521 10.5991 13.5128C10.4429 13.6735 10.3207 13.8641 10.2398 14.0731C10.1591 14.2817 10.1213 14.5044 10.1285 14.7279C10.1296 14.9467 10.1745 15.1631 10.2605 15.3643C10.3466 15.5659 10.4723 15.7482 10.6301 15.9005C10.7878 16.0528 10.9745 16.172 11.179 16.2509C11.3831 16.3298 11.601 16.367 11.8197 16.3605C12.0385 16.3594 12.2549 16.3152 12.4566 16.2303C12.6587 16.1453 12.842 16.0212 12.996 15.8652C13.1499 15.7091 13.2716 15.5242 13.3539 15.321C13.4362 15.1178 13.4775 14.9003 13.4755 14.6811ZM12.5705 14.668L12.5705 14.668L12.5706 14.6708C12.5751 14.7753 12.5585 14.8796 12.5219 14.9775C12.4853 15.0754 12.4295 15.165 12.3576 15.241C12.2858 15.3169 12.1994 15.3777 12.1036 15.4196C12.0083 15.4614 11.9055 15.4837 11.8014 15.4852C11.5973 15.4822 11.4019 15.4019 11.2546 15.2604C11.1072 15.1189 11.0191 14.9267 11.008 14.7226C11.0042 14.6179 11.0215 14.5134 11.0589 14.4154C11.0964 14.3173 11.1533 14.2276 11.2262 14.152C11.2992 14.0763 11.3866 14.0161 11.4834 13.975C11.5801 13.934 11.6841 13.9128 11.7892 13.9129L11.7911 13.9129C11.8919 13.9111 11.9921 13.9292 12.0859 13.9662C12.1797 14.0032 12.2652 14.0584 12.3376 14.1285C12.4101 14.1987 12.4679 14.2825 12.5079 14.375C12.5478 14.4676 12.5691 14.5671 12.5705 14.668Z" fill="#FA8B02" stroke="#FA8B02" stroke-width="0.2"/>
<path d="M17.5875 11.9581H17.5874V11.9592V11.9603V11.9613V11.9624V11.9635V11.9646V11.9656V11.9667V11.9678V11.9688V11.9699V11.971V11.9721V11.9731V11.9742V11.9753V11.9763V11.9774V11.9785V11.9796V11.9806V11.9817V11.9828V11.9838V11.9849V11.986V11.9871V11.9881V11.9892V11.9903V11.9913V11.9924V11.9935V11.9946V11.9956V11.9967V11.9978V11.9988V11.9999V12.001V12.0021V12.0031V12.0042V12.0053V12.0063V12.0074V12.0085V12.0096V12.0106V12.0117V12.0128V12.0138V12.0149V12.016V12.0171V12.0181V12.0192V12.0203V12.0213V12.0224V12.0235V12.0246V12.0256V12.0267V12.0278V12.0288V12.0299V12.031V12.0321V12.0331V12.0342V12.0353V12.0363V12.0374V12.0385V12.0396V12.0406V12.0417V12.0428V12.0438V12.0449V12.046V12.0471V12.0481V12.0492V12.0503V12.0513V12.0524V12.0535V12.0546V12.0556V12.0567V12.0578V12.0588V12.0599V12.061V12.0621V12.0631V12.0642V12.0653V12.0664V12.0674V12.0685V12.0696V12.0706V12.0717V12.0728V12.0739V12.0749V12.076V12.0771V12.0781V12.0792V12.0803V12.0814V12.0824V12.0835V12.0846V12.0856V12.0867V12.0878V12.0889V12.0899V12.091V12.0921V12.0932V12.0942V12.0953V12.0964V12.0974V12.0985V12.0996V12.1007V12.1017V12.1028V12.1039V12.1049V12.106V12.1071V12.1082V12.1092V12.1103V12.1114V12.1125V12.1135V12.1146V12.1157V12.1167V12.1178V12.1189V12.12V12.121V12.1221V12.1232V12.1243V12.1253V12.1264V12.1275V12.1285V12.1296V12.1307V12.1318V12.1328V12.1339V12.135V12.1361V12.1371V12.1382V12.1393V12.1403V12.1414V12.1425V12.1436V12.1446V12.1457V12.1468V12.1479V12.1489V12.15V12.1511V12.1521V12.1532V12.1543V12.1554V12.1564V12.1575V12.1586V12.1597V12.1607V12.1618V12.1629V12.1639V12.165V12.1661V12.1672V12.1682V12.1693V12.1704V12.1715V12.1725V12.1736V12.1747V12.1758V12.1768V12.1779V12.179V12.18V12.1811V12.1822V12.1833V12.1843V12.1854V12.1865V12.1876V12.1886V12.1897V12.1908V12.1919V12.1929V12.194V12.1951V12.1962V12.1972V12.1983V12.1994V12.2004V12.2015V12.2026V12.2037V12.2047V12.2058V12.2069V12.208V12.209V12.2101V12.2112V12.2123V12.2133V12.2144V12.2155V12.2166V12.2176V12.2187V12.2198V12.2209V12.2219V12.223V12.2241V12.2252V12.2262V12.2273V12.2284V12.2295V12.2305V12.2316V12.2327V12.2338V12.2348V12.2359V12.237V12.2381V12.2391V12.2402V12.2413V12.2423V12.2434V12.2445V12.2456V12.2466V12.2477V12.2488V12.2499V12.2509V12.252V12.2531V12.2542V12.2552V12.2563V12.2574V12.2585V12.2596V12.2606V12.2617V12.2628V12.2639V12.2649V12.266V12.2671V12.2682V12.2692V12.2703V12.2714V12.2725V12.2735V12.2746V12.2757V12.2768V12.2778V12.2789V12.28V12.2811V12.2821V12.2832V12.2843V12.2854V12.2864V12.2875V12.2886V12.2897V12.2907V12.2918V12.2929V12.294V12.2951V12.2961V12.2972V12.2983V12.2994V12.3004V12.3015V12.3026V12.3037V12.3047V12.3058V12.3069V12.308V12.309V12.3101V12.3112V12.3123V12.3134V12.3144V12.3155V12.3166V12.3177V12.3187V12.3198V12.3209V12.322V12.323V12.3241V12.3252V12.3263V12.3274V12.3284V12.3295V12.3306V12.3317V12.3327V12.3338V12.3349V12.336V12.337V12.3381V12.3392V12.3403V12.3414V12.3424V12.3435V12.3446V12.3457V12.3467V12.3478V12.3489V12.35V12.3511V12.3521V12.3532V12.3543V12.3554V12.3565V12.3575V12.3586V12.3597V12.3608V12.3618V12.3629V12.364V12.3651V12.3662V12.3672V12.3683V12.3694V12.3705V12.3715V12.3726V12.3737V12.3748V12.3759V12.3769V12.378V12.3791V12.3802V12.3813V12.3823V12.3834V12.3845V12.3856V12.3867V12.3877V12.3888V12.3899V12.391V12.3921V12.3931V12.3942V12.3953V12.3964V12.3974V12.3985V12.3996V12.4007V12.4018V12.4028V12.4039V12.405V12.4061V12.4072V12.4082V12.4093V12.4104V12.4115V12.4126V12.4136V12.4147V12.4158V12.4169V12.418V12.419V12.4201V12.4212V12.4223V12.4234V12.4245V12.4255V12.4266V12.4277V12.4288V12.4299V12.4309V12.432V12.4331V12.4342V12.4353V12.4363V12.4374V12.4385V12.4396V12.4407V12.4417V12.4428V12.4439V12.445V12.4461V12.4472V12.4482V12.4493V12.4504V12.4515V12.4526V12.4536V12.4547V12.4558V12.4569V12.458V12.4591V12.4601V12.4612V12.4623V12.4634V12.4645V12.4655V12.4666V12.4677V12.4688V12.4699V12.471V12.472V12.4731V12.4742V12.4753V12.4764V12.4775V12.4785V12.4796V12.4807V12.4818V12.4829V12.484V12.485V12.4861V12.4872V12.4883V12.4894V12.4905V12.4915V12.4926V12.4937V12.4948V12.4959V12.497V12.498V12.4991V12.5002V12.5013V12.5024V12.5035V12.5045V12.5056V12.5067V12.5078V12.5089V12.5853L17.5759 12.5884C17.5765 12.6269 17.5773 12.6661 17.5782 12.7056C17.5811 12.8424 17.5842 12.9843 17.5751 13.1213C17.5673 13.2394 17.5253 13.3524 17.444 13.4337C17.3606 13.5171 17.2442 13.5585 17.1083 13.5447C16.9754 13.5312 16.8711 13.4742 16.8015 13.3822C16.7338 13.2928 16.7059 13.1801 16.7034 13.0652M17.5875 11.9581L16.7034 13.0651C16.7034 13.0652 16.7034 13.0652 16.7034 13.0652M17.5875 11.9581L17.5874 11.9552M17.5875 11.9581L17.5874 11.9552M16.7034 13.0652C16.6946 12.6981 16.6957 12.3313 16.7034 11.9658M16.7034 13.0652L16.7034 11.9669C16.7034 11.9666 16.7034 11.9662 16.7034 11.9658M16.7034 11.9658C16.7036 11.8441 16.7292 11.7177 16.7988 11.6185M16.7034 11.9658L16.7988 11.6185M17.5874 11.9552C17.5838 11.8306 17.5553 11.7046 17.4829 11.6075C17.4068 11.5055 17.2905 11.447 17.1396 11.4484C16.9869 11.4497 16.8719 11.5141 16.7988 11.6185M17.5874 11.9552L16.7988 11.6185" fill="#FA8B02" stroke="#FA8B02" stroke-width="0.2"/>
<path d="M17.0993 10.4221L17.0988 10.4221C16.9572 10.4146 16.8518 10.3567 16.7835 10.2615C16.7189 10.1713 16.6952 10.0582 16.6892 9.95106C16.6835 9.84762 16.6858 9.75267 16.6896 9.66223C16.6905 9.63914 16.6916 9.61654 16.6926 9.59422C16.6957 9.528 16.6986 9.46425 16.699 9.39772C16.699 9.3345 16.6979 9.26955 16.6969 9.2037C16.6946 9.06816 16.6924 8.9288 16.6991 8.79274C16.7048 8.67923 16.7365 8.56619 16.8083 8.47946C16.8828 8.38955 16.9921 8.33819 17.129 8.33751C17.2645 8.33683 17.376 8.38496 17.4532 8.47283C17.5284 8.55837 17.5626 8.67175 17.5665 8.78868M17.0993 10.4221L17.4665 8.79219M17.0993 10.4221C17.2513 10.4294 17.3738 10.3799 17.4561 10.283C17.5351 10.19 17.5662 10.0661 17.5665 9.94176M17.0993 10.4221L17.4665 9.93997M17.5665 8.78868C17.5665 8.78876 17.5665 8.78884 17.5665 8.78892L17.4665 8.79219M17.5665 8.78868C17.5665 8.78861 17.5665 8.78853 17.5664 8.78845L17.4665 8.79219M17.5665 8.78868C17.5808 9.17295 17.5798 9.55806 17.5665 9.94176M17.4665 8.79219C17.4808 9.17442 17.4797 9.55775 17.4665 9.93997M17.5665 9.94176C17.5665 9.94117 17.5665 9.94057 17.5665 9.93997H17.4665M17.5665 9.94176C17.5665 9.94232 17.5665 9.94287 17.5665 9.94343L17.4665 9.93997" fill="#FA8B02" stroke="#FA8B02" stroke-width="0.2"/>
<path d="M17.5784 16.2153L17.5784 16.2153L17.5785 16.2135C17.5846 16.0861 17.5825 15.9575 17.5805 15.8336C17.5796 15.7739 17.5786 15.7152 17.5786 15.6583C17.5789 15.6068 17.5797 15.5552 17.5804 15.5036C17.5825 15.3564 17.5846 15.2084 17.5763 15.0587C17.5702 14.9501 17.5451 14.8375 17.4786 14.7486C17.4093 14.6559 17.3042 14.601 17.1658 14.5934C17.1068 14.5863 17.0468 14.592 16.9902 14.6104C16.9322 14.6291 16.8791 14.6605 16.8347 14.7024C16.7904 14.7442 16.7559 14.7954 16.7338 14.8522C16.7124 14.9072 16.7031 14.9662 16.7066 15.0251C16.6935 15.4259 16.6935 15.8271 16.7068 16.2286L16.7067 16.2286L16.7069 16.2308C16.7132 16.3466 16.7487 16.459 16.8247 16.5432C16.9029 16.6298 17.0147 16.6761 17.1502 16.6733C17.287 16.6706 17.3949 16.6181 17.4686 16.5278C17.5395 16.4408 17.571 16.3282 17.5784 16.2153Z" fill="#FA8B02" stroke="#FA8B02" stroke-width="0.2"/>
</g>
<defs>
<clipPath id="clip0_1_1668">
<rect width="24" height="24" fill="white" transform="translate(0 0.5)"/>
</clipPath>
</defs>
</svg>
