<svg width="22" height="25" viewBox="0 0 22 25" fill="none" xmlns="http://www.w3.org/2000/svg">
<path d="M0.481403 13.5078C0.481403 12.8295 0.474099 12.1512 0.481403 11.473C0.50123 9.96094 1.0522 9.1898 2.49014 8.75988C2.84388 8.65553 2.78962 8.42283 2.80319 8.20265C2.91797 6.23044 3.67451 4.53997 4.99453 3.08951C7.1337 0.739552 10.6284 -0.116116 13.7182 0.958687C16.736 2.00845 18.9451 4.84572 19.1339 7.98038C19.1652 8.49065 19.3124 8.71083 19.8164 8.86423C20.7691 9.14597 21.3524 9.84929 21.4244 10.8406C21.5543 12.6268 21.5543 14.4201 21.4244 16.2063C21.343 17.3145 20.648 18.0063 19.5879 18.286C19.2696 18.3694 19.1527 18.5061 19.1485 18.8077C19.1448 18.999 19.1271 19.1898 19.0953 19.3785C18.6936 21.8412 17.3527 23.0057 14.6615 23.2395C14.4883 23.2589 14.3141 23.268 14.1397 23.2666C13.8079 23.2541 13.6493 23.3709 13.6107 23.732C13.5575 24.211 13.2183 24.4718 12.7498 24.4833C11.794 24.5056 10.8378 24.5056 9.88123 24.4833C9.32922 24.4729 8.97861 24.1212 8.9473 23.5609C8.91961 23.0743 8.91961 22.5865 8.9473 22.1C8.98174 21.5323 9.31461 21.2046 9.88645 21.1921C10.8256 21.1702 11.7647 21.1733 12.7039 21.1921C13.2256 21.2025 13.57 21.4791 13.6076 22.0133C13.6316 22.3577 13.7787 22.3974 14.074 22.3671C14.8045 22.293 15.5297 22.2367 16.2215 21.9716C17.4862 21.4874 18.4296 19.9284 18.2626 18.6324C18.2261 18.3475 18.0341 18.4237 17.8796 18.4154C16.976 18.3705 16.9509 18.3486 16.9499 17.448C16.9499 14.8219 16.9499 12.1961 16.9499 9.57067C16.9499 8.75049 17.0156 8.66701 17.8358 8.66909C18.1781 8.66909 18.2783 8.57622 18.2605 8.22561C18.0737 4.50032 15.0257 1.56705 11.1324 1.38965C7.57719 1.21956 4.25365 4.02344 3.78199 7.59533C3.77155 7.6809 3.76007 7.76751 3.7486 7.85308C3.64946 8.60335 3.64946 8.61379 4.39035 8.64718C4.82444 8.66596 5.01645 8.86944 5.01645 9.29937C5.01645 12.1168 5.01645 14.9343 5.01645 17.7517C5.01645 18.2088 4.82236 18.431 4.358 18.4154C3.78512 18.3945 3.21015 18.4581 2.6404 18.3538C1.41116 18.1347 0.635841 17.3541 0.534622 16.1134C0.463664 15.2504 0.521056 14.377 0.521056 13.5047L0.481403 13.5078ZM4.09191 13.5297V10.5036C4.09191 9.50807 4.09191 9.50807 3.07137 9.55607C2.09883 9.60198 1.43307 10.1561 1.41012 11.0775C1.36838 12.7106 1.37255 14.3457 1.41012 15.9819C1.4289 16.776 1.9496 17.2978 2.73327 17.4428C3.00458 17.4908 3.28841 17.4637 3.56807 17.496C3.97086 17.543 4.11591 17.4032 4.10547 16.9795C4.0773 15.8254 4.09504 14.6776 4.09504 13.5297H4.09191ZM17.8734 13.5297C17.8734 14.6943 17.8838 15.8598 17.8661 17.0244C17.8661 17.3813 17.9642 17.5461 18.3367 17.5023C18.5454 17.4793 18.7541 17.5023 18.9628 17.4846C19.9019 17.4094 20.5145 16.8585 20.5427 15.9308C20.5907 14.3322 20.5896 12.7304 20.5593 11.1307C20.5468 10.3084 20.047 9.78668 19.2247 9.6312C18.9367 9.57694 18.6351 9.60302 18.343 9.56963C17.9798 9.52685 17.8619 9.66355 17.8682 10.0319C17.889 11.1964 17.8765 12.362 17.8765 13.5276L17.8734 13.5297ZM11.2733 23.5702H11.6907C12.8124 23.5702 12.803 23.5702 12.7477 22.4568C12.7352 22.1866 12.6434 22.0926 12.3815 22.0968C11.651 22.1073 10.9289 22.0968 10.2026 22.0968C10.0492 22.0968 9.85932 22.077 9.86036 22.3055C9.86036 22.7 9.71949 23.1497 9.92506 23.4711C10.0805 23.7132 10.5052 23.5358 10.8079 23.5619C10.9633 23.5786 11.1251 23.5682 11.2764 23.5682L11.2733 23.5702Z" fill="#FA8B02" stroke="#FA8B02" stroke-width="0.2"/>
</svg>
