<svg width="24" height="25" viewBox="0 0 24 25" fill="none" xmlns="http://www.w3.org/2000/svg">
<g opacity="0.8" clip-path="url(#clip0_1_1697)">
<path d="M11.9804 13.1127C11.8289 14.127 11.7025 14.9846 11.5709 15.8402C11.5417 16.0293 11.6367 16.0752 11.7987 16.1045C12.0817 16.1546 12.1925 16.3499 12.0713 16.6006C11.9825 16.7824 12.0243 16.9245 12.0608 17.0968C12.181 17.6515 11.878 18.2522 11.3296 18.3618C10.8982 18.4486 10.8606 18.6606 10.8188 19.0231C10.6151 20.7843 8.99911 21.9751 7.32148 21.6346C5.54566 21.2721 4.50105 19.5663 5.0056 17.8416C5.12942 17.4039 5.35984 17.0037 5.67623 16.6769C5.8559 16.491 6.05856 16.3155 6.29777 16.5484C6.50669 16.7573 6.3688 16.9569 6.20585 17.1376C5.96646 17.3928 5.78944 17.7 5.68868 18.0351C5.58791 18.3702 5.56613 18.7241 5.62505 19.069C5.80367 20.2871 6.94856 21.1217 8.20835 20.9546C9.37413 20.7979 10.2474 19.6603 10.1325 18.4841C10.1001 18.1561 9.97477 18.1602 9.73347 18.2699C9.22579 18.5008 8.71394 18.7201 8.20208 18.9385C7.72992 19.1411 7.5607 19.0429 7.50742 18.5478C7.37162 17.2504 7.20867 15.954 7.1251 14.6525C7.08958 14.0988 6.70726 13.8868 6.38029 13.5943C6.22465 13.4533 6.09407 13.6361 5.96245 13.6987C5.7316 13.8032 5.51641 13.8377 5.38479 13.5723C5.25317 13.307 5.42448 13.1649 5.62505 13.0762C6.02931 12.8975 6.14735 12.744 5.83397 12.3042C5.29286 11.5458 5.56759 10.5367 6.37716 10.0426C7.11987 9.59032 7.87721 9.15889 8.63455 8.73061C8.74291 8.68248 8.83581 8.60527 8.90293 8.50754C8.97005 8.4098 9.00877 8.29538 9.01478 8.17697C9.0388 7.89616 9.1712 7.63574 9.38394 7.45088C9.59668 7.26603 9.87304 7.17127 10.1544 7.18668C10.4182 7.19863 10.6688 7.30503 10.8606 7.48645C11.0524 7.66788 11.1725 7.91222 11.199 8.17488C11.2182 8.31373 11.2091 8.455 11.1725 8.59028C11.1358 8.72557 11.0724 8.85209 10.9858 8.96233C10.8993 9.07257 10.7914 9.16426 10.6687 9.23195C10.546 9.29964 10.4109 9.34193 10.2714 9.35632C9.97269 9.4002 9.88076 9.49839 9.92986 9.78252C9.98313 10.0875 10.0155 10.3967 10.0636 10.7509C10.5148 10.5252 10.8251 10.1711 11.1938 9.89847C11.4027 9.74492 11.6117 9.58509 11.8206 9.8546C12.0097 10.0949 11.831 10.2651 11.6555 10.4281C10.9243 11.105 10.9243 11.1071 11.6441 11.8237L11.6806 11.8613C11.9543 12.1287 12.1852 12.5162 12.5163 12.6332C12.907 12.7732 13.0846 12.2426 13.3948 12.0535C14.4958 11.3829 15.9269 11.4393 16.9162 12.2426C17.4002 12.6351 17.7493 13.1692 17.9145 13.7701C18.0796 14.371 18.0526 15.0085 17.8372 15.5933C17.6219 16.1781 17.2289 16.6808 16.7134 17.031C16.1979 17.3812 15.5858 17.5613 14.9628 17.546C14.3398 17.535 13.7363 17.3269 13.2389 16.9516C12.7416 16.5762 12.376 16.0529 12.1946 15.4568C12.1329 15.2552 12.0264 15.0233 12.2426 14.8812C12.6322 14.6263 12.7398 14.9178 12.8527 15.228C13.2809 16.4084 14.2953 17.0039 15.4725 16.7876C16.4461 16.608 17.1543 15.8412 17.2912 14.8206C17.3454 14.3501 17.2515 13.8744 17.0226 13.4597C16.7937 13.0451 16.4412 12.7121 16.0142 12.5071C15.5872 12.3022 15.1069 12.2355 14.6402 12.3163C14.1736 12.3972 13.7437 12.6215 13.4105 12.9581C13.1274 13.237 13.1922 13.4 13.4805 13.6037C13.9056 13.9035 14.3955 14.0215 14.8813 14.1511C15.1424 14.2221 15.4391 14.2921 15.343 14.6462C15.2469 15.0003 14.9502 14.8812 14.6922 14.8384C13.6058 14.6556 12.7754 14.0529 11.9804 13.1127ZM6.40432 10.8428C7.35178 11.1645 7.44892 11.1562 8.10702 10.7718C8.30132 10.6589 8.48308 10.5117 8.68991 10.4354C9.27698 10.2202 9.35846 9.83789 9.09522 9.27485L6.40432 10.8428ZM10.8261 15.2489L10.9421 15.2207C11.0695 14.4143 11.1973 13.6079 11.3254 12.8014C11.3432 12.6844 11.3975 12.5518 11.2669 12.4682C11.1364 12.3846 11.0424 12.5048 10.9431 12.5591C10.6987 12.6928 10.4626 12.8401 10.2119 12.9769C10.0563 13.0605 9.95702 13.1587 10.0354 13.3488L10.8261 15.2489ZM10.3602 16.2747C10.3822 16.1703 10.4052 16.1358 10.3947 16.1107C10.1701 15.5446 9.94239 14.9815 9.71571 14.4164C9.46187 13.7896 8.8184 13.634 8.29401 14.0738C8.16552 14.1782 8.15925 14.2503 8.27521 14.3568C8.96255 14.9867 9.64781 15.6187 10.3602 16.2747ZM8.02868 16.797C8.04853 17.0206 8.06002 17.1752 8.07778 17.3298C8.17597 18.1738 8.18224 18.1822 8.94897 17.826C9.2049 17.7069 9.66348 17.6818 9.66139 17.4186C9.66139 17.0551 9.24355 16.8639 8.93017 16.6874C8.79139 16.6186 8.64707 16.5617 8.49875 16.5171C8.1697 16.4043 7.93884 16.4158 8.02868 16.7991V16.797ZM9.11507 12.9717C8.41936 12.0817 7.4531 11.7412 6.34478 11.6451C6.50878 12.2635 7.50324 12.7576 9.11507 12.9738V12.9717ZM8.37131 11.4434C8.75154 11.6785 9.12029 11.8132 9.3501 12.0702C9.65095 12.4087 9.89643 12.4191 10.2077 12.1548C10.3404 12.042 10.6423 12.0504 10.5775 11.7997C10.5221 11.5845 10.3101 11.526 10.0677 11.5657C9.80659 11.6085 9.54544 11.4978 9.47754 11.245C9.36368 10.7916 9.15581 10.9723 8.92913 11.1081L8.37131 11.4434ZM10.0876 7.89179C9.85151 7.93462 9.71153 8.06937 9.72407 8.30963C9.72375 8.35783 9.73349 8.40557 9.75265 8.4498C9.77182 8.49403 9.79999 8.53377 9.83537 8.5665C9.87076 8.59924 9.91258 8.62423 9.95816 8.6399C10.0037 8.65556 10.0521 8.66155 10.1001 8.65748C10.3414 8.65748 10.5002 8.51542 10.4939 8.27098C10.4877 8.02654 10.3299 7.90955 10.0876 7.89283V7.89179ZM11.3714 17.3569C11.3714 17.1041 11.2387 16.961 10.9974 16.9516C10.95 16.9458 10.9019 16.9499 10.8562 16.9638C10.8104 16.9776 10.7681 17.0009 10.7319 17.0321C10.6957 17.0633 10.6664 17.1017 10.646 17.1449C10.6255 17.188 10.6143 17.235 10.613 17.2828C10.589 17.523 10.7091 17.6849 10.9536 17.7058C11.198 17.7267 11.3328 17.5909 11.3714 17.358V17.3569ZM7.92944 15.0066C7.88766 15.7378 7.88766 15.7441 8.74632 15.7514L7.92944 15.0066Z" fill="#FA8B02" stroke="#FA8B02" stroke-width="0.2"/>
<path d="M23.5295 19.7929C22.4296 19.467 21.3296 19.14 20.2244 18.8298C19.9956 18.765 19.8703 18.6961 19.8713 18.4224C19.8811 15.7238 19.8811 13.0256 19.8713 10.3278C19.8713 9.94649 20.0092 9.9726 20.2662 10.1251C20.7603 10.4186 21.2607 10.6996 21.76 10.9827C21.9564 11.0945 22.158 11.2387 22.3867 11.0517C22.5894 10.8814 22.4975 10.6694 22.4379 10.4719C21.5995 7.72601 20.7603 4.98044 19.9204 2.23522C19.8588 2.03257 19.7951 1.81738 19.5277 1.81738C19.2602 1.81738 19.1882 2.0263 19.1265 2.22687C18.6544 3.78333 17.6777 7.05189 17.1606 8.76713C17.1301 8.82592 17.1053 8.88748 17.0864 8.95098C16.9297 9.46701 16.773 9.98096 16.6132 10.498C16.5537 10.6976 16.4753 10.9159 16.6916 11.0694C16.9078 11.223 17.0896 11.0966 17.2713 10.9942C17.756 10.7195 18.248 10.4563 18.7191 10.1585C19.0733 9.93709 19.1777 9.99349 19.1756 10.4197C19.1631 13.0298 19.1631 15.6413 19.1756 18.2542C19.1756 18.6251 19.0471 18.7358 18.6972 18.7368C17.9743 18.7368 17.2891 18.9395 16.6247 19.2132C14.6462 20.0269 12.6343 20.7738 10.6997 21.6816C8.76512 22.5893 6.86289 22.6739 4.90531 21.8142C4.6055 21.6837 4.43941 21.5437 4.36316 21.2104C3.9286 19.3114 3.46793 17.4175 3.01457 15.5226C2.95921 15.2896 2.94667 15.0003 2.62494 14.9825C2.25724 14.9627 2.24575 15.2802 2.18725 15.5268C1.8286 17.0164 1.47309 18.5053 1.12071 19.9935C1.06325 20.2337 1.03923 20.4938 0.66735 20.3257C0.41769 20.2139 0.117888 20.1481 0.0186511 20.4991C-0.0805862 20.8501 0.236973 20.9232 0.480366 21.0088C2.25619 21.6356 4.02157 22.2624 5.80262 22.8641C7.16872 23.3341 8.66045 23.282 9.99044 22.7178C12.2607 21.786 14.5271 20.8459 16.7898 19.8974C18.0647 19.3454 19.4957 19.2713 20.8209 19.6885C21.6566 19.9402 22.4839 20.1982 23.3154 20.4552C23.5713 20.5346 23.8659 20.639 23.9766 20.2954C24.0874 19.9517 23.7823 19.8681 23.5295 19.7929ZM1.90625 20.7498C1.74851 20.6965 1.67957 20.6276 1.72344 20.4479C1.99922 19.3291 2.26664 18.2072 2.65627 17.0822C2.98741 18.4705 3.3196 19.8598 3.68208 21.3776C3.0198 21.1425 2.46616 20.9399 1.90938 20.7498H1.90625ZM19.0524 9.15468C18.576 9.43672 18.0903 9.70205 17.5158 10.0259C17.592 9.75846 17.6484 9.54327 17.7059 9.34166C17.7236 9.2957 17.7383 9.24765 17.7529 9.19959C18.0663 8.18424 18.9239 5.28547 19.2404 4.27325C19.3146 4.03403 19.3449 3.77184 19.5653 3.50442C20.2276 5.67928 20.87 7.79251 21.55 10.0332C20.9452 9.69369 20.4615 9.42836 19.9831 9.1505C19.8443 9.06214 19.6828 9.01582 19.5182 9.01712C19.3536 9.01842 19.193 9.06728 19.0555 9.15781L19.0524 9.15468Z" fill="#FA8B02" stroke="#FA8B02" stroke-width="0.2"/>
</g>
<defs>
<clipPath id="clip0_1_1697">
<rect width="24" height="24" fill="white" transform="translate(0 0.5)"/>
</clipPath>
</defs>
</svg>
