<svg width="24" height="25" viewBox="0 0 24 25" fill="none" xmlns="http://www.w3.org/2000/svg">
<g clip-path="url(#clip0_1_1781)">
<path d="M12.0008 24.4996H2.3015C1.46715 24.4996 1.25856 24.2545 1.20746 23.416C1.10942 21.6795 1.6361 20.2058 2.92413 19.0127C3.44559 18.5309 4.06301 18.2201 4.69711 17.9302C5.78774 17.4324 6.91629 17.0222 8.07205 16.7037C8.4256 16.5994 8.60707 16.4294 8.66756 16.0852C8.7218 15.7723 8.79585 15.473 8.85216 15.1664C9.01069 14.2903 8.89805 13.5467 8.05432 13.0044C7.45463 12.6185 7.1647 11.9906 7.20641 11.2543C7.22206 10.9915 7.13341 10.8622 6.88102 10.7569C6.0644 10.4179 5.62115 9.79005 5.6295 8.89626C5.63471 8.02854 6.05502 7.40486 6.85807 7.07425C7.11568 6.96996 7.1647 6.85941 7.12194 6.58199C7.01764 5.89782 6.759 5.3774 6.04041 5.16777C5.81097 5.10207 5.60342 4.95918 5.39067 4.83925C4.76491 4.48986 4.41135 3.95275 4.41031 3.23417C4.41031 2.4916 4.77429 1.94197 5.42925 1.59989C6.3679 1.10867 7.38893 0.893826 8.42352 0.75303C11.1456 0.383831 13.8624 0.401561 16.5657 0.925114C17.2507 1.04858 17.9149 1.26765 18.5389 1.5759C19.2179 1.92007 19.6038 2.47074 19.6027 3.23521C19.6027 3.97674 19.2283 4.52011 18.5754 4.86636C18.2229 5.05409 17.8704 5.24495 17.5054 5.40452C17.3835 5.44876 17.2761 5.52568 17.195 5.62684C17.1139 5.72801 17.0622 5.84954 17.0455 5.97813C16.9964 6.26807 16.8369 6.56634 16.8734 6.83751C16.9099 7.10867 17.3145 7.0972 17.5315 7.25468C18.1416 7.70627 18.4315 8.29762 18.3804 9.0527C18.3272 9.83281 17.9288 10.4085 17.2207 10.712C16.8911 10.8528 16.7858 11.0145 16.7983 11.3597C16.8254 12.0543 16.4656 12.5684 15.9702 13.0284C15.6573 13.312 15.1817 13.482 15.1358 13.9743C15.0547 14.8082 15.1664 15.6497 15.4623 16.4335C15.5436 16.6421 15.7689 16.6369 15.9452 16.6932C17.3364 17.1323 18.735 17.563 20.0126 18.2848C22.4437 19.6593 22.9453 21.6221 22.7733 23.7852C22.7336 24.2837 22.3863 24.4975 21.9066 24.4996C20.8977 24.4996 19.8895 24.4996 18.8821 24.4996H12.0008ZM7.21476 7.79388C6.62029 8.06608 6.38875 8.46344 6.40753 8.99012C6.42526 9.49803 6.8247 10.0164 7.32531 10.0539C7.97088 10.1029 8.05536 10.4627 8.00426 10.9686C7.96188 11.2625 8.00228 11.5625 8.12092 11.8348C8.23956 12.1071 8.43175 12.3409 8.67591 12.51C9.08443 12.8062 9.46338 13.1412 9.80749 13.5102C10.5375 14.332 11.424 14.6418 12.5076 14.5072C12.8675 14.4634 13.1824 14.3863 13.4557 14.1443C14.0554 13.6155 14.6394 13.067 15.2673 12.5736C15.8263 12.1346 16.0818 11.6058 16.0036 10.905C15.9514 10.4304 16.0578 10.1144 16.6439 10.0643C17.1727 10.0205 17.5669 9.50325 17.6066 8.97865C17.642 8.50412 17.3573 8.08068 16.8525 7.86688C16.7576 8.064 16.8223 8.27258 16.8035 8.47387C16.7806 8.71375 16.6679 8.87436 16.4197 8.89104C16.1715 8.90773 16.0369 8.74608 16.015 8.50724C15.9925 8.31719 15.9897 8.12531 16.0067 7.93467C16.0557 7.5248 15.9024 7.44345 15.504 7.49664C13.2617 7.79679 10.9901 7.80871 8.74474 7.5321C8.01469 7.44449 8.01469 7.44345 8.00322 8.21001C8.00427 8.32899 7.99625 8.44788 7.97923 8.56565C7.96498 8.65595 7.91896 8.7382 7.84946 8.79759C7.77996 8.85698 7.69154 8.88961 7.60012 8.88961C7.5087 8.88961 7.42029 8.85698 7.35079 8.79759C7.28129 8.7382 7.23527 8.65595 7.22102 8.56565C7.20467 8.3087 7.20259 8.05105 7.21476 7.79388ZM18.7913 3.22165C18.7913 2.77111 18.5494 2.477 18.1656 2.28301C17.6654 2.03851 17.1357 1.85973 16.5897 1.75112C14.0345 1.19628 11.4564 1.20045 8.87198 1.49143C7.83739 1.60824 6.80906 1.80431 5.86207 2.2705C5.23631 2.58338 5.00165 3.22896 5.35625 3.73686C5.75465 4.30735 6.44299 4.45023 7.02494 4.73599C7.08335 4.76415 7.21163 4.67342 7.29506 4.61919C7.85857 4.27144 8.48642 4.04087 9.14106 3.94128C10.743 3.64926 12.3596 3.65656 13.9667 3.8057C14.9575 3.89748 15.9274 4.0852 16.767 4.67446C16.8224 4.71557 16.8891 4.73845 16.9581 4.73994C17.027 4.74144 17.0947 4.72147 17.1518 4.68281C17.5356 4.48256 17.9299 4.29901 18.3074 4.08625C18.4609 4.00175 18.5876 3.87599 18.6733 3.72319C18.759 3.5704 18.8003 3.39667 18.7924 3.22165H18.7913ZM11.9966 6.89278C13.2109 6.93872 14.4266 6.86044 15.625 6.65917C15.8044 6.62892 15.9994 6.64039 16.1089 6.42346C16.5396 5.57243 16.3967 5.20949 15.4925 4.91225C15.378 4.87032 15.2609 4.83549 15.1421 4.80796C13.0763 4.39923 10.9503 4.39923 8.8845 4.80796C8.64597 4.8542 8.41479 4.93243 8.1972 5.04053C7.95524 5.1636 7.57144 5.22305 7.71328 5.64335C7.84886 6.04383 7.71328 6.59137 8.41517 6.6769C9.60933 6.82604 10.7951 6.93346 11.9966 6.89278ZM12.4044 21.4699C12.4044 21.1747 12.4044 20.8796 12.4044 20.5844C12.4044 19.5863 12.8883 19.2568 13.8134 19.6552C15.4143 20.3435 16.4009 21.5512 16.7159 23.2679C16.7889 23.6684 16.9808 23.7372 17.3135 23.6924C17.7536 23.634 17.4877 23.3242 17.5033 23.1261C17.4957 22.9876 17.4668 22.8511 17.4178 22.7214C17.1037 21.4811 16.3735 20.3861 15.3493 19.6193C14.3251 18.8525 13.0687 18.4603 11.7902 18.5083C10.5116 18.5563 9.28819 19.0415 8.32429 19.8829C7.36039 20.7243 6.71436 21.8709 6.49409 23.1313C6.40544 23.6465 6.53685 23.7789 7.01556 23.6965C7.32844 23.6423 7.25022 23.3837 7.28881 23.2095C7.68304 21.4209 8.72597 20.1933 10.4447 19.5655C11.1153 19.3204 11.5815 19.6625 11.6034 20.3769C11.618 20.8462 11.6034 21.3155 11.6034 21.7838C11.6034 22.3647 11.7192 22.978 11.082 23.3545C11.058 23.3658 11.0366 23.3818 11.0189 23.4016C11.0011 23.4213 10.9875 23.4443 10.9788 23.4694C10.9701 23.4944 10.9664 23.5209 10.968 23.5474C10.9696 23.5739 10.9764 23.5997 10.9881 23.6235C11.0517 23.7278 11.1737 23.6924 11.2728 23.6934C11.7244 23.6934 12.176 23.6997 12.6286 23.6934C12.76 23.6934 12.9415 23.7591 13.0103 23.6194C13.0959 23.4483 12.93 23.3065 12.8132 23.2408C12.419 23.0072 12.3721 22.6557 12.3961 22.2531C12.419 21.9924 12.4044 21.7306 12.4044 21.4699ZM6.48783 18.1982L6.38354 18.0939C5.78385 18.3525 5.16748 18.5809 4.58656 18.8761C2.77916 19.7928 1.92395 21.2748 2.00009 23.3054C2.01052 23.587 2.07831 23.7101 2.38076 23.7049C3.35173 23.6913 4.3227 23.6965 5.29367 23.7049C5.51999 23.7049 5.63263 23.6517 5.65766 23.392C5.70694 22.8554 5.83267 22.3286 6.03103 21.8276C6.12072 21.6044 6.0936 21.5032 5.83496 21.424C5.01104 21.1716 4.85773 20.7127 5.32705 19.9806C5.71189 19.383 6.10195 18.7916 6.48783 18.1982ZM17.4918 18.1513C17.909 18.801 18.3126 19.4028 18.6985 20.0108C19.1428 20.7106 18.977 21.1789 18.1854 21.4209C17.9476 21.4928 17.8725 21.571 17.9685 21.814C18.1711 22.3138 18.2976 22.8411 18.3439 23.3784C18.3689 23.6726 18.5149 23.7018 18.7486 23.6997C19.7018 23.6934 20.6561 23.6903 21.6093 23.6997C21.8961 23.6997 21.991 23.611 22.0046 23.3138C22.1412 20.4687 20.2859 18.8448 17.4918 18.1513ZM9.73136 14.6001C9.65314 15.2363 9.60308 15.8412 9.40909 16.42C9.36842 16.541 9.3632 16.6672 9.51338 16.7245C10.3248 17.0301 11.1351 17.3346 11.9497 17.6308C12.0351 17.6454 12.123 17.633 12.201 17.5954C12.9311 17.3242 13.6611 17.0478 14.3912 16.7725C14.5257 16.7214 14.6676 16.6609 14.6092 16.4805C14.411 15.8777 14.3651 15.2436 14.265 14.6115C12.7454 15.6044 11.2697 15.6221 9.73136 14.6001ZM13.2116 21.5137C13.2586 21.8266 13.1073 22.2135 13.2909 22.5431C13.9459 23.7028 13.9552 23.6976 15.3173 23.6903C15.4039 23.6903 15.4915 23.683 15.577 23.6903C15.916 23.7247 15.9994 23.586 15.9201 23.2616C15.6229 22.0497 14.946 21.1309 13.8426 20.5417C13.246 20.2225 13.2168 20.2507 13.2168 20.9432L13.2116 21.5137ZM10.7899 21.5971C10.7899 21.1977 10.7837 20.9202 10.7899 20.6439C10.7962 20.3675 10.6909 20.308 10.4468 20.4196C9.14836 20.9964 8.37346 21.9924 8.06788 23.3691C8.02095 23.5839 8.08457 23.6986 8.3234 23.6965C8.80732 23.6965 9.29228 23.6965 9.77725 23.6965C9.88154 23.6965 10.0119 23.7049 10.0505 23.5922C10.2925 22.882 11.1195 22.3793 10.7952 21.5971H10.7899ZM8.51425 18.6769C8.30567 18.5006 8.08874 18.3703 7.93647 18.1888C7.71119 17.9208 7.58709 17.9573 7.415 18.2409C7.00617 18.9043 6.56084 19.5457 6.14679 20.2069C6.07379 20.3237 5.80993 20.4822 6.0498 20.6188C6.24691 20.7315 6.51703 20.8566 6.72145 20.5218C7.10629 19.8961 7.63402 19.3913 8.21702 18.946C8.29211 18.8897 8.36303 18.8167 8.51425 18.6811V18.6769ZM16.3832 17.9781C16.2789 17.9687 15.5739 18.6592 15.5947 18.7249C15.6193 18.7878 15.6613 18.8424 15.7157 18.8824C16.3574 19.3586 16.9126 19.9413 17.3573 20.6053C17.5325 20.8723 17.7943 20.7096 17.9643 20.6199C18.1823 20.5072 17.957 20.3529 17.8913 20.2476C17.4658 19.5738 17.0256 18.9084 16.5876 18.243C16.5219 18.1481 16.4426 18.0584 16.3832 17.9823V17.9781ZM13.7759 17.8603C14.6916 18.4245 14.7552 18.4224 15.3601 17.7685C15.4435 17.6788 15.6448 17.5995 15.5342 17.4483C15.4446 17.3284 15.2589 17.318 15.1004 17.3753C14.6655 17.5359 14.2368 17.6955 13.7727 17.8645L13.7759 17.8603ZM10.3248 17.8843C9.77203 17.6851 9.33609 17.5234 8.89805 17.3711C8.74161 17.3169 8.5591 17.3357 8.47358 17.4671C8.40057 17.5808 8.57787 17.6611 8.63628 17.757C8.9721 18.2576 9.38197 18.4151 9.91909 18.0574C10.0492 17.9919 10.1837 17.9354 10.3217 17.8884L10.3248 17.8843Z" fill="#FA8B02"/>
<path d="M12.0008 12.4935C11.7244 12.4935 11.447 12.5081 11.1727 12.4873C11.1245 12.4863 11.077 12.4758 11.0329 12.4564C10.9889 12.437 10.9491 12.409 10.9159 12.3741C10.8827 12.3391 10.8568 12.298 10.8397 12.253C10.8225 12.2079 10.8145 12.16 10.816 12.1118C10.8102 12.0637 10.8145 12.0149 10.8285 11.9685C10.8426 11.9221 10.8662 11.8791 10.8978 11.8423C10.9294 11.8055 10.9683 11.7757 11.012 11.7548C11.0557 11.7339 11.1034 11.7223 11.1518 11.7207C11.7202 11.6999 12.2907 11.6999 12.8591 11.7207C12.9076 11.7225 12.9552 11.7343 12.9989 11.7556C13.0425 11.7769 13.0812 11.8071 13.1124 11.8442C13.1437 11.8814 13.1668 11.9247 13.1803 11.9713C13.1938 12.0179 13.1973 12.0669 13.1908 12.115C13.1922 12.2121 13.1549 12.3059 13.0873 12.3757C13.0197 12.4455 12.9271 12.4856 12.8299 12.4873C12.5546 12.5113 12.2771 12.4935 12.0008 12.4935Z" fill="#FA8B02"/>
<path d="M10.0651 8.11279C10.3342 8.14095 10.7388 8.0085 10.7701 8.52162C10.7837 8.74168 10.2372 9.27984 10.0181 9.28714C9.79913 9.29444 9.20779 8.72917 9.20361 8.51015C9.20361 8.21709 9.42889 8.11279 10.0651 8.11279Z" fill="#FA8B02"/>
<path d="M14.0178 8.11279C14.3307 8.13052 14.7218 8.02102 14.7938 8.50181C14.8261 8.71039 14.216 9.29027 13.9949 9.28922C13.7738 9.28818 13.2419 8.75003 13.2294 8.5331C13.2096 8.21083 13.3962 8.11279 14.0178 8.11279Z" fill="#FA8B02"/>
<path d="M12.0122 10.9227C11.8577 10.9251 11.7032 10.9153 11.5502 10.8935C11.4542 10.881 11.3667 10.8319 11.3059 10.7566C11.2451 10.6812 11.2157 10.5853 11.2238 10.4888C11.2224 10.4408 11.2306 10.3929 11.2479 10.3481C11.2652 10.3033 11.2913 10.2623 11.3246 10.2277C11.3579 10.193 11.3977 10.1653 11.4419 10.1462C11.486 10.1271 11.5334 10.117 11.5815 10.1165C11.8214 10.0988 12.0623 10.104 12.3032 10.105C12.5806 10.105 12.7892 10.2156 12.7788 10.5222C12.7705 10.7923 12.5765 10.9029 12.323 10.9144C12.2187 10.9196 12.1144 10.9144 12.0102 10.9144L12.0122 10.9227Z" fill="#FA8B02"/>
<path d="M12.0467 12.8979C12.1843 12.9052 12.3231 12.8979 12.4639 12.9209C12.5512 12.9281 12.6328 12.9676 12.6927 13.0315C12.7527 13.0955 12.7867 13.1795 12.7882 13.2671C12.8059 13.482 12.6975 13.6541 12.4826 13.6843C12.1923 13.7149 11.8999 13.7205 11.6086 13.701C11.5561 13.7023 11.5039 13.6924 11.4554 13.672C11.407 13.6515 11.3635 13.621 11.3277 13.5824C11.292 13.5438 11.2649 13.4981 11.2483 13.4482C11.2316 13.3984 11.2258 13.3455 11.2311 13.2932C11.2415 13.0533 11.398 12.924 11.6389 12.9146C11.7766 12.9146 11.9142 12.9146 12.0561 12.9146L12.0467 12.8979Z" fill="#FA8B02"/>
</g>
<defs>
<clipPath id="clip0_1_1781">
<rect width="24" height="24" fill="white" transform="translate(0 0.5)"/>
</clipPath>
</defs>
</svg>
