<svg width="24" height="25" viewBox="0 0 24 25" fill="none" xmlns="http://www.w3.org/2000/svg">
<g clip-path="url(#clip0_1_1722)">
<path d="M1.4814 13.5078C1.4814 12.8295 1.47409 12.1512 1.4814 11.473C1.50122 9.96094 2.05219 9.1898 3.49013 8.75988C3.84388 8.65553 3.78961 8.42283 3.80318 8.20265C3.91796 6.23044 4.6745 4.53997 5.99452 3.08951C8.1337 0.739552 11.6284 -0.116116 14.7182 0.958687C17.736 2.00845 19.945 4.84572 20.1339 7.98038C20.1652 8.49065 20.3124 8.71083 20.8164 8.86423C21.7691 9.14597 22.3524 9.84929 22.4244 10.8406C22.5543 12.6268 22.5543 14.4201 22.4244 16.2063C22.343 17.3145 21.648 18.0063 20.5878 18.286C20.2696 18.3694 20.1527 18.5061 20.1485 18.8077C20.1448 18.999 20.127 19.1898 20.0953 19.3785C19.6936 21.8412 18.3527 23.0057 15.6615 23.2395C15.4883 23.2589 15.314 23.268 15.1397 23.2666C14.8079 23.2541 14.6493 23.3709 14.6107 23.732C14.5575 24.211 14.2183 24.4718 13.7498 24.4833C12.794 24.5056 11.8378 24.5056 10.8812 24.4833C10.3292 24.4729 9.9786 24.1212 9.94729 23.5609C9.9196 23.0743 9.9196 22.5865 9.94729 22.1C9.98173 21.5323 10.3146 21.2046 10.8864 21.1921C11.8256 21.1702 12.7647 21.1733 13.7039 21.1921C14.2256 21.2025 14.57 21.4791 14.6076 22.0133C14.6316 22.3577 14.7787 22.3974 15.074 22.3671C15.8044 22.293 16.5297 22.2367 17.2215 21.9716C18.4862 21.4874 19.4296 19.9284 19.2626 18.6324C19.2261 18.3475 19.0341 18.4237 18.8796 18.4154C17.976 18.3705 17.9509 18.3486 17.9499 17.448C17.9499 14.8219 17.9499 12.1961 17.9499 9.57067C17.9499 8.75049 18.0156 8.66701 18.8358 8.66909C19.1781 8.66909 19.2783 8.57622 19.2605 8.22561C19.0737 4.50032 16.0257 1.56705 12.1324 1.38965C8.57718 1.21956 5.25364 4.02344 4.78198 7.59533C4.77154 7.6809 4.76007 7.76751 4.74859 7.85308C4.64946 8.60335 4.64946 8.61379 5.39034 8.64718C5.82443 8.66596 6.01644 8.86944 6.01644 9.29937C6.01644 12.1168 6.01644 14.9343 6.01644 17.7517C6.01644 18.2088 5.82235 18.431 5.35799 18.4154C4.78511 18.3945 4.21014 18.4581 3.64039 18.3538C2.41115 18.1347 1.63583 17.3541 1.53461 16.1134C1.46366 15.2504 1.52105 14.377 1.52105 13.5047L1.4814 13.5078ZM5.0919 13.5297V10.5036C5.0919 9.50807 5.0919 9.50807 4.07136 9.55607C3.09882 9.60198 2.43307 10.1561 2.41011 11.0775C2.36837 12.7106 2.37254 14.3457 2.41011 15.9819C2.42889 16.776 2.9496 17.2978 3.73326 17.4428C4.00457 17.4908 4.28841 17.4637 4.56806 17.496C4.97085 17.543 5.1159 17.4032 5.10546 16.9795C5.07729 15.8254 5.09503 14.6776 5.09503 13.5297H5.0919ZM18.8734 13.5297C18.8734 14.6943 18.8838 15.8598 18.8661 17.0244C18.8661 17.3813 18.9642 17.5461 19.3367 17.5023C19.5454 17.4793 19.7541 17.5023 19.9628 17.4846C20.9019 17.4094 21.5145 16.8585 21.5426 15.9308C21.5906 14.3322 21.5896 12.7304 21.5593 11.1307C21.5468 10.3084 21.047 9.78668 20.2247 9.6312C19.9367 9.57694 19.6351 9.60302 19.3429 9.56963C18.9798 9.52685 18.8619 9.66355 18.8682 10.0319C18.889 11.1964 18.8765 12.362 18.8765 13.5276L18.8734 13.5297ZM12.2733 23.5702H12.6907C13.8124 23.5702 13.803 23.5702 13.7477 22.4568C13.7352 22.1866 13.6434 22.0926 13.3814 22.0968C12.651 22.1073 11.9289 22.0968 11.2026 22.0968C11.0492 22.0968 10.8593 22.077 10.8604 22.3055C10.8604 22.7 10.7195 23.1497 10.9251 23.4711C11.0805 23.7132 11.5052 23.5358 11.8079 23.5619C11.9633 23.5786 12.1251 23.5682 12.2764 23.5682L12.2733 23.5702Z" fill="#FA8B02" stroke="#FA8B02" stroke-width="0.2"/>
</g>
<defs>
<clipPath id="clip0_1_1722">
<rect width="24" height="24" fill="white" transform="translate(0 0.5)"/>
</clipPath>
</defs>
</svg>
