<svg width="24" height="25" viewBox="0 0 24 25" fill="none" xmlns="http://www.w3.org/2000/svg">
<g clip-path="url(#clip0_1_1793)">
<path d="M7.46707 15.7108L7.46707 15.7108C6.50072 14.4577 5.54305 13.1933 4.91337 11.712L4.91329 11.7118C4.24752 10.1294 4.12334 8.37138 4.56006 6.71111C4.99678 5.05085 5.96992 3.58144 7.32812 2.53145L7.32835 2.53127C8.67241 1.50443 10.3172 0.948729 12.0086 0.950002C13.7 0.951275 15.344 1.50945 16.6865 2.53832L16.6867 2.53849C18.0432 3.59077 19.0132 5.0624 19.4455 6.72383C19.8778 8.38526 19.748 10.143 19.0764 11.723L19.0764 11.723C18.4598 13.1722 17.5272 14.4135 16.5868 15.6447L16.5331 15.715C16.0662 16.3264 15.5978 16.9397 15.1071 17.5336C15.0434 17.6108 14.9972 17.673 14.9693 17.7241C14.9408 17.7764 14.9368 17.8078 14.942 17.8273C14.9467 17.8447 14.9628 17.8669 15.0147 17.8903C15.0664 17.9137 15.1444 17.934 15.2553 17.9523C15.2554 17.9523 15.2555 17.9523 15.2556 17.9523L7.46707 15.7108ZM7.46707 15.7108C7.82671 16.177 8.18894 16.6412 8.55868 17.115C8.74591 17.355 8.93508 17.5974 9.12681 17.8438C8.972 17.8799 8.82004 17.9142 8.6706 17.948C8.2318 18.0471 7.81481 18.1413 7.41188 18.2605M7.46707 15.7108L19.2 19.6752M19.2 19.6752L19.2009 19.6761L19.2008 19.6761C19.5246 20.0427 19.6876 20.4524 19.6845 20.8633C19.6814 21.2743 19.5122 21.6812 19.1813 22.0423C18.5667 22.7137 17.763 23.0749 16.9332 23.3388L16.9331 23.3388C14.8824 23.9889 12.7745 24.1532 10.642 23.9928L10.642 23.9928C9.1577 23.8807 7.6875 23.6603 6.30618 23.0391M19.2 19.6752C18.9013 19.3529 18.5487 19.0849 18.1582 18.8833L19.2 19.6752ZM6.30618 23.0391C6.30595 23.039 6.30572 23.0389 6.30549 23.0388L6.326 22.9932M6.30618 23.0391C6.3064 23.0392 6.30661 23.0393 6.30683 23.0394L6.326 22.9932M6.30618 23.0391C5.82432 22.8391 5.38016 22.5582 4.99286 22.2086L4.99172 22.2075C4.54938 21.7824 4.32224 21.3125 4.3238 20.8394C4.32535 20.3662 4.55571 19.8997 5.00843 19.4815C5.69364 18.8479 6.53612 18.5053 7.41188 18.2605M6.326 22.9932C5.84915 22.7953 5.40961 22.5174 5.02636 22.1715L19.1634 19.7092C19.7972 20.427 19.7922 21.3017 19.1444 22.0085C18.5385 22.6703 17.7448 23.0282 16.918 23.2912C14.8746 23.939 12.7732 24.1029 10.6458 23.943C9.16319 23.831 7.69961 23.6111 6.326 22.9932ZM7.41188 18.2605C7.41175 18.2605 7.41163 18.2606 7.4115 18.2606L7.42569 18.3086L7.41223 18.2604C7.41211 18.2604 7.412 18.2605 7.41188 18.2605ZM5.86812 21.7196C6.30954 22.0196 6.79253 22.2534 7.30172 22.4134L5.89647 21.6784M5.86812 21.7196L5.89672 21.6786C5.89664 21.6785 5.89656 21.6785 5.89647 21.6784M5.86812 21.7196C5.08235 21.1718 5.07435 20.5689 5.84813 20.0131L5.86812 21.7196ZM5.89647 21.6784C6.33378 21.9756 6.81227 22.2072 7.31671 22.3657L7.31705 22.3658C8.8311 22.8536 10.3942 23.0162 11.979 23.0452C12.9094 23.0484 13.8385 22.9734 14.7564 22.8209L14.7576 22.8207L14.7576 22.8208C15.4311 22.726 16.0937 22.5661 16.7363 22.3433C17.3165 22.1326 17.8799 21.8974 18.3337 21.4799C18.5585 21.2731 18.667 21.0605 18.6676 20.854C18.6682 20.6478 18.5613 20.4351 18.3277 20.2277C18.1156 20.0456 17.8841 19.8876 17.6373 19.7563L17.6367 19.756C16.6653 19.2207 15.5936 19.0198 14.5072 18.8327L14.5071 18.8327C14.3589 18.807 14.2473 18.8199 14.1537 18.8649C14.0592 18.9102 13.977 18.9909 13.8929 19.1119L13.8927 19.1122C13.5639 19.5779 13.2228 20.0349 12.8823 20.4911C12.7648 20.6486 12.6473 20.806 12.5304 20.9636C12.4367 21.0903 12.3479 21.188 12.2604 21.254C12.1725 21.3203 12.0833 21.3564 11.9904 21.355C11.8975 21.3535 11.8086 21.3146 11.7208 21.2459C11.6334 21.1775 11.5444 21.0775 11.4502 20.9484C11.311 20.7586 11.1723 20.5677 11.0337 20.3769C10.9177 20.2173 10.8017 20.0576 10.6854 19.8986L10.6854 19.8986C10.4656 19.5979 10.3029 19.3753 10.1586 19.214C10.0148 19.0531 9.89317 18.9575 9.75731 18.9069C9.62138 18.8562 9.46531 18.8484 9.24836 18.8749C9.03081 18.9015 8.75782 18.9617 8.3892 19.0432C7.49167 19.2426 6.62784 19.5138 5.87733 20.0537L5.8773 20.0537C5.49539 20.328 5.32009 20.6044 5.32329 20.8687C5.32649 21.1332 5.50864 21.4079 5.89647 21.6784ZM18.6705 8.81124L18.6705 8.81243C18.7052 10.2746 18.1072 11.691 17.2341 13.0176L17.2341 13.0176C16.5665 14.0335 15.8296 14.9978 15.0791 15.954C14.9127 16.1659 14.7457 16.3774 14.5787 16.589C13.9923 17.3317 13.4052 18.0752 12.8448 18.8388C12.7766 18.9318 12.7075 19.0246 12.6384 19.1175C12.4787 19.3324 12.3185 19.548 12.1653 19.7675L12.1653 19.7676C12.1331 19.8137 12.1043 19.8505 12.077 19.8769C12.0496 19.9034 12.0275 19.9157 12.0094 19.9193C11.9795 19.9252 11.9295 19.9108 11.8475 19.7926L11.8474 19.7925C11.0944 18.7149 10.2807 17.6832 9.46797 16.6527C9.38348 16.5456 9.299 16.4384 9.21459 16.3313C8.31796 15.193 7.43016 14.0503 6.63167 12.8406C5.59168 11.2627 5.11087 9.5434 5.38674 7.65288C5.63627 5.98248 6.50771 4.46803 7.82652 3.41292C9.14531 2.35781 10.8141 1.83994 12.4985 1.96305C15.9905 2.23293 18.6705 5.13754 18.6705 8.81124Z" fill="#FA8B02" stroke="#FA8B02" stroke-width="0.1"/>
<path d="M14.2454 10.891C14.8443 10.2946 15.1818 9.4846 15.1835 8.63933C15.1844 8.22079 15.1028 7.80618 14.9435 7.41917C14.7841 7.03216 14.5501 6.68033 14.2547 6.38376C13.9594 6.0872 13.6085 5.85171 13.2222 5.69074C12.8358 5.52977 12.4216 5.44648 12.003 5.44561C11.5845 5.44475 11.1699 5.52632 10.7829 5.68569C10.3959 5.84506 10.044 6.07909 9.74747 6.37443C9.14854 6.97089 8.81107 7.78085 8.80932 8.62612C8.80757 9.4714 9.14168 10.2828 9.73814 10.8817C10.3346 11.4806 11.1446 11.8181 11.9898 11.8198C12.8351 11.8216 13.6465 11.4875 14.2454 10.891ZM13.5285 7.07273C13.9424 7.47854 14.1781 8.03213 14.1838 8.61172C14.1895 9.19132 13.9647 9.74944 13.5589 10.1633C13.1531 10.5772 12.5995 10.8129 12.0199 10.8186C11.4403 10.8243 10.8822 10.5995 10.4683 10.1937C10.0545 9.78792 9.81877 9.23432 9.81306 8.65473C9.80736 8.07513 10.0321 7.51701 10.4379 7.10314C10.8437 6.68927 11.3973 6.45356 11.9769 6.44785C12.5565 6.44215 13.1147 6.66693 13.5285 7.07273Z" fill="#FA8B02" stroke="#FA8B02" stroke-width="0.1"/>
</g>
<defs>
<clipPath id="clip0_1_1793">
<rect width="24" height="24" fill="white" transform="translate(0 0.5)"/>
</clipPath>
</defs>
</svg>
