<svg width="49" height="60" viewBox="0 0 49 60" fill="none" xmlns="http://www.w3.org/2000/svg">
<path d="M34.8302 58.0564C35.6676 56.8381 36.4371 55.7999 37.1154 54.7042C37.3431 54.2826 37.6899 53.9374 38.1125 53.7115C38.5351 53.4856 39.0148 53.389 39.4919 53.4338C40.4467 53.4729 41.4067 53.3608 42.3615 53.4155C43.5276 53.4808 43.4597 53.0425 42.9771 52.2468C42.4371 51.3573 41.9754 50.4208 41.4771 49.5025C41.1693 48.939 41.1041 48.3834 41.7562 48.0547C42.3589 47.7495 42.7397 48.1616 43.0084 48.6521C43.7362 49.9877 44.4902 51.3103 45.1606 52.6747C45.7606 53.8929 45.1267 54.9338 43.7362 55.0486C42.6559 55.174 41.5671 55.2124 40.4806 55.1634C39.2728 55.0668 38.5423 55.5625 37.9789 56.5616C37.5536 57.3155 37.0293 58.0173 36.531 58.7268C35.318 60.4512 34.0893 60.399 33.0823 58.5573C31.1858 55.0877 29.2867 51.6181 27.4423 48.1225C26.9858 47.2538 26.5919 46.706 25.5067 47.246C25.1877 47.3966 24.8389 47.4734 24.4862 47.4707C24.1335 47.468 23.7859 47.3858 23.4693 47.2303C22.4467 46.7295 22.0658 47.2068 21.6223 48.0521C19.7962 51.5138 17.918 54.9416 16.0528 58.3773C14.9258 60.4642 13.5093 60.6312 12.4502 58.5468C11.0415 55.7764 9.02755 54.8242 6.01712 55.0355C3.63799 55.2025 3.09277 54.0573 4.24581 51.9338C5.98495 48.7251 7.72407 45.5164 9.46321 42.3077C10.2589 40.8364 10.0319 39.7851 8.61538 38.799C7.88446 38.3284 7.11877 37.9142 6.32495 37.5599C4.27451 36.5608 3.12408 34.9721 3.41886 32.6634C3.72147 30.2738 3.12668 28.2468 1.68929 26.3321C0.400597 24.6181 0.41625 22.7164 1.71016 21.0051C2.41011 20.1197 2.92255 19.101 3.2163 18.0112C3.51006 16.9214 3.57897 15.7833 3.41886 14.666C3.14234 12.4225 4.20147 10.7712 6.26234 9.88684C8.27625 9.02337 9.75016 7.72945 10.5902 5.65032C11.5423 3.3025 13.4128 2.27467 15.9067 2.62163C16.8723 2.77076 17.8584 2.71645 18.8018 2.46218C19.7452 2.20792 20.6251 1.7593 21.3849 1.1451C23.4328 -0.420113 25.5849 -0.420113 27.6276 1.1451C28.4085 1.76733 29.3107 2.21979 30.2765 2.47358C31.2422 2.72737 32.2503 2.7769 33.2362 2.61902C35.618 2.30597 37.4362 3.28423 38.3597 5.53815C39.2206 7.64076 40.6789 9.01293 42.7502 9.88945C44.8215 10.766 45.8806 12.4251 45.5962 14.666C45.4378 15.7826 45.5073 16.9198 45.8005 18.0089C46.0938 19.098 46.6046 20.1163 47.3023 21.0025C48.6302 22.7712 48.5806 24.6912 47.2606 26.4442C45.878 28.2703 45.2962 30.2321 45.5962 32.5329C45.9145 34.9486 44.7354 36.5921 42.578 37.6277C41.378 38.2042 40.0971 38.6712 39.3562 39.9468C38.9676 40.6173 38.8606 41.1651 39.2936 41.8564C39.8467 42.7381 40.3032 43.6825 40.7936 44.6008C41.0936 45.1616 41.1536 45.7329 40.4936 46.046C39.8962 46.3303 39.5232 45.9208 39.2493 45.4251C39.1658 45.2738 39.0876 45.1173 38.9884 44.966C38.6415 44.366 38.4276 43.5103 37.9058 43.2364C37.3058 42.9234 36.9902 43.9225 36.4449 44.2173C35.1406 44.9268 33.7528 44.8225 32.3676 44.739C31.1336 44.666 29.9336 44.6764 28.8563 45.4147C28.4676 45.6755 28.1571 45.8842 28.4623 46.4373C30.5702 50.2408 32.6441 54.0521 34.8302 58.0564ZM16.6632 4.42423C14.0545 3.76684 12.5858 4.96945 11.7067 7.2938C10.9867 9.20597 9.49712 10.3773 7.65538 11.1129C5.74581 11.8773 4.86408 13.1816 5.18495 15.2868C5.36802 16.3581 5.31486 17.4564 5.02918 18.5049C4.74349 19.5535 4.23219 20.527 3.53103 21.3573C2.28147 22.886 2.27103 24.4564 3.51799 25.9825C4.22413 26.8139 4.73993 27.7897 5.02924 28.8415C5.31854 29.8933 5.37436 30.9956 5.19277 32.0712C4.88234 34.1581 5.68842 35.4808 7.64495 36.2451C8.63244 36.5974 9.52951 37.1643 10.2716 37.905C11.0136 38.6457 11.5821 39.5417 11.9362 40.5286C12.6641 42.4877 14.0232 43.3121 16.1102 42.9964C17.1631 42.8106 18.2439 42.8575 19.2768 43.1337C20.3097 43.41 21.2697 43.9089 22.0893 44.5955C23.6963 45.8999 25.3293 45.9208 26.9441 44.6086C27.7618 43.92 28.7202 43.4186 29.7522 43.1396C30.7842 42.8607 31.8647 42.8109 32.918 42.9938C34.9789 43.3095 36.3589 42.5164 37.0919 40.5495C37.4447 39.5619 38.0117 38.6648 38.7523 37.9224C39.4929 37.1799 40.3887 36.6107 41.3754 36.2555C43.3189 35.5068 44.1589 34.1895 43.8458 32.1025C43.6624 31.0268 43.7163 29.9241 44.0038 28.8714C44.2913 27.8188 44.8054 26.8417 45.5102 26.0086C46.7519 24.4903 46.7728 22.9199 45.5102 21.386C44.8029 20.5547 44.2864 19.5785 43.997 18.5261C43.7077 17.4737 43.6525 16.3707 43.8354 15.2947C44.1536 13.2077 43.3136 11.8642 41.3858 11.1208C40.3823 10.7506 39.4722 10.1649 38.7195 9.40503C37.9668 8.64513 37.3899 7.72946 37.0293 6.7225C36.3302 4.89641 35.0415 4.07989 33.0641 4.37467C30.7554 4.69554 28.6476 4.19206 26.8215 2.7051C25.2249 1.40076 23.691 1.51815 22.0945 2.75989C20.498 4.00163 18.7345 4.73467 16.6632 4.42423ZM14.198 58.0486C16.371 54.0703 18.4215 50.2981 20.498 46.5416C20.8084 45.9755 20.6128 45.7225 20.1432 45.4042C18.8389 44.5225 17.4067 44.7051 15.9693 44.7781C14.3702 44.8564 12.8102 44.7781 11.6806 43.4242C11.2136 42.8634 10.9971 43.1634 10.7571 43.5964C9.11886 46.6103 7.48234 49.6208 5.84755 52.6277C5.53973 53.1938 5.67799 53.4103 6.3119 53.4103C7.39712 53.4103 8.48494 53.4834 9.56755 53.4442C10.6502 53.4051 11.3649 53.8408 11.9154 54.7486C12.5884 55.7921 13.3371 56.8016 14.198 58.0486Z" fill="#FA8B02"/>
<path d="M24.6746 5.50162C29.4486 5.5688 34.005 7.50915 37.3617 10.9044C40.7185 14.2997 42.6067 18.878 42.6193 23.6524C42.632 28.4269 40.7681 33.0151 37.4294 36.4281C34.0907 39.8412 29.5447 41.8056 24.7711 41.8981C11.4668 42.1303 2.33632 28.0042 8.02328 15.9938C8.17198 15.6781 8.3285 15.3677 8.50328 15.0677C8.84763 14.4729 9.1685 13.6538 10.0476 14.1625C10.8459 14.6242 10.345 15.2894 10.0476 15.8634C7.75198 20.366 7.40763 24.9938 9.24415 29.7234C11.8528 36.4799 18.8963 40.7764 26.1407 40.0486C33.385 39.3208 39.445 33.7094 40.6737 26.5903C41.9076 19.4294 38.5502 12.5999 32.065 9.11206C26.1015 5.89032 18.4241 6.94945 13.2824 11.6947C13.0675 11.9099 12.8382 12.1103 12.5963 12.2947C12.4286 12.4177 12.2214 12.4745 12.0144 12.4544C11.8074 12.4342 11.6151 12.3384 11.4743 12.1853C11.3335 12.0323 11.2541 11.8327 11.2513 11.6247C11.2484 11.4167 11.3224 11.215 11.4589 11.0581C11.9644 10.5205 12.5056 10.0176 13.0789 9.55293C16.4702 6.80336 20.3442 5.4938 24.6746 5.50162Z" fill="#FA8B02"/>
<path d="M15.8806 33.4069C16.1571 31.7243 16.4206 29.919 16.7597 28.1243C16.8367 27.8338 16.8284 27.5273 16.7359 27.2415C16.6433 26.9556 16.4705 26.7024 16.238 26.5121C15.0562 25.4217 13.9293 24.2738 12.7658 23.1651C12.0145 22.4503 11.6023 21.6416 11.9623 20.5982C12.3093 19.6043 13.1101 19.2625 14.0806 19.1347C15.5858 18.9364 17.0832 18.6495 18.5936 18.4903C19.4649 18.399 20.0075 18.0651 20.3727 17.2408C21.0223 15.7721 21.7788 14.353 22.4858 12.9077C22.9032 12.0573 23.5632 11.5121 24.518 11.5121C25.4727 11.5121 26.1327 12.0573 26.5501 12.9103C27.2571 14.353 28.0162 15.7799 28.6632 17.2434C29.0284 18.073 29.5788 18.3912 30.4449 18.4877C32.0388 18.6651 33.6223 18.9547 35.2136 19.1817C36.1058 19.3069 36.7788 19.7321 37.071 20.6008C37.3919 21.5217 37.1258 22.3147 36.4475 22.9773C35.2371 24.1643 34.0371 25.3617 32.7954 26.5173C32.5628 26.7076 32.39 26.9608 32.2975 27.2467C32.2049 27.5326 32.1967 27.839 32.2736 28.1295C32.5762 29.6634 32.7954 31.2156 33.0562 32.7547C33.2414 33.7982 33.218 34.7712 32.2736 35.4521C31.371 36.0886 30.4684 35.8695 29.5736 35.3869C28.1571 34.6251 26.7197 33.9051 25.3136 33.1251C25.0796 32.9767 24.8082 32.8978 24.531 32.8978C24.2539 32.8978 23.9824 32.9767 23.7484 33.1251C22.2275 33.9599 20.7014 34.7973 19.131 35.5434C17.3962 36.3599 15.8336 35.3451 15.8806 33.4069ZM17.7067 33.1277C17.5371 34.1399 17.9675 34.1712 18.7188 33.7721C20.1745 32.9895 21.6562 32.2643 23.0988 31.4608C23.5253 31.1973 24.0167 31.0577 24.518 31.0577C25.0192 31.0577 25.5106 31.1973 25.9371 31.4608C27.2649 32.199 28.6188 32.8903 29.9727 33.5843C30.3458 33.7747 30.7554 34.2156 31.1519 33.939C31.6032 33.6208 31.3006 33.0443 31.2327 32.5982C31.0058 31.0956 30.7527 29.5956 30.4501 28.1034C30.3371 27.6376 30.3555 27.1495 30.5034 26.6936C30.6512 26.2376 30.9227 25.8316 31.2875 25.5208C32.524 24.3625 33.7214 23.173 34.9397 21.9703C35.1536 21.7617 35.4614 21.5425 35.3336 21.2086C35.2058 20.8747 34.8614 20.8799 34.551 20.8356C32.9206 20.593 31.2927 20.293 29.6545 20.113C28.4858 19.9851 27.7632 19.4295 27.2832 18.373C26.5997 16.8703 25.8301 15.4095 25.0919 13.9382C24.9614 13.6773 24.8806 13.3251 24.4997 13.3303C24.1188 13.3356 24.0458 13.6851 23.9154 13.9486C23.1327 15.5138 22.3632 17.0608 21.6093 18.626C21.4367 19.0264 21.1597 19.373 20.8072 19.6295C20.4548 19.8861 20.0398 20.0431 19.6058 20.0843C17.9336 20.3138 16.2614 20.5747 14.5867 20.8356C14.2449 20.8851 13.8197 20.8356 13.6919 21.2295C13.564 21.6234 13.9527 21.8425 14.1849 22.0799C15.2675 23.1495 16.324 24.2477 17.4588 25.2573C18.4345 26.1234 18.8101 27.0834 18.531 28.3877C18.1919 29.9477 17.9753 31.5443 17.7067 33.1277Z" fill="#FA8B02"/>
</svg>
