<svg width="19" height="14" viewBox="0 0 19 14" fill="none" xmlns="http://www.w3.org/2000/svg">
<path d="M1.89437 4.94009C1.56587 4.90255 1.36956 4.89864 1.18263 4.85484C0.977388 4.80729 0.796101 4.68749 0.671887 4.51733C0.547673 4.34716 0.488824 4.13799 0.506089 3.92802C0.518584 3.71755 0.607926 3.519 0.757154 3.37007C0.906381 3.22113 1.1051 3.13217 1.31559 3.12008C1.73794 3.10522 2.17593 3.01919 2.567 3.29371C2.75393 3.42511 2.74298 3.2155 2.77348 3.12868C2.92521 2.69617 3.05583 2.25974 3.20756 1.82957C3.48053 1.05291 3.97796 0.69548 4.79216 0.69548C7.93319 0.69548 11.0745 0.69548 14.216 0.69548C15.0122 0.69548 15.5105 1.04978 15.7803 1.80376C15.9367 2.24566 16.0838 2.69147 16.2222 3.13963C16.2785 3.32109 16.3301 3.35785 16.5131 3.25148C16.9472 3.00041 17.4275 3.06924 17.8834 3.15919C18.2604 3.2374 18.5037 3.62846 18.4935 4.01953C18.4902 4.2101 18.4245 4.39434 18.3066 4.54406C18.1887 4.69379 18.0249 4.80075 17.8404 4.84859C17.6449 4.89708 17.4384 4.90333 17.1146 4.94401C17.4994 5.30848 17.8185 5.61194 18.1361 5.91072C18.2567 6.02018 18.3517 6.15484 18.4144 6.30515C18.4771 6.45546 18.506 6.61773 18.499 6.78044C18.4896 8.0063 18.4896 9.23164 18.499 10.4565C18.499 10.8217 18.3981 11.133 18.0876 11.3332C17.9139 11.4451 17.8834 11.5835 17.8959 11.7618C17.9882 13.0367 17.6245 13.366 16.3372 13.2956C15.8953 13.2721 15.451 13.2956 15.0075 13.2909C14.3615 13.2846 14.015 12.9452 13.9963 12.3085C13.9728 11.4943 13.9728 11.4943 13.168 11.4943H5.50311C5.0049 11.4943 5.00568 11.4943 5.00333 12.0105C5.00333 12.1537 5.00881 12.2984 4.99707 12.4407C4.95484 12.9241 4.61931 13.2721 4.13673 13.2846C3.4203 13.3034 2.70231 13.3026 1.98588 13.2846C1.48766 13.2729 1.14431 12.91 1.11224 12.4094C1.10325 12.2792 1.10325 12.1486 1.11224 12.0184C1.13414 11.6985 1.11224 11.4239 0.790784 11.2159C0.56162 11.0736 0.500614 10.7959 0.500614 10.5198C0.505307 9.25484 0.505307 7.9904 0.500614 6.72648C0.495593 6.58301 0.521412 6.44014 0.576327 6.30751C0.631243 6.17488 0.713975 6.05557 0.81894 5.95764C1.14743 5.64401 1.47906 5.33272 1.89437 4.94009ZM9.45755 10.8843C12.0892 10.8843 14.7208 10.8843 17.3524 10.8843C17.8389 10.8843 17.8881 10.8334 17.8897 10.3446C17.8897 9.70561 17.8983 9.06739 17.8897 8.42917C17.8811 7.79095 18.0805 7.08235 17.8177 6.5372C17.5549 5.99206 16.9488 5.58848 16.4936 5.12311C16.485 5.11373 16.4748 5.10512 16.467 5.09496C16.3442 4.93853 16.1846 4.89473 15.9875 4.89551C11.6598 4.89916 7.33434 4.89916 3.01125 4.89551C2.92131 4.89058 2.83139 4.90562 2.74795 4.93957C2.66451 4.97351 2.58963 5.02551 2.52867 5.09183C2.13761 5.49462 1.74655 5.89351 1.34062 6.27988C1.25961 6.3537 1.19609 6.44466 1.15468 6.54614C1.11328 6.64762 1.09504 6.75706 1.10129 6.86648C1.10989 8.01308 1.10129 9.15968 1.10598 10.3078C1.10598 10.8506 1.14352 10.889 1.68006 10.8897C4.27204 10.8897 6.86454 10.8892 9.45755 10.8882V10.8843ZM3.02846 4.25104C3.055 4.26457 3.08275 4.27557 3.11136 4.28389C7.31713 4.28754 11.5224 4.29275 15.7271 4.29953C16.0094 4.29953 15.9375 4.16266 15.8835 4.01014C15.675 3.38027 15.4651 2.75092 15.2539 2.12208C15.042 1.47761 14.7956 1.29928 14.1097 1.2985C12.3368 1.2985 10.5661 1.2985 8.79744 1.2985C7.46782 1.2985 6.1382 1.30398 4.81327 1.2985C4.41752 1.2985 4.04366 1.39158 3.89662 1.76778C3.5736 2.57963 3.31628 3.42198 3.02846 4.25104ZM3.03784 11.4943C2.83058 11.4943 2.62253 11.4896 2.41214 11.4943C1.58934 11.5162 1.70822 11.3199 1.69023 12.2475C1.68554 12.5604 1.82476 12.6965 2.13761 12.6902C2.60689 12.6816 3.07225 12.6902 3.53997 12.6902C4.42534 12.6902 4.45349 12.6535 4.40031 11.7673C4.39171 11.5671 4.33305 11.4889 4.12891 11.4889C3.76522 11.5022 3.40153 11.4951 3.03784 11.4943ZM15.95 11.4943C15.7427 11.4943 15.5347 11.4896 15.3243 11.4943C14.4999 11.5155 14.6071 11.3207 14.5907 12.2405C14.5852 12.5807 14.7471 12.7004 15.0685 12.6918C15.5378 12.6785 16.0032 12.6918 16.4701 12.6918C17.3133 12.6918 17.2984 12.6918 17.3062 11.8541C17.3062 11.5467 17.1983 11.4748 16.9206 11.492C16.6007 11.51 16.2746 11.4943 15.95 11.4943ZM1.73012 4.29327C1.83805 4.29327 1.91627 4.29953 1.99292 4.29327C2.11962 4.28076 2.29638 4.35506 2.29873 4.11729C2.29873 3.91863 2.25571 3.7536 2.03124 3.71137C1.94266 3.69402 1.85204 3.68955 1.76219 3.69807C1.51582 3.72623 1.13648 3.58467 1.13648 3.99606C1.13648 4.40746 1.51738 4.25808 1.73012 4.29327ZM17.1764 4.29327C17.325 4.29327 17.4415 4.29875 17.5573 4.29327C17.7489 4.28154 17.8787 4.1916 17.8756 3.98042C17.8756 3.78645 17.7364 3.71215 17.5675 3.70198C17.3875 3.69103 17.207 3.69103 17.027 3.70198C16.8127 3.71293 16.7001 3.83651 16.6985 4.05238C16.6946 4.50054 17.0489 4.19394 17.1764 4.29327Z" fill="#333333" stroke="#333333" stroke-width="0.2"/>
<path d="M9.49518 6.69676C10.5245 6.69676 11.553 6.69676 12.5815 6.69676C12.9186 6.69676 13.2119 6.7609 13.3409 7.11442C13.47 7.46794 13.2713 7.70962 13.0281 7.96303C12.3922 8.63175 11.6546 8.88438 10.7231 8.81633C9.64769 8.73812 8.5621 8.78817 7.48198 8.80304C7.31352 8.81256 7.14494 8.78672 6.98707 8.72718C6.8292 8.66764 6.68554 8.57572 6.56532 8.45733C6.35962 8.25867 6.12811 8.08739 5.90599 7.90984C5.65023 7.70023 5.52744 7.44057 5.64788 7.11755C5.76364 6.8047 6.01392 6.70224 6.32912 6.70224C7.38708 6.70067 8.44243 6.69885 9.49518 6.69676ZM6.26264 7.32872C6.7413 7.9685 7.16365 8.18906 7.85818 8.18906C8.92422 8.18906 9.99496 8.12806 11.0547 8.2094C11.8369 8.26962 12.26 7.82459 12.7848 7.32481L6.26264 7.32872Z" fill="#333333" stroke="#333333" stroke-width="0.2"/>
<path d="M3.44996 8.79365C3.08627 8.79365 2.7218 8.80382 2.35498 8.79365C1.92481 8.77958 1.69878 8.56527 1.69252 8.14058C1.68 6.89386 1.58224 6.71788 3.05186 6.66626C4.02404 6.63341 4.5379 7.22158 5.14093 7.74638C5.3302 7.91063 5.33411 8.1703 5.23869 8.40181C5.19504 8.51952 5.11557 8.62057 5.01145 8.69073C4.90734 8.76089 4.78384 8.79661 4.65835 8.79287C4.25556 8.80069 3.85276 8.79287 3.44996 8.79287V8.79365ZM4.67087 8.19063C4.14215 7.49532 3.53678 7.15431 2.71945 7.29822C2.58649 7.32169 2.38627 7.23018 2.33543 7.39208C2.2687 7.6304 2.27005 7.88265 2.33934 8.12024C2.34872 8.15622 2.44884 8.18672 2.50671 8.18751C3.20437 8.1922 3.90282 8.19063 4.67087 8.19063Z" fill="#333333" stroke="#333333" stroke-width="0.2"/>
<path d="M15.5003 8.79443H14.4053C14.087 8.79443 13.8406 8.6685 13.7382 8.35956C13.6357 8.05062 13.7382 7.80034 13.9884 7.59855C14.27 7.36391 14.5508 7.13631 14.8269 6.90011C14.9851 6.76225 15.1896 6.68932 15.3994 6.69598C15.803 6.69598 16.2058 6.6905 16.6086 6.69598C17.0778 6.70614 17.2867 6.92358 17.2992 7.39989C17.3054 7.62045 17.3047 7.84179 17.2992 8.06236C17.2882 8.56292 17.0802 8.778 16.5882 8.78895C16.2285 8.80147 15.864 8.79521 15.5003 8.79443ZM14.3388 8.19297H16.1815C16.7024 8.19297 16.7056 8.19297 16.6907 7.65487C16.6868 7.51408 16.754 7.33419 16.5069 7.30056C15.6419 7.18715 14.8981 7.36548 14.3388 8.19297Z" fill="#333333" stroke="#333333" stroke-width="0.2"/>
<path d="M9.48336 9.68997C10.3307 9.68997 11.1777 9.68997 12.0245 9.68997C12.2443 9.68997 12.475 9.69623 12.4797 9.98562C12.4844 10.275 12.2513 10.2914 12.0331 10.2914C10.339 10.2914 8.6444 10.2914 6.94926 10.2914C6.72714 10.2914 6.50189 10.2648 6.51283 9.97858C6.52222 9.71813 6.72948 9.6931 6.94066 9.69388C7.79005 9.68997 8.63475 9.68997 9.48336 9.68997Z" fill="#333333" stroke="#333333" stroke-width="0.2"/>
<path d="M3.35617 9.68997C3.67997 9.68997 4.00377 9.68997 4.32836 9.68997C4.5411 9.68997 4.69361 9.77835 4.69048 10.0028C4.69048 10.207 4.53406 10.2891 4.34322 10.2899C3.68206 10.293 3.0209 10.293 2.35974 10.2899C2.16968 10.2899 2.01717 10.2046 2.01795 9.99813C2.01795 9.77366 2.17437 9.69075 2.38398 9.69232C2.70779 9.68997 3.03159 9.68997 3.35617 9.68997Z" fill="#333333" stroke="#333333" stroke-width="0.2"/>
<path d="M15.6622 9.68997C15.986 9.68997 16.3098 9.68997 16.6344 9.68997C16.8323 9.68997 16.9699 9.77992 16.9785 9.97858C16.9871 10.1772 16.8456 10.2836 16.6524 10.2852C15.9782 10.2899 15.304 10.2899 14.6298 10.2852C14.4366 10.2852 14.2943 10.1804 14.3037 9.9778C14.313 9.77522 14.4523 9.68997 14.6509 9.69075C14.988 9.68997 15.3251 9.68997 15.6622 9.68997Z" fill="#333333" stroke="#333333" stroke-width="0.2"/>
</svg>
