<svg width="24" height="18" viewBox="0 0 24 18" fill="none" xmlns="http://www.w3.org/2000/svg">
<path d="M7.92817 4.73351C8.62437 2.29281 10.0301 1.07246 12.06 1.09247C14.0246 1.11247 15.4277 2.3635 16.0705 4.73884C16.1559 4.49477 16.2119 4.32539 16.2732 4.15734C16.752 2.86631 17.679 2.09675 19.042 1.98472C20.2957 1.88336 21.3093 2.43418 21.9415 3.5225C22.6257 4.6935 22.5484 5.87517 21.7401 6.96081C21.46 7.33559 21.4827 7.43695 21.8988 7.64768C23.2966 8.35188 23.9821 9.52688 23.9968 11.0887C24.0154 13.0039 24.0141 13.0052 22.1656 13.6134C21.6827 13.7845 21.1821 13.9004 20.6732 13.9588C20.3677 13.9868 20.125 13.8868 20.077 13.568C20.029 13.2493 20.2317 13.0679 20.5304 13.0185C21.2556 12.91 21.9627 12.7036 22.6324 12.405C22.8098 12.3237 23.0325 12.2717 23.0325 12.0116C23.0325 11.2807 23.1259 10.5365 22.7924 9.84697C22.3803 8.99473 21.7321 8.4079 20.7705 8.2932C19.7753 8.1885 18.7721 8.18582 17.7763 8.28519C17.5118 8.31693 17.2544 8.39266 17.0148 8.50926C16.2346 8.86269 16.2252 8.98139 16.8134 9.60024C17.6173 10.417 18.0896 11.5029 18.1391 12.6478C18.1631 13.1813 18.0831 13.7228 18.1604 14.2482C18.2938 15.1192 17.8804 15.5019 17.1255 15.8194C13.5138 17.3371 9.95809 17.2718 6.41841 15.5966C5.99562 15.3966 5.81423 15.1445 5.84758 14.6737C5.88492 14.1402 5.86225 13.6067 5.84758 13.0732C5.82357 11.6061 6.32638 10.3685 7.41603 9.39884C7.7788 9.07609 7.66143 8.93204 7.35468 8.71598C6.34505 8.00378 3.08679 8.01978 2.08917 8.75199C1.18891 9.41752 0.667427 10.9833 0.971514 12.0556C1.04087 12.2957 1.23826 12.3437 1.40764 12.421C2.0365 12.7034 2.7011 12.8981 3.38287 12.9999C3.69763 13.0466 3.96704 13.1826 3.92303 13.5454C3.87368 13.9455 3.56026 13.9962 3.21749 13.9455C2.19586 13.7948 1.24493 13.4307 0.321995 12.9825C0.237409 12.9512 0.163762 12.8959 0.110012 12.8234C0.0562626 12.751 0.0247269 12.6645 0.0192411 12.5744C0.0312446 11.5368 -0.132802 10.4858 0.321995 9.48687C0.691358 8.64323 1.36045 7.96653 2.19987 7.58766C2.46661 7.46362 2.59998 7.39694 2.35724 7.08352C1.46365 5.95519 1.34629 4.72417 2.0905 3.48248C2.73602 2.40618 3.75364 1.86335 5.00734 1.99139C6.48909 2.1421 7.41869 3.02102 7.81881 4.45476C7.83615 4.51745 7.86949 4.57613 7.92817 4.73351ZM12.004 9.1281C11.4705 9.1281 10.937 9.10943 10.4035 9.1281C9.46236 9.17327 8.57244 9.5702 7.91 10.2403C7.24755 10.9104 6.86087 11.8048 6.82652 12.7465C6.81185 13.1906 6.85587 13.6387 6.80785 14.0802C6.75184 14.5937 6.98124 14.8284 7.4307 15.0138C10.3155 16.1901 13.215 16.2541 16.1385 15.1818C17.1935 14.7937 17.1895 14.7817 17.1882 13.6867C17.1882 13.376 17.1882 13.0652 17.1802 12.7531C17.1465 11.8111 16.7604 10.9161 16.0981 10.2452C15.4359 9.57436 14.546 9.17663 13.6045 9.13077C13.071 9.1081 12.5375 9.1281 12.004 9.1281ZM15.0542 5.08027C15.0494 4.27096 14.7234 3.49668 14.1477 2.92778C13.5721 2.35889 12.794 2.04196 11.9847 2.04674C11.1753 2.05151 10.4011 2.3776 9.83218 2.95325C9.26328 3.5289 8.94636 4.30697 8.95113 5.11629C8.9618 6.76076 10.3862 8.17449 12.0213 8.16116C13.6565 8.14782 15.0716 6.72475 15.0542 5.08027ZM4.7766 7.25156C5.34942 7.24383 5.89579 7.0092 6.29584 6.59915C6.69589 6.1891 6.91696 5.63711 6.91055 5.06427C6.89054 3.89327 5.87692 2.89832 4.71659 2.91966C3.55625 2.941 2.5493 3.97462 2.5693 5.12429C2.5867 5.69684 2.82734 6.23989 3.23979 6.63739C3.65224 7.03488 4.2038 7.25531 4.7766 7.25156ZM19.2541 7.25156C19.8266 7.24785 20.375 7.02078 20.7826 6.61871C21.1901 6.21664 21.4246 5.67134 21.436 5.09895C21.4216 4.52662 21.1886 3.98155 20.7847 3.57574C20.3809 3.16993 19.837 2.9342 19.2648 2.91699C18.6913 2.92763 18.1444 3.16053 17.7393 3.56659C17.3343 3.97265 17.1027 4.52014 17.0935 5.09361C17.0949 5.66609 17.323 6.21469 17.7279 6.61937C18.1329 7.02405 18.6816 7.25184 19.2541 7.2529V7.25156ZM9.46995 8.20384C8.62479 7.46792 8.08493 6.44291 7.95618 5.32968C7.80947 5.76847 7.75346 6.03388 7.63609 6.26328C7.4427 6.64872 6.96923 7.09018 7.05726 7.37026C7.15462 7.68769 7.80014 7.79572 8.10022 8.09981C8.51901 8.52793 8.90312 8.58928 9.46995 8.20384ZM14.474 8.27719C14.9529 8.33721 15.2423 8.71198 15.601 8.35188C15.9425 8.00253 16.3507 7.7254 16.8014 7.53698C17.0001 7.45562 17.1201 7.36093 16.9227 7.15954C16.468 6.69674 16.2852 6.09257 16.0345 5.33101C15.8878 6.58337 15.3476 7.45562 14.4727 8.27719H14.474Z" fill="#FA8B02" stroke="#FA8B02" stroke-width="0.3"/>
</svg>
