<svg width="45" height="44" viewBox="0 0 45 44" fill="none" xmlns="http://www.w3.org/2000/svg">
<path fill-rule="evenodd" clip-rule="evenodd" d="M0.677979 22C0.677979 9.91992 10.4729 0.125 22.553 0.125C34.6331 0.125 44.428 9.91992 44.428 22C44.428 34.0801 34.6331 43.875 22.553 43.875C10.4729 43.875 0.677979 34.0801 0.677979 22ZM22.553 11C19.565 11 19.191 11.012 18.018 11.066H18.017C16.847 11.12 16.047 11.306 15.347 11.577C14.6135 11.8534 13.949 12.2865 13.4 12.846C12.8401 13.3953 12.4067 14.0601 12.13 14.794C11.859 15.494 11.672 16.294 11.619 17.466C11.566 18.638 11.553 19.012 11.553 22C11.553 24.987 11.565 25.361 11.619 26.536C11.673 27.706 11.859 28.506 12.13 29.206C12.4063 29.9399 12.8394 30.6047 13.399 31.154C13.9488 31.7133 14.6139 32.146 15.348 32.422C16.048 32.694 16.848 32.881 18.018 32.934C19.191 32.987 19.565 33 22.553 33C25.541 33 25.915 32.988 27.089 32.934C28.259 32.88 29.059 32.694 29.759 32.422C30.492 32.146 31.157 31.714 31.707 31.154C32.2663 30.6042 32.699 29.9391 32.975 29.205C33.247 28.505 33.434 27.705 33.487 26.535C33.54 25.362 33.553 24.988 33.553 22C33.553 19.013 33.541 18.639 33.487 17.464C33.433 16.294 33.247 15.494 32.975 14.794C32.699 14.06 32.267 13.396 31.707 12.847C31.157 12.287 30.492 11.854 29.759 11.577C29.059 11.306 28.259 11.119 27.087 11.066C25.915 11.013 25.541 11 22.553 11ZM22.553 12.982C25.49 12.982 25.838 12.993 26.998 13.046C28.071 13.095 28.653 13.274 29.041 13.425C29.5187 13.6012 29.9509 13.8821 30.306 14.247C30.691 14.632 30.928 14.999 31.128 15.512C31.279 15.9 31.458 16.482 31.507 17.555C31.56 18.715 31.571 19.063 31.571 22C31.571 24.937 31.56 25.285 31.507 26.445C31.458 27.518 31.279 28.1 31.128 28.488C30.952 28.965 30.671 29.398 30.306 29.753C29.921 30.138 29.554 30.375 29.041 30.575C28.653 30.726 28.071 30.905 26.998 30.954C25.838 31.007 25.491 31.018 22.553 31.018C19.615 31.018 19.268 31.007 18.108 30.954C17.035 30.905 16.453 30.726 16.065 30.575C15.588 30.399 15.155 30.118 14.8 29.753C14.435 29.398 14.154 28.965 13.978 28.488C13.827 28.1 13.648 27.518 13.599 26.445C13.546 25.285 13.535 24.937 13.535 22C13.535 19.063 13.546 18.715 13.599 17.555C13.648 16.482 13.827 15.9 13.978 15.512C14.1542 15.0343 14.435 14.6021 14.8 14.247C15.185 13.862 15.552 13.625 16.065 13.425C16.453 13.274 17.035 13.095 18.108 13.046C19.268 12.993 19.616 12.982 22.553 12.982ZM23.6199 25.5157C22.8064 25.7617 21.9326 25.7176 21.148 25.391C20.6468 25.1832 20.1979 24.8668 19.8337 24.4647C19.4695 24.0626 19.1989 23.5847 19.0415 23.0655C18.8841 22.5463 18.8438 21.9986 18.9235 21.462C19.0032 20.9253 19.2008 20.413 19.5023 19.9619C19.8037 19.5107 20.2014 19.1321 20.6668 18.8531C21.1321 18.5742 21.6535 18.4019 22.1935 18.3486C22.7334 18.2954 23.2784 18.3625 23.7893 18.5451C24.3002 18.7278 24.7642 19.0215 25.148 19.405C25.75 20.005 26.125 20.7953 26.209 21.6411C26.293 22.4869 26.0808 23.3356 25.6086 24.0422C25.1364 24.7489 24.4335 25.2697 23.6199 25.5157ZM20.3893 16.7764C19.7033 17.0605 19.08 17.477 18.555 18.002C17.4946 19.0623 16.899 20.5005 16.899 22C16.899 23.4995 17.4946 24.9377 18.555 25.998C19.6153 27.0583 21.0534 27.654 22.553 27.654C24.0525 27.654 25.4906 27.0583 26.551 25.998C27.076 25.473 27.4925 24.8497 27.7766 24.1637C28.0608 23.4777 28.207 22.7425 28.207 22C28.207 21.2575 28.0608 20.5223 27.7766 19.8363C27.4925 19.1503 27.076 18.527 26.551 18.002C26.026 17.477 25.4027 17.0605 24.7167 16.7764C24.0307 16.4922 23.2955 16.346 22.553 16.346C21.8105 16.346 21.0753 16.4922 20.3893 16.7764ZM29.7673 16.754C29.6952 16.9177 29.5911 17.0653 29.461 17.188C29.208 17.4267 28.8719 17.5574 28.524 17.5523C28.1762 17.5472 27.8441 17.4068 27.5981 17.1608C27.3522 16.9149 27.2118 16.5827 27.2067 16.2349C27.2016 15.8871 27.3323 15.551 27.571 15.298C27.6937 15.1679 27.8413 15.0637 28.005 14.9917C28.1687 14.9197 28.3452 14.8812 28.524 14.8786C28.7029 14.876 28.8804 14.9093 29.0462 14.9765C29.2119 15.0438 29.3625 15.1436 29.4889 15.27C29.6154 15.3965 29.7152 15.5471 29.7825 15.7128C29.8497 15.8785 29.883 16.0561 29.8804 16.2349C29.8778 16.4138 29.8393 16.5903 29.7673 16.754Z" fill="#FA8B02"/>
</svg>
