<svg width="18" height="22" viewBox="0 0 18 22" fill="none" xmlns="http://www.w3.org/2000/svg">
<path d="M9.35296 22C7.80952 20.6835 6.37889 19.2402 5.07602 17.6852C3.12084 15.35 0.799073 11.8722 0.799073 8.55818C0.798225 6.86568 1.29949 5.21097 2.23942 3.80347C3.17935 2.39596 4.5157 1.29893 6.07935 0.651204C7.643 0.00347864 9.36365 -0.165823 11.0236 0.164725C12.6835 0.495274 14.208 1.31081 15.4042 2.50813C16.2007 3.30103 16.8319 4.24401 17.2615 5.28249C17.6911 6.32098 17.9104 7.43435 17.9068 8.55818C17.9068 11.8722 15.5851 15.35 13.6299 17.6852C12.327 19.2402 10.8964 20.6835 9.35296 22ZM9.35296 4.89222C8.38069 4.89222 7.44824 5.27846 6.76074 5.96596C6.07324 6.65346 5.68701 7.58591 5.68701 8.55818C5.68701 9.53045 6.07324 10.4629 6.76074 11.1504C7.44824 11.8379 8.38069 12.2241 9.35296 12.2241C10.3252 12.2241 11.2577 11.8379 11.9452 11.1504C12.6327 10.4629 13.0189 9.53045 13.0189 8.55818C13.0189 7.58591 12.6327 6.65346 11.9452 5.96596C11.2577 5.27846 10.3252 4.89222 9.35296 4.89222Z" fill="#FA8B02"/>
</svg>
