<svg width="23" height="20" viewBox="0 0 23 20" fill="none" xmlns="http://www.w3.org/2000/svg">
<path d="M4.51969 0.833008C3.54723 0.833008 2.6146 1.21932 1.92697 1.90695C1.23934 2.59458 0.853027 3.52721 0.853027 4.49967V4.86818L11.853 10.7917L22.853 4.87001V4.49967C22.853 3.52721 22.4667 2.59458 21.7791 1.90695C21.0915 1.21932 20.1588 0.833008 19.1864 0.833008H4.51969ZM22.853 6.95084L12.2875 12.6397C12.154 12.7116 12.0047 12.7492 11.853 12.7492C11.7014 12.7492 11.5521 12.7116 11.4185 12.6397L0.853027 6.95084V15.4997C0.853027 16.4721 1.23934 17.4048 1.92697 18.0924C2.6146 18.78 3.54723 19.1663 4.51969 19.1663H19.1864C20.1588 19.1663 21.0915 18.78 21.7791 18.0924C22.4667 17.4048 22.853 16.4721 22.853 15.4997V6.95084Z" fill="#FA8B02"/>
</svg>
