<svg width="24" height="23" viewBox="0 0 24 23" fill="none" xmlns="http://www.w3.org/2000/svg">
<path d="M9.99969 13.7601C11.3913 15.1718 13.0752 16.2618 14.933 16.9534L17.4464 14.9534C17.5209 14.9021 17.6092 14.8746 17.6997 14.8746C17.7902 14.8746 17.8785 14.9021 17.953 14.9534L22.6197 17.9601C22.7969 18.0666 22.9468 18.2128 23.0578 18.3873C23.1687 18.5617 23.2376 18.7595 23.2589 18.9652C23.2802 19.1708 23.2535 19.3785 23.1807 19.572C23.108 19.7655 22.9912 19.9394 22.8397 20.0801L20.653 22.2401C20.3399 22.5495 19.955 22.7766 19.5327 22.901C19.1105 23.0255 18.6639 23.0435 18.233 22.9534C13.9345 22.0656 9.97245 19.9864 6.79969 16.9534C3.69735 13.8902 1.55054 9.99264 0.61969 5.7334C0.527735 5.30916 0.546927 4.86836 0.675408 4.45372C0.803889 4.03908 1.0373 3.66465 1.35302 3.36674L3.61969 1.18007C3.75996 1.03593 3.93101 0.925387 4.12006 0.856722C4.3091 0.788057 4.51122 0.763049 4.7113 0.78357C4.91137 0.80409 5.10421 0.869608 5.27538 0.975217C5.44655 1.08083 5.59161 1.22379 5.69969 1.3934L8.80636 6.00007C8.85994 6.07241 8.88887 6.16005 8.88887 6.25007C8.88887 6.34009 8.85994 6.42773 8.80636 6.50007L6.75969 8.96007C7.47008 10.7807 8.57685 12.4204 9.99969 13.7601Z" fill="#FA8B02"/>
</svg>
