<svg width="24" height="24" viewBox="0 0 24 24" fill="none" xmlns="http://www.w3.org/2000/svg">
<path d="M2.85715 7.42858H21.1429M5.14286 2.85715H18.8571C19.4634 2.85715 20.0447 3.09796 20.4734 3.52662C20.902 3.95527 21.1429 4.53665 21.1429 5.14286V18.8571C21.1429 19.4634 20.902 20.0447 20.4734 20.4734C20.0447 20.902 19.4634 21.1429 18.8571 21.1429H5.14286C4.53665 21.1429 3.95527 20.902 3.52662 20.4734C3.09796 20.0447 2.85715 19.4634 2.85715 18.8571V5.14286C2.85715 4.53665 3.09796 3.95527 3.52662 3.52662C3.95527 3.09796 4.53665 2.85715 5.14286 2.85715V2.85715Z" stroke="#333333" stroke-linecap="round" stroke-linejoin="round"/>
<path d="M12 13.1429C12.6312 13.1429 13.1429 12.6312 13.1429 12C13.1429 11.3688 12.6312 10.8571 12 10.8571C11.3688 10.8571 10.8571 11.3688 10.8571 12C10.8571 12.6312 11.3688 13.1429 12 13.1429Z" fill="#333333"/>
<path d="M7.42858 13.1429C8.05976 13.1429 8.57144 12.6312 8.57144 12C8.57144 11.3688 8.05976 10.8571 7.42858 10.8571C6.7974 10.8571 6.28572 11.3688 6.28572 12C6.28572 12.6312 6.7974 13.1429 7.42858 13.1429Z" fill="#333333"/>
<path d="M16.5714 13.1429C17.2026 13.1429 17.7143 12.6312 17.7143 12C17.7143 11.3688 17.2026 10.8571 16.5714 10.8571C15.9402 10.8571 15.4286 11.3688 15.4286 12C15.4286 12.6312 15.9402 13.1429 16.5714 13.1429Z" fill="#333333"/>
<path d="M12 17.7143C12.6312 17.7143 13.1429 17.2026 13.1429 16.5714C13.1429 15.9402 12.6312 15.4286 12 15.4286C11.3688 15.4286 10.8571 15.9402 10.8571 16.5714C10.8571 17.2026 11.3688 17.7143 12 17.7143Z" fill="#333333"/>
<path d="M7.42858 17.7143C8.05976 17.7143 8.57144 17.2026 8.57144 16.5714C8.57144 15.9402 8.05976 15.4286 7.42858 15.4286C6.7974 15.4286 6.28572 15.9402 6.28572 16.5714C6.28572 17.2026 6.7974 17.7143 7.42858 17.7143Z" fill="#333333"/>
<path d="M16.5714 17.7143C17.2026 17.7143 17.7143 17.2026 17.7143 16.5714C17.7143 15.9402 17.2026 15.4286 16.5714 15.4286C15.9402 15.4286 15.4286 15.9402 15.4286 16.5714C15.4286 17.2026 15.9402 17.7143 16.5714 17.7143Z" fill="#333333"/>
</svg>
