<svg width="45" height="44" viewBox="0 0 45 44" fill="none" xmlns="http://www.w3.org/2000/svg">
<path d="M22.553 0.125C10.4729 0.125 0.677979 9.91992 0.677979 22C0.677979 34.0801 10.4729 43.875 22.553 43.875C34.6331 43.875 44.428 34.0801 44.428 22C44.428 9.91992 34.6331 0.125 22.553 0.125ZM33.0657 16.6143C33.0803 16.8438 33.0803 17.083 33.0803 17.3174C33.0803 24.4854 27.6213 32.7422 17.6458 32.7422C14.5696 32.7422 11.718 31.8486 9.31567 30.3105C9.75513 30.3594 10.175 30.3789 10.6243 30.3789C13.1633 30.3789 15.4973 29.5195 17.3577 28.0645C14.9749 28.0156 12.9729 26.4531 12.2893 24.3047C13.1243 24.4268 13.8762 24.4268 14.7356 24.207C13.5087 23.9578 12.4059 23.2914 11.6146 22.3212C10.8233 21.351 10.3923 20.1368 10.3948 18.8848V18.8164C11.1125 19.2217 11.9573 19.4707 12.8411 19.5049C12.0981 19.0097 11.4888 18.3389 11.0672 17.5519C10.6456 16.7649 10.4247 15.886 10.4241 14.9932C10.4241 13.9824 10.6877 13.0596 11.1614 12.2588C12.5232 13.9352 14.2226 15.3064 16.149 16.283C18.0754 17.2597 20.1858 17.8201 22.343 17.9277C21.5764 14.2412 24.3303 11.2578 27.6409 11.2578C29.2034 11.2578 30.6096 11.9121 31.6008 12.9668C32.8264 12.7373 33.9983 12.2783 35.0432 11.6631C34.6379 12.918 33.7883 13.9775 32.6604 14.6465C33.7542 14.5293 34.8088 14.2266 35.7854 13.8018C35.0481 14.8857 34.1252 15.8477 33.0657 16.6143Z" fill="#FA8B02"/>
</svg>
