<svg width="25" height="18" viewBox="0 0 25 18" fill="none" xmlns="http://www.w3.org/2000/svg">
<path d="M8.42817 4.73352C9.12437 2.29283 10.5301 1.07248 12.56 1.09248C14.5246 1.11249 15.9277 2.36351 16.5705 4.73886C16.6559 4.49479 16.7119 4.32541 16.7732 4.15736C17.252 2.86632 18.179 2.09677 19.542 1.98474C20.7957 1.88337 21.8093 2.4342 22.4415 3.52251C23.1257 4.69351 23.0484 5.87518 22.2401 6.96083C21.96 7.3356 21.9827 7.43697 22.3988 7.64769C23.7966 8.35189 24.4821 9.5269 24.4968 11.0887C24.5154 13.0039 24.5141 13.0052 22.6656 13.6134C22.1827 13.7845 21.6821 13.9004 21.1732 13.9588C20.8677 13.9868 20.625 13.8868 20.577 13.5681C20.529 13.2493 20.7317 13.0679 21.0304 13.0186C21.7556 12.91 22.4627 12.7036 23.1324 12.4051C23.3098 12.3237 23.5325 12.2717 23.5325 12.0116C23.5325 11.2807 23.6259 10.5365 23.2924 9.84699C22.8803 8.99474 22.2321 8.40791 21.2705 8.29321C20.2753 8.18852 19.2721 8.18584 18.2763 8.28521C18.0118 8.31695 17.7544 8.39268 17.5148 8.50927C16.7346 8.86271 16.7252 8.98141 17.3134 9.60025C18.1173 10.417 18.5896 11.5029 18.6391 12.6478C18.6631 13.1813 18.5831 13.7228 18.6604 14.2482C18.7938 15.1192 18.3804 15.5019 17.6255 15.8194C14.0138 17.3371 10.4581 17.2718 6.91841 15.5966C6.49562 15.3966 6.31423 15.1445 6.34758 14.6737C6.38492 14.1402 6.36225 13.6067 6.34758 13.0732C6.32357 11.6062 6.82638 10.3685 7.91603 9.39886C8.2788 9.0761 8.16143 8.93206 7.85468 8.716C6.84505 8.00379 3.58679 8.0198 2.58917 8.75201C1.68891 9.41753 1.16743 10.9833 1.47151 12.0556C1.54087 12.2957 1.73826 12.3437 1.90764 12.4211C2.5365 12.7034 3.2011 12.8981 3.88287 12.9999C4.19763 13.0466 4.46704 13.1826 4.42303 13.5454C4.37368 13.9455 4.06026 13.9962 3.71749 13.9455C2.69586 13.7948 1.74493 13.4307 0.821995 12.9826C0.737409 12.9512 0.663762 12.8959 0.610012 12.8235C0.556263 12.751 0.524727 12.6645 0.519241 12.5744C0.531245 11.5368 0.367198 10.4858 0.821995 9.48689C1.19136 8.64324 1.86045 7.96655 2.69987 7.58768C2.96661 7.46364 3.09998 7.39695 2.85724 7.08353C1.96365 5.95521 1.84629 4.72419 2.5905 3.4825C3.23602 2.40619 4.25364 1.86337 5.50734 1.99141C6.98909 2.14212 7.91869 3.02103 8.31881 4.45478C8.33615 4.51746 8.36949 4.57615 8.42817 4.73352ZM12.504 9.12812C11.9705 9.12812 11.437 9.10944 10.9035 9.12812C9.96236 9.17328 9.07244 9.57021 8.41 10.2403C7.74755 10.9104 7.36087 11.8048 7.32652 12.7465C7.31185 13.1906 7.35587 13.6387 7.30785 14.0802C7.25184 14.5937 7.48124 14.8284 7.9307 15.0138C10.8155 16.1901 13.715 16.2542 16.6385 15.1819C17.6935 14.7937 17.6895 14.7817 17.6882 13.6868C17.6882 13.376 17.6882 13.0652 17.6802 12.7532C17.6465 11.8111 17.2604 10.9161 16.5981 10.2452C15.9359 9.57438 15.046 9.17665 14.1045 9.13078C13.571 9.10811 13.0375 9.12812 12.504 9.12812ZM15.5542 5.08029C15.5494 4.27097 15.2234 3.4967 14.6477 2.9278C14.0721 2.3589 13.294 2.04198 12.4847 2.04675C11.6753 2.05153 10.9011 2.37761 10.3322 2.95326C9.76328 3.52891 9.44636 4.30698 9.45113 5.1163C9.4618 6.76077 10.8862 8.17451 12.5213 8.16117C14.1565 8.14784 15.5716 6.72476 15.5542 5.08029ZM5.2766 7.25158C5.84942 7.24384 6.39579 7.00922 6.79584 6.59916C7.19589 6.18911 7.41696 5.63712 7.41055 5.06429C7.39054 3.89328 6.37692 2.89833 5.21659 2.91967C4.05625 2.94101 3.0493 3.97464 3.0693 5.1243C3.0867 5.69686 3.32734 6.2399 3.73979 6.6374C4.15224 7.0349 4.7038 7.25533 5.2766 7.25158ZM19.7541 7.25158C20.3266 7.24787 20.875 7.0208 21.2826 6.61873C21.6901 6.21665 21.9246 5.67135 21.936 5.09896C21.9216 4.52664 21.6886 3.98157 21.2847 3.57576C20.8809 3.16994 20.337 2.93421 19.7648 2.917C19.1913 2.92765 18.6444 3.16055 18.2393 3.56661C17.8343 3.97267 17.6027 4.52015 17.5935 5.09363C17.5949 5.6661 17.823 6.21471 18.2279 6.61939C18.6329 7.02406 19.1816 7.25186 19.7541 7.25291V7.25158ZM9.96995 8.20385C9.12479 7.46794 8.58493 6.44292 8.45618 5.32969C8.30947 5.76849 8.25346 6.0339 8.13609 6.2633C7.9427 6.64874 7.46923 7.0902 7.55726 7.37028C7.65462 7.6877 8.30014 7.79573 8.60022 8.09982C9.01901 8.52794 9.40312 8.5893 9.96995 8.20385ZM14.974 8.27721C15.4529 8.33722 15.7423 8.712 16.101 8.35189C16.4425 8.00254 16.8507 7.72542 17.3014 7.53699C17.5001 7.45564 17.6201 7.36094 17.4227 7.15955C16.968 6.69675 16.7852 6.09258 16.5345 5.33103C16.3878 6.58339 15.8476 7.45564 14.9727 8.27721H14.974Z" fill="white" stroke="white" stroke-width="0.3"/>
</svg>
